Terminalia-Bold.ufo
<glyph name="exclam" format="2">
  <advance width="500"/>
  <unicode hex="0021"/>
  <outline>
    <contour>
      <point x="204" y="186" type="line"/>
      <point x="297" y="186" type="line"/>
      <point x="297" y="620" type="line"/>
      <point x="204" y="620" type="line"/>
    </contour>
    <contour>
      <point x="204" y="0" type="line"/>
      <point x="297" y="0" type="line"/>
      <point x="297" y="124" type="line"/>
      <point x="204" y="124" type="line"/>
    </contour>
  </outline>
</glyph>
<glyph name="quotedbl" format="2">
  <advance width="500"/>
  <unicode hex="0022"/>
  <outline>
    <contour>
      <point x="111" y="527" type="line"/>
      <point x="204" y="527" type="line"/>
      <point x="204" y="713" type="line"/>
      <point x="111" y="713" type="line"/>
    </contour>
    <contour>
      <point x="297" y="527" type="line"/>
      <point x="390" y="527" type="line"/>
      <point x="390" y="713" type="line"/>
      <point x="297" y="713" type="line"/>
    </contour>
  </outline>
</glyph>
<glyph name="numbersign" format="2">
  <advance width="500"/>
  <unicode hex="0023"/>
  <outline>
    <contour>
      <point x="49" y="155" type="line"/>
      <point x="111" y="155" type="line"/>
      <point x="111" y="0" type="line"/>
      <point x="204" y="0" type="line"/>
      <point x="204" y="155" type="line"/>
      <point x="297" y="155" type="line"/>
      <point x="297" y="0" type="line"/>
      <point x="390" y="0" type="line"/>
      <point x="390" y="155" type="line"/>
      <point x="452" y="155" type="line"/>
      <point x="452" y="217" type="line"/>
      <point x="390" y="217" type="line"/>
      <point x="390" y="403" type="line"/>
      <point x="452" y="403" type="line"/>
      <point x="452" y="465" type="line"/>
      <point x="390" y="465" type="line"/>
      <point x="390" y="620" type="line"/>
      <point x="297" y="620" type="line"/>
      <point x="297" y="465" type="line"/>
      <point x="204" y="465" type="line"/>
      <point x="204" y="620" type="line"/>
      <point x="111" y="620" type="line"/>
      <point x="111" y="465" type="line"/>
      <point x="49" y="465" type="line"/>
      <point x="49" y="403" type="line"/>
      <point x="111" y="403" type="line"/>
      <point x="111" y="217" type="line"/>
      <point x="49" y="217" type="line"/>
    </contour>
    <contour>
      <point x="204" y="217" type="line"/>
      <point x="204" y="403" type="line"/>
      <point x="297" y="403" type="line"/>
      <point x="297" y="217" type="line"/>
    </contour>
  </outline>
</glyph>
<glyph name="dollar" format="2">
  <advance width="500"/>
  <unicode hex="0024"/>
  <outline>
    <contour>
      <point x="49" y="93" type="line"/>
      <point x="80" y="93" type="line"/>
      <point x="80" y="62" type="line"/>
      <point x="111" y="62" type="line"/>
      <point x="111" y="31" type="line"/>
      <point x="204" y="31" type="line"/>
      <point x="204" y="-31" type="line"/>
      <point x="297" y="-31" type="line"/>
      <point x="297" y="31" type="line"/>
      <point x="390" y="31" type="line"/>
      <point x="390" y="62" type="line"/>
      <point x="421" y="62" type="line"/>
      <point x="421" y="93" type="line"/>
      <point x="452" y="93" type="line"/>
      <point x="452" y="279" type="line"/>
      <point x="421" y="279" type="line"/>
      <point x="421" y="310" type="line"/>
      <point x="390" y="310" type="line"/>
      <point x="390" y="341" type="line"/>
      <point x="297" y="341" type="line"/>
      <point x="297" y="527" type="line"/>
      <point x="359" y="527" type="line"/>
      <point x="359" y="465" type="line"/>
      <point x="452" y="465" type="line"/>
      <point x="452" y="527" type="line"/>
      <point x="421" y="527" type="line"/>
      <point x="421" y="558" type="line"/>
      <point x="390" y="558" type="line"/>
      <point x="390" y="589" type="line"/>
      <point x="297" y="589" type="line"/>
      <point x="297" y="651" type="line"/>
      <point x="204" y="651" type="line"/>
      <point x="204" y="589" type="line"/>
      <point x="111" y="589" type="line"/>
      <point x="111" y="558" type="line"/>
      <point x="80" y="558" type="line"/>
      <point x="80" y="527" type="line"/>
      <point x="49" y="527" type="line"/>
      <point x="49" y="341" type="line"/>
      <point x="80" y="341" type="line"/>
      <point x="80" y="310" type="line"/>
      <point x="111" y="310" type="line"/>
      <point x="111" y="279" type="line"/>
      <point x="204" y="279" type="line"/>
      <point x="204" y="93" type="line"/>
      <point x="142" y="93" type="line"/>
      <point x="142" y="155" type="line"/>
      <point x="49" y="155" type="line"/>
    </contour>
    <contour>
      <point x="142" y="341" type="line"/>
      <point x="142" y="527" type="line"/>
      <point x="204" y="527" type="line"/>
      <point x="204" y="341" type="line"/>
    </contour>
    <contour>
      <point x="297" y="93" type="line"/>
      <point x="297" y="279" type="line"/>
      <point x="359" y="279" type="line"/>
      <point x="359" y="93" type="line"/>
    </contour>
  </outline>
</glyph>
<glyph name="ampersand" format="2">
  <advance width="500"/>
  <unicode hex="0026"/>
  <outline>
    <contour>
      <point x="33" y="62" type="line"/>
      <point x="64" y="62" type="line"/>
      <point x="64" y="31" type="line"/>
      <point x="95" y="31" type="line"/>
      <point x="95" y="0" type="line"/>
      <point x="312" y="0" type="line"/>
      <point x="312" y="31" type="line"/>
      <point x="343" y="31" type="line"/>
      <point x="343" y="62" type="line"/>
      <point x="374" y="62" type="line"/>
      <point x="374" y="0" type="line"/>
      <point x="467" y="0" type="line"/>
      <point x="467" y="62" type="line"/>
      <point x="436" y="62" type="line"/>
      <point x="436" y="93" type="line"/>
      <point x="405" y="93" type="line"/>
      <point x="405" y="217" type="line"/>
      <point x="436" y="217" type="line"/>
      <point x="436" y="248" type="line"/>
      <point x="467" y="248" type="line"/>
      <point x="467" y="310" type="line"/>
      <point x="374" y="310" type="line"/>
      <point x="374" y="248" type="line"/>
      <point x="343" y="248" type="line"/>
      <point x="343" y="279" type="line"/>
      <point x="312" y="279" type="line"/>
      <point x="312" y="310" type="line"/>
      <point x="281" y="310" type="line"/>
      <point x="281" y="341" type="line"/>
      <point x="312" y="341" type="line"/>
      <point x="312" y="372" type="line"/>
      <point x="343" y="372" type="line"/>
      <point x="343" y="403" type="line"/>
      <point x="374" y="403" type="line"/>
      <point x="374" y="558" type="line"/>
      <point x="343" y="558" type="line"/>
      <point x="343" y="589" type="line"/>
      <point x="312" y="589" type="line"/>
      <point x="312" y="620" type="line"/>
      <point x="126" y="620" type="line"/>
      <point x="126" y="589" type="line"/>
      <point x="95" y="589" type="line"/>
      <point x="95" y="558" type="line"/>
      <point x="64" y="558" type="line"/>
      <point x="64" y="403" type="line"/>
      <point x="95" y="403" type="line"/>
      <point x="95" y="372" type="line"/>
      <point x="126" y="372" type="line"/>
      <point x="126" y="310" type="line"/>
      <point x="95" y="310" type="line"/>
      <point x="95" y="279" type="line"/>
      <point x="64" y="279" type="line"/>
      <point x="64" y="248" type="line"/>
      <point x="33" y="248" type="line"/>
    </contour>
    <contour>
      <point x="157" y="403" type="line"/>
      <point x="157" y="558" type="line"/>
      <point x="281" y="558" type="line"/>
      <point x="281" y="403" type="line"/>
      <point x="250" y="403" type="line"/>
      <point x="250" y="372" type="line"/>
      <point x="188" y="372" type="line"/>
      <point x="188" y="403" type="line"/>
    </contour>
    <contour>
      <point x="126" y="62" type="line"/>
      <point x="126" y="248" type="line"/>
      <point x="157" y="248" type="line"/>
      <point x="157" y="279" type="line"/>
      <point x="250" y="279" type="line"/>
      <point x="250" y="248" type="line"/>
      <point x="281" y="248" type="line"/>
      <point x="281" y="217" type="line"/>
      <point x="312" y="217" type="line"/>
      <point x="312" y="93" type="line"/>
      <point x="281" y="93" type="line"/>
      <point x="281" y="62" type="line"/>
    </contour>
  </outline>
</glyph>
<glyph name="quotesingle" format="2">
  <advance width="500"/>
  <unicode hex="0027"/>
  <outline>
    <contour>
      <point x="188" y="527" type="line"/>
      <point x="281" y="527" type="line"/>
      <point x="281" y="589" type="line"/>
      <point x="312" y="589" type="line"/>
      <point x="312" y="713" type="line"/>
      <point x="219" y="713" type="line"/>
      <point x="219" y="589" type="line"/>
      <point x="188" y="589" type="line"/>
    </contour>
  </outline>
</glyph>
<glyph name="parenleft" format="2">
  <advance width="500"/>
  <unicode hex="0028"/>
  <outline>
    <contour>
      <point x="142" y="155" type="line"/>
      <point x="173" y="155" type="line"/>
      <point x="173" y="93" type="line"/>
      <point x="204" y="93" type="line"/>
      <point x="204" y="62" type="line"/>
      <point x="235" y="62" type="line"/>
      <point x="235" y="31" type="line"/>
      <point x="266" y="31" type="line"/>
      <point x="266" y="0" type="line"/>
      <point x="359" y="0" type="line"/>
      <point x="359" y="31" type="line"/>
      <point x="328" y="31" type="line"/>
      <point x="328" y="62" type="line"/>
      <point x="297" y="62" type="line"/>
      <point x="297" y="93" type="line"/>
      <point x="266" y="93" type="line"/>
      <point x="266" y="155" type="line"/>
      <point x="235" y="155" type="line"/>
      <point x="235" y="465" type="line"/>
      <point x="266" y="465" type="line"/>
      <point x="266" y="527" type="line"/>
      <point x="297" y="527" type="line"/>
      <point x="297" y="558" type="line"/>
      <point x="328" y="558" type="line"/>
      <point x="328" y="589" type="line"/>
      <point x="359" y="589" type="line"/>
      <point x="359" y="620" type="line"/>
      <point x="266" y="620" type="line"/>
      <point x="266" y="589" type="line"/>
      <point x="235" y="589" type="line"/>
      <point x="235" y="558" type="line"/>
      <point x="204" y="558" type="line"/>
      <point x="204" y="527" type="line"/>
      <point x="173" y="527" type="line"/>
      <point x="173" y="465" type="line"/>
      <point x="142" y="465" type="line"/>
    </contour>
  </outline>
</glyph>
<glyph name="parenright" format="2">
  <advance width="500"/>
  <unicode hex="0029"/>
  <outline>
    <contour>
      <point x="142" y="0" type="line"/>
      <point x="235" y="0" type="line"/>
      <point x="235" y="31" type="line"/>
      <point x="266" y="31" type="line"/>
      <point x="266" y="62" type="line"/>
      <point x="297" y="62" type="line"/>
      <point x="297" y="93" type="line"/>
      <point x="328" y="93" type="line"/>
      <point x="328" y="155" type="line"/>
      <point x="359" y="155" type="line"/>
      <point x="359" y="465" type="line"/>
      <point x="328" y="465" type="line"/>
      <point x="328" y="527" type="line"/>
      <point x="297" y="527" type="line"/>
      <point x="297" y="558" type="line"/>
      <point x="266" y="558" type="line"/>
      <point x="266" y="589" type="line"/>
      <point x="235" y="589" type="line"/>
      <point x="235" y="620" type="line"/>
      <point x="142" y="620" type="line"/>
      <point x="142" y="589" type="line"/>
      <point x="173" y="589" type="line"/>
      <point x="173" y="558" type="line"/>
      <point x="204" y="558" type="line"/>
      <point x="204" y="527" type="line"/>
      <point x="235" y="527" type="line"/>
      <point x="235" y="465" type="line"/>
      <point x="266" y="465" type="line"/>
      <point x="266" y="155" type="line"/>
      <point x="235" y="155" type="line"/>
      <point x="235" y="93" type="line"/>
      <point x="204" y="93" type="line"/>
      <point x="204" y="62" type="line"/>
      <point x="173" y="62" type="line"/>
      <point x="173" y="31" type="line"/>
      <point x="142" y="31" type="line"/>
    </contour>
  </outline>
</glyph>
<glyph name="asterisk" format="2">
  <advance width="500"/>
  <unicode hex="002A"/>
  <outline>
    <contour>
      <point x="80" y="124" type="line"/>
      <point x="173" y="124" type="line"/>
      <point x="173" y="155" type="line"/>
      <point x="204" y="155" type="line"/>
      <point x="204" y="186" type="line"/>
      <point x="235" y="186" type="line"/>
      <point x="235" y="217" type="line"/>
      <point x="266" y="217" type="line"/>
      <point x="266" y="186" type="line"/>
      <point x="297" y="186" type="line"/>
      <point x="297" y="155" type="line"/>
      <point x="328" y="155" type="line"/>
      <point x="328" y="124" type="line"/>
      <point x="421" y="124" type="line"/>
      <point x="421" y="155" type="line"/>
      <point x="390" y="155" type="line"/>
      <point x="390" y="186" type="line"/>
      <point x="359" y="186" type="line"/>
      <point x="359" y="217" type="line"/>
      <point x="328" y="217" type="line"/>
      <point x="328" y="248" type="line"/>
      <point x="297" y="248" type="line"/>
      <point x="297" y="279" type="line"/>
      <point x="452" y="279" type="line"/>
      <point x="452" y="341" type="line"/>
      <point x="297" y="341" type="line"/>
      <point x="297" y="372" type="line"/>
      <point x="328" y="372" type="line"/>
      <point x="328" y="403" type="line"/>
      <point x="359" y="403" type="line"/>
      <point x="359" y="434" type="line"/>
      <point x="390" y="434" type="line"/>
      <point x="390" y="465" type="line"/>
      <point x="421" y="465" type="line"/>
      <point x="421" y="496" type="line"/>
      <point x="328" y="496" type="line"/>
      <point x="328" y="465" type="line"/>
      <point x="297" y="465" type="line"/>
      <point x="297" y="434" type="line"/>
      <point x="266" y="434" type="line"/>
      <point x="266" y="403" type="line"/>
      <point x="235" y="403" type="line"/>
      <point x="235" y="434" type="line"/>
      <point x="204" y="434" type="line"/>
      <point x="204" y="465" type="line"/>
      <point x="173" y="465" type="line"/>
      <point x="173" y="496" type="line"/>
      <point x="80" y="496" type="line"/>
      <point x="80" y="465" type="line"/>
      <point x="111" y="465" type="line"/>
      <point x="111" y="434" type="line"/>
      <point x="142" y="434" type="line"/>
      <point x="142" y="403" type="line"/>
      <point x="173" y="403" type="line"/>
      <point x="173" y="372" type="line"/>
      <point x="204" y="372" type="line"/>
      <point x="204" y="341" type="line"/>
      <point x="49" y="341" type="line"/>
      <point x="49" y="279" type="line"/>
      <point x="204" y="279" type="line"/>
      <point x="204" y="248" type="line"/>
      <point x="173" y="248" type="line"/>
      <point x="173" y="217" type="line"/>
      <point x="142" y="217" type="line"/>
      <point x="142" y="186" type="line"/>
      <point x="111" y="186" type="line"/>
      <point x="111" y="155" type="line"/>
      <point x="80" y="155" type="line"/>
    </contour>
  </outline>
</glyph>
<glyph name="plus" format="2">
  <advance width="500"/>
  <unicode hex="002B"/>
  <outline>
    <contour>
      <point x="49" y="279" type="line"/>
      <point x="204" y="279" type="line"/>
      <point x="204" y="124" type="line"/>
      <point x="297" y="124" type="line"/>
      <point x="297" y="279" type="line"/>
      <point x="452" y="279" type="line"/>
      <point x="452" y="341" type="line"/>
      <point x="297" y="341" type="line"/>
      <point x="297" y="496" type="line"/>
      <point x="204" y="496" type="line"/>
      <point x="204" y="341" type="line"/>
      <point x="49" y="341" type="line"/>
    </contour>
  </outline>
</glyph>
<glyph name="comma" format="2">
  <advance width="500"/>
  <unicode hex="002C"/>
  <outline>
    <contour>
      <point x="173" y="-62" type="line"/>
      <point x="266" y="-62" type="line"/>
      <point x="266" y="-31" type="line"/>
      <point x="297" y="-31" type="line"/>
      <point x="297" y="0" type="line"/>
      <point x="328" y="0" type="line"/>
      <point x="328" y="124" type="line"/>
      <point x="235" y="124" type="line"/>
      <point x="235" y="0" type="line"/>
      <point x="204" y="0" type="line"/>
      <point x="204" y="-31" type="line"/>
      <point x="173" y="-31" type="line"/>
    </contour>
  </outline>
</glyph>
<glyph name="hyphen" format="2">
  <advance width="500"/>
  <unicode hex="002D"/>
  <outline>
    <contour>
      <point x="49" y="279" type="line"/>
      <point x="452" y="279" type="line"/>
      <point x="452" y="341" type="line"/>
      <point x="49" y="341" type="line"/>
    </contour>
  </outline>
</glyph>
<glyph name="slash" format="2">
  <advance width="500"/>
  <unicode hex="002F"/>
  <outline>
    <contour>
      <point x="64" y="0" type="line"/>
      <point x="157" y="0" type="line"/>
      <point x="157" y="62" type="line"/>
      <point x="188" y="62" type="line"/>
      <point x="188" y="124" type="line"/>
      <point x="219" y="124" type="line"/>
      <point x="219" y="186" type="line"/>
      <point x="250" y="186" type="line"/>
      <point x="250" y="248" type="line"/>
      <point x="281" y="248" type="line"/>
      <point x="281" y="310" type="line"/>
      <point x="312" y="310" type="line"/>
      <point x="312" y="372" type="line"/>
      <point x="343" y="372" type="line"/>
      <point x="343" y="434" type="line"/>
      <point x="374" y="434" type="line"/>
      <point x="374" y="496" type="line"/>
      <point x="405" y="496" type="line"/>
      <point x="405" y="558" type="line"/>
      <point x="436" y="558" type="line"/>
      <point x="436" y="620" type="line"/>
      <point x="343" y="620" type="line"/>
      <point x="343" y="558" type="line"/>
      <point x="312" y="558" type="line"/>
      <point x="312" y="496" type="line"/>
      <point x="281" y="496" type="line"/>
      <point x="281" y="434" type="line"/>
      <point x="250" y="434" type="line"/>
      <point x="250" y="372" type="line"/>
      <point x="219" y="372" type="line"/>
      <point x="219" y="310" type="line"/>
      <point x="188" y="310" type="line"/>
      <point x="188" y="248" type="line"/>
      <point x="157" y="248" type="line"/>
      <point x="157" y="186" type="line"/>
      <point x="126" y="186" type="line"/>
      <point x="126" y="124" type="line"/>
      <point x="95" y="124" type="line"/>
      <point x="95" y="62" type="line"/>
      <point x="64" y="62" type="line"/>
    </contour>
  </outline>
</glyph>
<glyph name="zero" format="2">
  <advance width="500"/>
  <unicode hex="0030"/>
  <outline>
    <contour>
      <point x="49" y="62" type="line"/>
      <point x="80" y="62" type="line"/>
      <point x="80" y="31" type="line"/>
      <point x="111" y="31" type="line"/>
      <point x="111" y="0" type="line"/>
      <point x="390" y="0" type="line"/>
      <point x="390" y="31" type="line"/>
      <point x="421" y="31" type="line"/>
      <point x="421" y="62" type="line"/>
      <point x="452" y="62" type="line"/>
      <point x="452" y="558" type="line"/>
      <point x="421" y="558" type="line"/>
      <point x="421" y="589" type="line"/>
      <point x="390" y="589" type="line"/>
      <point x="390" y="620" type="line"/>
      <point x="111" y="620" type="line"/>
      <point x="111" y="589" type="line"/>
      <point x="80" y="589" type="line"/>
      <point x="80" y="558" type="line"/>
      <point x="49" y="558" type="line"/>
    </contour>
    <contour>
      <point x="142" y="279" type="line"/>
      <point x="142" y="558" type="line"/>
      <point x="359" y="558" type="line"/>
      <point x="359" y="465" type="line"/>
      <point x="328" y="465" type="line"/>
      <point x="328" y="434" type="line"/>
      <point x="297" y="434" type="line"/>
      <point x="297" y="403" type="line"/>
      <point x="281.5" y="403" type="line"/>
      <point x="281.5" y="403" type="line"/>
      <point x="266" y="403" type="line"/>
      <point x="266" y="372" type="line"/>
      <point x="235" y="372" type="line"/>
      <point x="235" y="341" type="line"/>
      <point x="204" y="341" type="line"/>
      <point x="204" y="310" type="line"/>
      <point x="173" y="310" type="line"/>
      <point x="173" y="279" type="line"/>
    </contour>
    <contour>
      <point x="142" y="62" type="line"/>
      <point x="142" y="186" type="line"/>
      <point x="173" y="186" type="line"/>
      <point x="173" y="217" type="line"/>
      <point x="204" y="217" type="line"/>
      <point x="204" y="248" type="line"/>
      <point x="235" y="248" type="line"/>
      <point x="235" y="279" type="line"/>
      <point x="250.5" y="279" type="line"/>
      <point x="250.5" y="279" type="line"/>
      <point x="266" y="279" type="line"/>
      <point x="266" y="310" type="line"/>
      <point x="297" y="310" type="line"/>
      <point x="297" y="341" type="line"/>
      <point x="328" y="341" type="line"/>
      <point x="328" y="372" type="line"/>
      <point x="359" y="372" type="line"/>
      <point x="359" y="62" type="line"/>
    </contour>
  </outline>
</glyph>
<glyph name="one" format="2">
  <advance width="500"/>
  <unicode hex="0031"/>
  <outline>
    <contour>
      <point x="111" y="0" type="line"/>
      <point x="390" y="0" type="line"/>
      <point x="390" y="62" type="line"/>
      <point x="297" y="62" type="line"/>
      <point x="297" y="620" type="line"/>
      <point x="204" y="620" type="line"/>
      <point x="204" y="589" type="line"/>
      <point x="173" y="589" type="line"/>
      <point x="173" y="558" type="line"/>
      <point x="142" y="558" type="line"/>
      <point x="142" y="527" type="line"/>
      <point x="111" y="527" type="line"/>
      <point x="111" y="465" type="line"/>
      <point x="173" y="465" type="line"/>
      <point x="173" y="496" type="line"/>
      <point x="204" y="496" type="line"/>
      <point x="204" y="62" type="line"/>
      <point x="111" y="62" type="line"/>
    </contour>
  </outline>
</glyph>
<glyph name="two" format="2">
  <advance width="500"/>
  <unicode hex="0032"/>
  <outline>
    <contour>
      <point x="49" y="0" type="line"/>
      <point x="452" y="0" type="line"/>
      <point x="452" y="62" type="line"/>
      <point x="142" y="62" type="line"/>
      <point x="142" y="93" type="line"/>
      <point x="173" y="93" type="line"/>
      <point x="173" y="124" type="line"/>
      <point x="204" y="124" type="line"/>
      <point x="204" y="155" type="line"/>
      <point x="235" y="155" type="line"/>
      <point x="235" y="186" type="line"/>
      <point x="266" y="186" type="line"/>
      <point x="266" y="217" type="line"/>
      <point x="297" y="217" type="line"/>
      <point x="297" y="248" type="line"/>
      <point x="328" y="248" type="line"/>
      <point x="328" y="279" type="line"/>
      <point x="359" y="279" type="line"/>
      <point x="359" y="310" type="line"/>
      <point x="390" y="310" type="line"/>
      <point x="390" y="341" type="line"/>
      <point x="421" y="341" type="line"/>
      <point x="421" y="372" type="line"/>
      <point x="452" y="372" type="line"/>
      <point x="452" y="558" type="line"/>
      <point x="421" y="558" type="line"/>
      <point x="421" y="589" type="line"/>
      <point x="390" y="589" type="line"/>
      <point x="390" y="620" type="line"/>
      <point x="111" y="620" type="line"/>
      <point x="111" y="589" type="line"/>
      <point x="80" y="589" type="line"/>
      <point x="80" y="558" type="line"/>
      <point x="49" y="558" type="line"/>
      <point x="49" y="403" type="line"/>
      <point x="142" y="403" type="line"/>
      <point x="142" y="558" type="line"/>
      <point x="359" y="558" type="line"/>
      <point x="359" y="372" type="line"/>
      <point x="328" y="372" type="line"/>
      <point x="328" y="341" type="line"/>
      <point x="297" y="341" type="line"/>
      <point x="297" y="310" type="line"/>
      <point x="266" y="310" type="line"/>
      <point x="266" y="279" type="line"/>
      <point x="235" y="279" type="line"/>
      <point x="235" y="248" type="line"/>
      <point x="204" y="248" type="line"/>
      <point x="204" y="217" type="line"/>
      <point x="173" y="217" type="line"/>
      <point x="173" y="186" type="line"/>
      <point x="142" y="186" type="line"/>
      <point x="142" y="155" type="line"/>
      <point x="111" y="155" type="line"/>
      <point x="111" y="124" type="line"/>
      <point x="80" y="124" type="line"/>
      <point x="80" y="93" type="line"/>
      <point x="49" y="93" type="line"/>
    </contour>
  </outline>
</glyph>
<glyph name="three" format="2">
  <advance width="500"/>
  <unicode hex="0033"/>
  <outline>
    <contour>
      <point x="49" y="62" type="line"/>
      <point x="80" y="62" type="line"/>
      <point x="80" y="31" type="line"/>
      <point x="111" y="31" type="line"/>
      <point x="111" y="0" type="line"/>
      <point x="390" y="0" type="line"/>
      <point x="390" y="31" type="line"/>
      <point x="421" y="31" type="line"/>
      <point x="421" y="62" type="line"/>
      <point x="452" y="62" type="line"/>
      <point x="452" y="279" type="line"/>
      <point x="421" y="279" type="line"/>
      <point x="421" y="341" type="line"/>
      <point x="452" y="341" type="line"/>
      <point x="452" y="558" type="line"/>
      <point x="421" y="558" type="line"/>
      <point x="421" y="589" type="line"/>
      <point x="390" y="589" type="line"/>
      <point x="390" y="620" type="line"/>
      <point x="111" y="620" type="line"/>
      <point x="111" y="589" type="line"/>
      <point x="80" y="589" type="line"/>
      <point x="80" y="558" type="line"/>
      <point x="49" y="558" type="line"/>
      <point x="49" y="496" type="line"/>
      <point x="142" y="496" type="line"/>
      <point x="142" y="558" type="line"/>
      <point x="359" y="558" type="line"/>
      <point x="359" y="341" type="line"/>
      <point x="142" y="341" type="line"/>
      <point x="142" y="279" type="line"/>
      <point x="359" y="279" type="line"/>
      <point x="359" y="62" type="line"/>
      <point x="142" y="62" type="line"/>
      <point x="142" y="124" type="line"/>
      <point x="49" y="124" type="line"/>
    </contour>
  </outline>
</glyph>
<glyph name="four" format="2">
  <advance width="500"/>
  <unicode hex="0034"/>
  <outline>
    <contour>
      <point x="49" y="155" type="line"/>
      <point x="359" y="155" type="line"/>
      <point x="359" y="0" type="line"/>
      <point x="452" y="0" type="line"/>
      <point x="452" y="620" type="line"/>
      <point x="359" y="620" type="line"/>
      <point x="359" y="589" type="line"/>
      <point x="328" y="589" type="line"/>
      <point x="328" y="558" type="line"/>
      <point x="297" y="558" type="line"/>
      <point x="297" y="527" type="line"/>
      <point x="266" y="527" type="line"/>
      <point x="266" y="496" type="line"/>
      <point x="235" y="496" type="line"/>
      <point x="235" y="465" type="line"/>
      <point x="204" y="465" type="line"/>
      <point x="204" y="434" type="line"/>
      <point x="173" y="434" type="line"/>
      <point x="173" y="403" type="line"/>
      <point x="142" y="403" type="line"/>
      <point x="142" y="372" type="line"/>
      <point x="111" y="372" type="line"/>
      <point x="111" y="341" type="line"/>
      <point x="80" y="341" type="line"/>
      <point x="80" y="310" type="line"/>
      <point x="49" y="310" type="line"/>
    </contour>
    <contour>
      <point x="142" y="217" type="line"/>
      <point x="142" y="310" type="line"/>
      <point x="173" y="310" type="line"/>
      <point x="173" y="341" type="line"/>
      <point x="204" y="341" type="line"/>
      <point x="204" y="372" type="line"/>
      <point x="235" y="372" type="line"/>
      <point x="235" y="403" type="line"/>
      <point x="265.5" y="403" type="line"/>
      <point x="265.5" y="434" type="line"/>
      <point x="297" y="434" type="line"/>
      <point x="297" y="465" type="line"/>
      <point x="328" y="465" type="line"/>
      <point x="328" y="496" type="line"/>
      <point x="359" y="496" type="line"/>
      <point x="359" y="527" type="line"/>
      <point x="359" y="527" type="line"/>
      <point x="359" y="217" type="line"/>
    </contour>
  </outline>
</glyph>
<glyph name="five" format="2">
  <advance width="500"/>
  <unicode hex="0035"/>
  <outline>
    <contour>
      <point x="49" y="62" type="line"/>
      <point x="80" y="62" type="line"/>
      <point x="80" y="31" type="line"/>
      <point x="111" y="31" type="line"/>
      <point x="111" y="0" type="line"/>
      <point x="390" y="0" type="line"/>
      <point x="390" y="31" type="line"/>
      <point x="421" y="31" type="line"/>
      <point x="421" y="62" type="line"/>
      <point x="452" y="62" type="line"/>
      <point x="452" y="310" type="line"/>
      <point x="421" y="310" type="line"/>
      <point x="421" y="341" type="line"/>
      <point x="390" y="341" type="line"/>
      <point x="390" y="372" type="line"/>
      <point x="142" y="372" type="line"/>
      <point x="142" y="558" type="line"/>
      <point x="452" y="558" type="line"/>
      <point x="452" y="620" type="line"/>
      <point x="49" y="620" type="line"/>
      <point x="49" y="310" type="line"/>
      <point x="359" y="310" type="line"/>
      <point x="359" y="62" type="line"/>
      <point x="142" y="62" type="line"/>
      <point x="142" y="124" type="line"/>
      <point x="49" y="124" type="line"/>
    </contour>
  </outline>
</glyph>
<glyph name="six" format="2">
  <advance width="500"/>
  <unicode hex="0036"/>
  <outline>
    <contour>
      <point x="49" y="62" type="line"/>
      <point x="80" y="62" type="line"/>
      <point x="80" y="31" type="line"/>
      <point x="111" y="31" type="line"/>
      <point x="111" y="0" type="line"/>
      <point x="390" y="0" type="line"/>
      <point x="390" y="31" type="line"/>
      <point x="421" y="31" type="line"/>
      <point x="421" y="62" type="line"/>
      <point x="452" y="62" type="line"/>
      <point x="452" y="310" type="line"/>
      <point x="421" y="310" type="line"/>
      <point x="421" y="341" type="line"/>
      <point x="390" y="341" type="line"/>
      <point x="390" y="372" type="line"/>
      <point x="142" y="372" type="line"/>
      <point x="142" y="558" type="line"/>
      <point x="421" y="558" type="line"/>
      <point x="421" y="620" type="line"/>
      <point x="111" y="620" type="line"/>
      <point x="111" y="589" type="line"/>
      <point x="80" y="589" type="line"/>
      <point x="80" y="558" type="line"/>
      <point x="49" y="558" type="line"/>
    </contour>
    <contour>
      <point x="142" y="62" type="line"/>
      <point x="142" y="310" type="line"/>
      <point x="359" y="310" type="line"/>
      <point x="359" y="62" type="line"/>
    </contour>
  </outline>
</glyph>
<glyph name="seven" format="2">
  <advance width="500"/>
  <unicode hex="0037"/>
  <outline>
    <contour>
      <point x="49" y="434" type="line"/>
      <point x="142" y="434" type="line"/>
      <point x="142" y="558" type="line"/>
      <point x="359" y="558" type="line"/>
      <point x="359" y="465" type="line"/>
      <point x="328" y="465" type="line"/>
      <point x="328" y="403" type="line"/>
      <point x="297" y="403" type="line"/>
      <point x="297" y="341" type="line"/>
      <point x="266" y="341" type="line"/>
      <point x="266" y="279" type="line"/>
      <point x="235" y="279" type="line"/>
      <point x="235" y="217" type="line"/>
      <point x="204" y="217" type="line"/>
      <point x="204" y="0" type="line"/>
      <point x="297" y="0" type="line"/>
      <point x="297" y="217" type="line"/>
      <point x="328" y="217" type="line"/>
      <point x="328" y="279" type="line"/>
      <point x="359" y="279" type="line"/>
      <point x="359" y="341" type="line"/>
      <point x="390" y="341" type="line"/>
      <point x="390" y="403" type="line"/>
      <point x="421" y="403" type="line"/>
      <point x="421" y="465" type="line"/>
      <point x="452" y="465" type="line"/>
      <point x="452" y="620" type="line"/>
      <point x="49" y="620" type="line"/>
    </contour>
  </outline>
</glyph>
<glyph name="colon" format="2">
  <advance width="500"/>
  <unicode hex="003A"/>
  <outline>
    <contour>
      <point x="204" y="310" type="line"/>
      <point x="297" y="310" type="line"/>
      <point x="297" y="434" type="line"/>
      <point x="204" y="434" type="line"/>
    </contour>
    <contour>
      <point x="204" y="0" type="line"/>
      <point x="297" y="0" type="line"/>
      <point x="297" y="124" type="line"/>
      <point x="204" y="124" type="line"/>
    </contour>
  </outline>
</glyph>
<glyph name="semicolon" format="2">
  <advance width="500"/>
  <unicode hex="003B"/>
  <outline>
    <contour>
      <point x="235" y="310" type="line"/>
      <point x="328" y="310" type="line"/>
      <point x="328" y="434" type="line"/>
      <point x="235" y="434" type="line"/>
    </contour>
    <contour>
      <point x="173" y="-62" type="line"/>
      <point x="266" y="-62" type="line"/>
      <point x="266" y="-31" type="line"/>
      <point x="297" y="-31" type="line"/>
      <point x="297" y="0" type="line"/>
      <point x="328" y="0" type="line"/>
      <point x="328" y="124" type="line"/>
      <point x="235" y="124" type="line"/>
      <point x="235" y="0" type="line"/>
      <point x="204" y="0" type="line"/>
      <point x="204" y="-31" type="line"/>
      <point x="173" y="-31" type="line"/>
    </contour>
  </outline>
</glyph>
<glyph name="less" format="2">
  <advance width="500"/>
  <unicode hex="003C"/>
  <outline>
    <component base="lessequal" yOffset="58"/>
    <contour>
      <point x="58" y="-0.0387" type="line"/>
      <point x="442" y="-0.0387" type="line"/>
      <point x="442" y="61.9613" type="line"/>
      <point x="58" y="61.9613" type="line"/>
    </contour>
  </outline>
</glyph>
<glyph name="equal" format="2">
  <advance width="500"/>
  <unicode hex="003D"/>
  <outline>
    <contour>
      <point x="49" y="372" type="line"/>
      <point x="452" y="372" type="line"/>
      <point x="452" y="434" type="line"/>
      <point x="49" y="434" type="line"/>
    </contour>
    <contour>
      <point x="49" y="186" type="line"/>
      <point x="452" y="186" type="line"/>
      <point x="452" y="248" type="line"/>
      <point x="49" y="248" type="line"/>
    </contour>
  </outline>
</glyph>
<glyph name="greater" format="2">
  <advance width="500"/>
  <unicode hex="003E"/>
  <outline>
    <contour>
      <point x="64" y="0" type="line"/>
      <point x="157" y="0" type="line"/>
      <point x="157" y="31" type="line"/>
      <point x="188" y="31" type="line"/>
      <point x="188" y="62" type="line"/>
      <point x="219" y="62" type="line"/>
      <point x="219" y="93" type="line"/>
      <point x="250" y="93" type="line"/>
      <point x="250" y="124" type="line"/>
      <point x="281" y="124" type="line"/>
      <point x="281" y="155" type="line"/>
      <point x="312" y="155" type="line"/>
      <point x="312" y="186" type="line"/>
      <point x="343" y="186" type="line"/>
      <point x="343" y="217" type="line"/>
      <point x="374" y="217" type="line"/>
      <point x="374" y="248" type="line"/>
      <point x="405" y="248" type="line"/>
      <point x="405" y="279" type="line"/>
      <point x="436" y="279" type="line"/>
      <point x="436" y="341" type="line"/>
      <point x="405" y="341" type="line"/>
      <point x="405" y="372" type="line"/>
      <point x="374" y="372" type="line"/>
      <point x="374" y="403" type="line"/>
      <point x="343" y="403" type="line"/>
      <point x="343" y="434" type="line"/>
      <point x="312" y="434" type="line"/>
      <point x="312" y="465" type="line"/>
      <point x="281" y="465" type="line"/>
      <point x="281" y="496" type="line"/>
      <point x="250" y="496" type="line"/>
      <point x="250" y="527" type="line"/>
      <point x="219" y="527" type="line"/>
      <point x="219" y="558" type="line"/>
      <point x="188" y="558" type="line"/>
      <point x="188" y="589" type="line"/>
      <point x="157" y="589" type="line"/>
      <point x="157" y="620" type="line"/>
      <point x="64" y="620" type="line"/>
      <point x="64" y="589" type="line"/>
      <point x="95" y="589" type="line"/>
      <point x="95" y="558" type="line"/>
      <point x="126" y="558" type="line"/>
      <point x="126" y="527" type="line"/>
      <point x="157" y="527" type="line"/>
      <point x="157" y="496" type="line"/>
      <point x="188" y="496" type="line"/>
      <point x="188" y="465" type="line"/>
      <point x="219" y="465" type="line"/>
      <point x="219" y="434" type="line"/>
      <point x="250" y="434" type="line"/>
      <point x="250" y="403" type="line"/>
      <point x="281" y="403" type="line"/>
      <point x="281" y="372" type="line"/>
      <point x="312" y="372" type="line"/>
      <point x="312" y="341" type="line"/>
      <point x="343" y="341" type="line"/>
      <point x="343" y="279" type="line"/>
      <point x="312" y="279" type="line"/>
      <point x="312" y="248" type="line"/>
      <point x="281" y="248" type="line"/>
      <point x="281" y="217" type="line"/>
      <point x="250" y="217" type="line"/>
      <point x="250" y="186" type="line"/>
      <point x="219" y="186" type="line"/>
      <point x="219" y="155" type="line"/>
      <point x="188" y="155" type="line"/>
      <point x="188" y="124" type="line"/>
      <point x="157" y="124" type="line"/>
      <point x="157" y="93" type="line"/>
      <point x="126" y="93" type="line"/>
      <point x="126" y="62" type="line"/>
      <point x="95" y="62" type="line"/>
      <point x="95" y="31" type="line"/>
      <point x="64" y="31" type="line"/>
    </contour>
  </outline>
</glyph>
<glyph name="question" format="2">
  <advance width="500"/>
  <unicode hex="003F"/>
  <outline>
    <contour>
      <point x="49" y="403" type="line"/>
      <point x="142" y="403" type="line"/>
      <point x="142" y="558" type="line"/>
      <point x="359" y="558" type="line"/>
      <point x="359" y="403" type="line"/>
      <point x="328" y="403" type="line"/>
      <point x="328" y="372" type="line"/>
      <point x="297" y="372" type="line"/>
      <point x="297" y="341" type="line"/>
      <point x="266" y="341" type="line"/>
      <point x="266" y="310" type="line"/>
      <point x="235" y="310" type="line"/>
      <point x="235" y="279" type="line"/>
      <point x="204" y="279" type="line"/>
      <point x="204" y="186" type="line"/>
      <point x="297" y="186" type="line"/>
      <point x="297" y="279" type="line"/>
      <point x="328" y="279" type="line"/>
      <point x="328" y="310" type="line"/>
      <point x="359" y="310" type="line"/>
      <point x="359" y="341" type="line"/>
      <point x="390" y="341" type="line"/>
      <point x="390" y="372" type="line"/>
      <point x="421" y="372" type="line"/>
      <point x="421" y="403" type="line"/>
      <point x="452" y="403" type="line"/>
      <point x="452" y="558" type="line"/>
      <point x="421" y="558" type="line"/>
      <point x="421" y="589" type="line"/>
      <point x="390" y="589" type="line"/>
      <point x="390" y="620" type="line"/>
      <point x="111" y="620" type="line"/>
      <point x="111" y="589" type="line"/>
      <point x="80" y="589" type="line"/>
      <point x="80" y="558" type="line"/>
      <point x="49" y="558" type="line"/>
    </contour>
    <contour>
      <point x="204" y="0" type="line"/>
      <point x="297" y="0" type="line"/>
      <point x="297" y="124" type="line"/>
      <point x="204" y="124" type="line"/>
    </contour>
  </outline>
</glyph>
<glyph name="at" format="2">
  <advance width="500"/>
  <unicode hex="0040"/>
  <outline>
    <contour>
      <point x="33" y="62" type="line"/>
      <point x="64" y="62" type="line"/>
      <point x="64" y="31" type="line"/>
      <point x="95" y="31" type="line"/>
      <point x="95" y="0" type="line"/>
      <point x="467" y="0" type="line"/>
      <point x="467" y="62" type="line"/>
      <point x="126" y="62" type="line"/>
      <point x="126" y="558" type="line"/>
      <point x="374" y="558" type="line"/>
      <point x="374" y="527" type="line"/>
      <point x="405" y="527" type="line"/>
      <point x="405" y="496" type="line"/>
      <point x="219" y="496" type="line"/>
      <point x="219" y="465" type="line"/>
      <point x="188" y="465" type="line"/>
      <point x="188" y="434" type="line"/>
      <point x="157" y="434" type="line"/>
      <point x="157" y="186" type="line"/>
      <point x="188" y="186" type="line"/>
      <point x="188" y="155" type="line"/>
      <point x="219" y="155" type="line"/>
      <point x="219" y="124" type="line"/>
      <point x="374" y="124" type="line"/>
      <point x="374" y="155" type="line"/>
      <point x="405" y="155" type="line"/>
      <point x="405" y="124" type="line"/>
      <point x="467" y="124" type="line"/>
      <point x="467" y="558" type="line"/>
      <point x="436" y="558" type="line"/>
      <point x="436" y="589" type="line"/>
      <point x="405" y="589" type="line"/>
      <point x="405" y="620" type="line"/>
      <point x="95" y="620" type="line"/>
      <point x="95" y="589" type="line"/>
      <point x="64" y="589" type="line"/>
      <point x="64" y="558" type="line"/>
      <point x="33" y="558" type="line"/>
    </contour>
    <contour>
      <point x="250" y="186" type="line"/>
      <point x="250" y="434" type="line"/>
      <point x="374" y="434" type="line"/>
      <point x="374" y="217" type="line"/>
      <point x="343" y="217" type="line"/>
      <point x="343" y="186" type="line"/>
    </contour>
  </outline>
</glyph>
<glyph name="A" format="2">
  <advance width="500"/>
  <unicode hex="0041"/>
  <anchor x="250" y="651" name="top"/>
  <anchor x="250" y="690" name="t.macron"/>
  <anchor x="248" y="620" name="t.ring"/>
  <anchor x="359" y="0" name="b.ogonek"/>
  <outline>
    <contour>
      <point x="49" y="0" type="line"/>
      <point x="142" y="0" type="line"/>
      <point x="142" y="248" type="line"/>
      <point x="359" y="248" type="line"/>
      <point x="359" y="0" type="line"/>
      <point x="452" y="0" type="line"/>
      <point x="452" y="558" type="line"/>
      <point x="421" y="558" type="line"/>
      <point x="421" y="589" type="line"/>
      <point x="390" y="589" type="line"/>
      <point x="390" y="620" type="line"/>
      <point x="111" y="620" type="line"/>
      <point x="111" y="589" type="line"/>
      <point x="80" y="589" type="line"/>
      <point x="80" y="558" type="line"/>
      <point x="49" y="558" type="line"/>
    </contour>
    <contour>
      <point x="142" y="310" type="line"/>
      <point x="142" y="558" type="line"/>
      <point x="359" y="558" type="line"/>
      <point x="359" y="310" type="line"/>
    </contour>
  </outline>
  <guideline angle="90" x="49" y="0"/>
  <guideline angle="90" x="452" y="0"/>
  <guideline angle="0" x="0" y="651"/>
  <guideline angle="90" x="250" y="0"/>
</glyph>
<glyph name="C" format="2">
  <advance width="500"/>
  <unicode hex="0043"/>
  <anchor x="250" y="651" name="top"/>
  <anchor x="251" y="0" name="cedilla"/>
  <outline>
    <contour>
      <point x="49" y="62" type="line"/>
      <point x="80" y="62" type="line"/>
      <point x="80" y="31" type="line"/>
      <point x="111" y="31" type="line"/>
      <point x="111" y="0" type="line"/>
      <point x="390" y="0" type="line"/>
      <point x="390" y="31" type="line"/>
      <point x="421" y="31" type="line"/>
      <point x="421" y="62" type="line"/>
      <point x="452" y="62" type="line"/>
      <point x="452" y="155" type="line"/>
      <point x="359" y="155" type="line"/>
      <point x="359" y="62" type="line"/>
      <point x="142" y="62" type="line"/>
      <point x="142" y="558" type="line"/>
      <point x="359" y="558" type="line"/>
      <point x="359" y="465" type="line"/>
      <point x="452" y="465" type="line"/>
      <point x="452" y="558" type="line"/>
      <point x="421" y="558" type="line"/>
      <point x="421" y="589" type="line"/>
      <point x="390" y="589" type="line"/>
      <point x="390" y="620" type="line"/>
      <point x="111" y="620" type="line"/>
      <point x="111" y="589" type="line"/>
      <point x="80" y="589" type="line"/>
      <point x="80" y="558" type="line"/>
      <point x="49" y="558" type="line"/>
    </contour>
  </outline>
  <guideline angle="0" x="0" y="651"/>
  <guideline angle="90" x="49" y="0"/>
  <guideline angle="90" x="452" y="0"/>
  <guideline angle="90" x="250" y="0"/>
</glyph>
<glyph name="D" format="2">
  <advance width="500"/>
  <unicode hex="0044"/>
  <outline>
    <contour>
      <point x="49" y="0" type="line"/>
      <point x="359" y="0" type="line"/>
      <point x="359" y="31" type="line"/>
      <point x="390" y="31" type="line"/>
      <point x="390" y="62" type="line"/>
      <point x="421" y="62" type="line"/>
      <point x="421" y="93" type="line"/>
      <point x="452" y="93" type="line"/>
      <point x="452" y="527" type="line"/>
      <point x="421" y="527" type="line"/>
      <point x="421" y="558" type="line"/>
      <point x="390" y="558" type="line"/>
      <point x="390" y="589" type="line"/>
      <point x="359" y="589" type="line"/>
      <point x="359" y="620" type="line"/>
      <point x="49" y="620" type="line"/>
    </contour>
    <contour>
      <point x="142" y="62" type="line"/>
      <point x="142" y="558" type="line"/>
      <point x="328" y="558" type="line"/>
      <point x="328" y="527" type="line"/>
      <point x="359" y="527" type="line"/>
      <point x="359" y="93" type="line"/>
      <point x="328" y="93" type="line"/>
      <point x="328" y="62" type="line"/>
    </contour>
  </outline>
</glyph>
<glyph name="E" format="2">
  <advance width="500"/>
  <unicode hex="0045"/>
  <anchor x="250" y="651" name="top"/>
  <anchor x="250" y="690" name="t.macron"/>
  <anchor x="359" y="0" name="b.ogonek"/>
  <outline>
    <contour>
      <point x="49" y="0" type="line"/>
      <point x="452" y="0" type="line"/>
      <point x="452" y="62" type="line"/>
      <point x="142" y="62" type="line"/>
      <point x="142" y="279" type="line"/>
      <point x="359" y="279" type="line"/>
      <point x="359" y="341" type="line"/>
      <point x="142" y="341" type="line"/>
      <point x="142" y="558" type="line"/>
      <point x="452" y="558" type="line"/>
      <point x="452" y="620" type="line"/>
      <point x="49" y="620" type="line"/>
    </contour>
  </outline>
  <guideline angle="0" x="0" y="651"/>
  <guideline angle="90" x="49" y="0"/>
  <guideline angle="90" x="452" y="0"/>
  <guideline angle="90" x="250" y="0"/>
</glyph>
<glyph name="F" format="2">
  <advance width="500"/>
  <unicode hex="0046"/>
  <outline>
    <contour>
      <point x="49" y="0" type="line"/>
      <point x="142" y="0" type="line"/>
      <point x="142" y="279" type="line"/>
      <point x="359" y="279" type="line"/>
      <point x="359" y="341" type="line"/>
      <point x="142" y="341" type="line"/>
      <point x="142" y="558" type="line"/>
      <point x="452" y="558" type="line"/>
      <point x="452" y="620" type="line"/>
      <point x="49" y="620" type="line"/>
    </contour>
  </outline>
</glyph>
<glyph name="G" format="2">
  <advance width="500"/>
  <unicode hex="0047"/>
  <anchor x="250" y="651" name="top"/>
  <outline>
    <contour>
      <point x="49" y="62" type="line"/>
      <point x="80" y="62" type="line"/>
      <point x="80" y="31" type="line"/>
      <point x="111" y="31" type="line"/>
      <point x="111" y="0" type="line"/>
      <point x="390" y="0" type="line"/>
      <point x="390" y="31" type="line"/>
      <point x="421" y="31" type="line"/>
      <point x="421" y="62" type="line"/>
      <point x="452" y="62" type="line"/>
      <point x="452" y="341" type="line"/>
      <point x="235" y="341" type="line"/>
      <point x="235" y="279" type="line"/>
      <point x="359" y="279" type="line"/>
      <point x="359" y="62" type="line"/>
      <point x="142" y="62" type="line"/>
      <point x="142" y="558" type="line"/>
      <point x="359" y="558" type="line"/>
      <point x="359" y="465" type="line"/>
      <point x="452" y="465" type="line"/>
      <point x="452" y="558" type="line"/>
      <point x="421" y="558" type="line"/>
      <point x="421" y="589" type="line"/>
      <point x="390" y="589" type="line"/>
      <point x="390" y="620" type="line"/>
      <point x="111" y="620" type="line"/>
      <point x="111" y="589" type="line"/>
      <point x="80" y="589" type="line"/>
      <point x="80" y="558" type="line"/>
      <point x="49" y="558" type="line"/>
    </contour>
  </outline>
  <guideline angle="0" x="0" y="651"/>
  <guideline angle="90" x="49" y="0"/>
  <guideline angle="90" x="452" y="0"/>
  <guideline angle="90" x="250" y="0"/>
</glyph>
<glyph name="H" format="2">
  <advance width="500"/>
  <unicode hex="0048"/>
  <anchor x="250" y="651" name="top"/>
  <outline>
    <contour>
      <point x="49" y="0" type="line"/>
      <point x="142" y="0" type="line"/>
      <point x="142" y="279" type="line"/>
      <point x="359" y="279" type="line"/>
      <point x="359" y="0" type="line"/>
      <point x="452" y="0" type="line"/>
      <point x="452" y="620" type="line"/>
      <point x="359" y="620" type="line"/>
      <point x="359" y="341" type="line"/>
      <point x="142" y="341" type="line"/>
      <point x="142" y="620" type="line"/>
      <point x="49" y="620" type="line"/>
    </contour>
  </outline>
  <guideline angle="0" x="0" y="651"/>
  <guideline angle="90" x="49" y="0"/>
  <guideline angle="90" x="452" y="0"/>
  <guideline angle="90" x="250" y="0"/>
</glyph>
<glyph name="I" format="2">
  <advance width="500"/>
  <unicode hex="0049"/>
  <anchor x="250" y="651" name="top"/>
  <anchor x="250" y="-31" name="bottom"/>
  <anchor x="250" y="690" name="t.macron"/>
  <anchor x="266" y="0" name="b.ogonek"/>
  <outline>
    <contour>
      <point x="142" y="0" type="line"/>
      <point x="359" y="0" type="line"/>
      <point x="359" y="62" type="line"/>
      <point x="297" y="62" type="line"/>
      <point x="297" y="558" type="line"/>
      <point x="359" y="558" type="line"/>
      <point x="359" y="620" type="line"/>
      <point x="142" y="620" type="line"/>
      <point x="142" y="558" type="line"/>
      <point x="204" y="558" type="line"/>
      <point x="204" y="62" type="line"/>
      <point x="142" y="62" type="line"/>
    </contour>
  </outline>
  <guideline angle="0" x="0" y="651"/>
  <guideline angle="90" x="142" y="0"/>
  <guideline angle="90" x="359" y="0"/>
  <guideline angle="90" x="250" y="0"/>
  <guideline angle="0" x="0" y="-31"/>
</glyph>
<glyph name="J" format="2">
  <advance width="500"/>
  <unicode hex="004A"/>
  <outline>
    <contour>
      <point x="33" y="62" type="line"/>
      <point x="64" y="62" type="line"/>
      <point x="64" y="31" type="line"/>
      <point x="95" y="31" type="line"/>
      <point x="95" y="0" type="line"/>
      <point x="343" y="0" type="line"/>
      <point x="343" y="31" type="line"/>
      <point x="374" y="31" type="line"/>
      <point x="374" y="62" type="line"/>
      <point x="405" y="62" type="line"/>
      <point x="405" y="558" type="line"/>
      <point x="467" y="558" type="line"/>
      <point x="467" y="620" type="line"/>
      <point x="250" y="620" type="line"/>
      <point x="250" y="558" type="line"/>
      <point x="312" y="558" type="line"/>
      <point x="312" y="62" type="line"/>
      <point x="126" y="62" type="line"/>
      <point x="126" y="186" type="line"/>
      <point x="33" y="186" type="line"/>
    </contour>
  </outline>
</glyph>
<glyph name="K" format="2">
  <advance width="500"/>
  <unicode hex="004B"/>
  <anchor x="266" y="-31" name="bottom"/>
  <outline>
    <contour>
      <point x="173" y="341" type="line"/>
      <point x="235" y="341" type="line"/>
      <point x="235" y="372" type="line"/>
      <point x="266" y="372" type="line"/>
      <point x="266" y="403" type="line"/>
      <point x="297" y="403" type="line"/>
      <point x="297" y="434" type="line"/>
      <point x="328" y="434" type="line"/>
      <point x="328" y="465" type="line"/>
      <point x="359" y="465" type="line"/>
      <point x="359" y="496" type="line"/>
      <point x="390" y="496" type="line"/>
      <point x="390" y="527" type="line"/>
      <point x="421" y="527" type="line"/>
      <point x="421" y="558" type="line"/>
      <point x="452" y="558" type="line"/>
      <point x="452" y="589" type="line"/>
      <point x="483" y="589" type="line"/>
      <point x="483" y="620" type="line"/>
      <point x="389.875" y="620" type="line"/>
      <point x="390.25" y="589" type="line"/>
      <point x="359" y="589" type="line"/>
      <point x="359" y="558" type="line"/>
      <point x="328" y="558" type="line"/>
      <point x="328" y="527" type="line"/>
      <point x="297" y="527" type="line"/>
      <point x="297" y="496" type="line"/>
      <point x="266" y="496" type="line"/>
      <point x="266" y="465" type="line"/>
      <point x="235" y="465" type="line"/>
      <point x="235" y="434" type="line"/>
      <point x="204" y="434" type="line"/>
      <point x="204" y="403" type="line"/>
      <point x="173" y="403" type="line"/>
    </contour>
    <contour>
      <point x="235" y="155" type="line"/>
      <point x="266" y="155" type="line"/>
      <point x="266" y="124" type="line"/>
      <point x="297" y="124" type="line"/>
      <point x="297" y="93" type="line"/>
      <point x="328" y="93" type="line"/>
      <point x="328" y="62" type="line"/>
      <point x="359" y="62" type="line"/>
      <point x="359" y="31" type="line"/>
      <point x="390" y="31" type="line"/>
      <point x="390" y="0" type="line"/>
      <point x="483" y="0" type="line"/>
      <point x="483" y="31" type="line"/>
      <point x="452" y="31" type="line"/>
      <point x="452" y="62" type="line"/>
      <point x="421" y="62" type="line"/>
      <point x="421" y="93" type="line"/>
      <point x="390" y="93" type="line"/>
      <point x="390" y="124" type="line"/>
      <point x="359" y="124" type="line"/>
      <point x="359" y="155" type="line"/>
      <point x="328" y="155" type="line"/>
      <point x="328" y="186" type="line"/>
      <point x="297" y="186" type="line"/>
      <point x="297" y="217" type="line"/>
      <point x="266" y="217" type="line"/>
      <point x="266" y="248" type="line"/>
      <point x="235" y="248" type="line"/>
      <point x="235" y="279" type="line"/>
      <point x="173" y="279" type="line"/>
      <point x="173" y="220.875" type="line"/>
      <point x="204" y="220.875" type="line"/>
      <point x="204" y="186" type="line"/>
      <point x="235" y="186" type="line"/>
    </contour>
    <contour>
      <point x="49" y="0" type="line"/>
      <point x="142" y="0" type="line"/>
      <point x="142" y="251.936" type="line"/>
      <point x="203" y="251.936" type="line"/>
      <point x="203" y="372" type="line"/>
      <point x="142" y="372" type="line"/>
      <point x="142" y="620" type="line"/>
      <point x="49" y="620" type="line"/>
    </contour>
  </outline>
  <guideline angle="90" x="266" y="0"/>
  <guideline angle="90" x="49" y="0"/>
  <guideline angle="90" x="483" y="0"/>
  <guideline angle="0" x="0" y="-31"/>
</glyph>
<glyph name="L" format="2">
  <advance width="500"/>
  <unicode hex="004C"/>
  <anchor x="250" y="651" name="top"/>
  <anchor x="251" y="-31" name="bottom"/>
  <outline>
    <contour>
      <point x="49" y="0" type="line"/>
      <point x="452" y="0" type="line"/>
      <point x="452" y="62" type="line"/>
      <point x="142" y="62" type="line"/>
      <point x="142" y="620" type="line"/>
      <point x="49" y="620" type="line"/>
    </contour>
  </outline>
  <guideline angle="0" x="0" y="651"/>
  <guideline angle="90" x="49" y="0"/>
  <guideline angle="90" x="452" y="0"/>
  <guideline angle="90" x="250" y="0"/>
  <guideline angle="0" x="0" y="-31"/>
</glyph>
<glyph name="M" format="2">
  <advance width="500"/>
  <unicode hex="004D"/>
  <outline>
    <contour>
      <point x="33" y="0" type="line"/>
      <point x="126" y="0" type="line"/>
      <point x="126" y="496" type="line"/>
      <point x="141.5" y="496" type="line"/>
      <point x="141.5" y="465" type="line"/>
      <point x="157" y="465" type="line"/>
      <point x="157" y="434" type="line"/>
      <point x="188" y="434" type="line"/>
      <point x="188" y="403" type="line"/>
      <point x="219" y="403" type="line"/>
      <point x="219" y="372" type="line"/>
      <point x="281" y="372" type="line"/>
      <point x="281" y="403" type="line"/>
      <point x="312" y="403" type="line"/>
      <point x="312" y="434" type="line"/>
      <point x="343" y="434" type="line"/>
      <point x="343" y="465" type="line"/>
      <point x="358.5" y="465" type="line"/>
      <point x="358.5" y="496" type="line"/>
      <point x="374" y="496" type="line"/>
      <point x="374" y="0" type="line"/>
      <point x="467" y="0" type="line"/>
      <point x="467" y="620" type="line"/>
      <point x="405" y="620" type="line"/>
      <point x="405" y="589" type="line"/>
      <point x="374" y="589" type="line"/>
      <point x="374" y="558" type="line"/>
      <point x="343" y="558" type="line"/>
      <point x="343" y="527" type="line"/>
      <point x="312" y="527" type="line"/>
      <point x="312" y="496" type="line"/>
      <point x="281" y="496" type="line"/>
      <point x="281" y="465" type="line"/>
      <point x="219" y="465" type="line"/>
      <point x="219" y="496" type="line"/>
      <point x="188" y="496" type="line"/>
      <point x="188" y="527" type="line"/>
      <point x="157" y="527" type="line"/>
      <point x="157" y="558" type="line"/>
      <point x="126" y="558" type="line"/>
      <point x="126" y="589" type="line"/>
      <point x="95" y="589" type="line"/>
      <point x="95" y="620" type="line"/>
      <point x="33" y="620" type="line"/>
    </contour>
  </outline>
</glyph>
<glyph name="N" format="2">
  <advance width="500"/>
  <unicode hex="004E"/>
  <anchor x="250" y="651" name="top"/>
  <anchor x="250" y="-31" name="bottom"/>
  <outline>
    <contour>
      <point x="18" y="0" type="line"/>
      <point x="111" y="0" type="line"/>
      <point x="111" y="403" type="line"/>
      <point x="142" y="403" type="line"/>
      <point x="142" y="372" type="line"/>
      <point x="173" y="372" type="line"/>
      <point x="173" y="341" type="line"/>
      <point x="204" y="341" type="line"/>
      <point x="204" y="310" type="line"/>
      <point x="235" y="310" type="line"/>
      <point x="235" y="279" type="line"/>
      <point x="266" y="279" type="line"/>
      <point x="266" y="248" type="line"/>
      <point x="297" y="248" type="line"/>
      <point x="297" y="217" type="line"/>
      <point x="328" y="217" type="line"/>
      <point x="328" y="186" type="line"/>
      <point x="390" y="186" type="line"/>
      <point x="390" y="0" type="line"/>
      <point x="483" y="0" type="line"/>
      <point x="483" y="620" type="line"/>
      <point x="390" y="620" type="line"/>
      <point x="390" y="248" type="line"/>
      <point x="359" y="248" type="line"/>
      <point x="359" y="279" type="line"/>
      <point x="328" y="279" type="line"/>
      <point x="328" y="310" type="line"/>
      <point x="297" y="310" type="line"/>
      <point x="297" y="341" type="line"/>
      <point x="266" y="341" type="line"/>
      <point x="266" y="372" type="line"/>
      <point x="235" y="372" type="line"/>
      <point x="235" y="403" type="line"/>
      <point x="204" y="403" type="line"/>
      <point x="204" y="434" type="line"/>
      <point x="173" y="434" type="line"/>
      <point x="173" y="465" type="line"/>
      <point x="111" y="465" type="line"/>
      <point x="111" y="620" type="line"/>
      <point x="18" y="620" type="line"/>
    </contour>
  </outline>
  <guideline angle="90" x="18" y="0"/>
  <guideline angle="90" x="483" y="0"/>
  <guideline angle="90" x="250" y="0"/>
  <guideline angle="0" x="0" y="651"/>
</glyph>
<glyph name="P" format="2">
  <advance width="500"/>
  <unicode hex="0050"/>
  <outline>
    <contour>
      <point x="49" y="0" type="line"/>
      <point x="142" y="0" type="line"/>
      <point x="142" y="248" type="line"/>
      <point x="390" y="248" type="line"/>
      <point x="390" y="279" type="line"/>
      <point x="421" y="279" type="line"/>
      <point x="421" y="310" type="line"/>
      <point x="452" y="310" type="line"/>
      <point x="452" y="558" type="line"/>
      <point x="421" y="558" type="line"/>
      <point x="421" y="589" type="line"/>
      <point x="390" y="589" type="line"/>
      <point x="390" y="620" type="line"/>
      <point x="49" y="620" type="line"/>
    </contour>
    <contour>
      <point x="142" y="310" type="line"/>
      <point x="142" y="558" type="line"/>
      <point x="359" y="558" type="line"/>
      <point x="359" y="310" type="line"/>
    </contour>
  </outline>
</glyph>
<glyph name="Q" format="2">
  <advance width="500"/>
  <unicode hex="0051"/>
  <outline>
    <contour>
      <point x="49" y="62" type="line"/>
      <point x="80" y="62" type="line"/>
      <point x="80" y="31" type="line"/>
      <point x="111" y="31" type="line"/>
      <point x="111" y="0" type="line"/>
      <point x="328" y="0" type="line"/>
      <point x="328" y="-31" type="line"/>
      <point x="359" y="-31" type="line"/>
      <point x="359" y="-62" type="line"/>
      <point x="452" y="-62" type="line"/>
      <point x="452" y="-31" type="line"/>
      <point x="421" y="-31" type="line"/>
      <point x="421" y="0" type="line"/>
      <point x="390" y="0" type="line"/>
      <point x="390" y="31" type="line"/>
      <point x="421" y="31" type="line"/>
      <point x="421" y="62" type="line"/>
      <point x="452" y="62" type="line"/>
      <point x="452" y="558" type="line"/>
      <point x="421" y="558" type="line"/>
      <point x="421" y="589" type="line"/>
      <point x="390" y="589" type="line"/>
      <point x="390" y="620" type="line"/>
      <point x="111" y="620" type="line"/>
      <point x="111" y="589" type="line"/>
      <point x="80" y="589" type="line"/>
      <point x="80" y="558" type="line"/>
      <point x="49" y="558" type="line"/>
    </contour>
    <contour>
      <point x="142" y="62" type="line"/>
      <point x="142" y="558" type="line"/>
      <point x="359" y="558" type="line"/>
      <point x="359" y="62" type="line"/>
      <point x="328" y="62" type="line"/>
      <point x="328" y="93" type="line"/>
      <point x="297" y="93" type="line"/>
      <point x="297" y="124" type="line"/>
      <point x="204" y="124" type="line"/>
      <point x="204" y="93" type="line"/>
      <point x="235" y="93" type="line"/>
      <point x="235" y="62" type="line"/>
    </contour>
  </outline>
</glyph>
<glyph name="R" format="2">
  <advance width="500"/>
  <unicode hex="0052"/>
  <outline>
    <contour>
      <point x="49" y="0" type="line"/>
      <point x="142" y="0" type="line"/>
      <point x="142" y="248" type="line"/>
      <point x="157.5" y="248" type="line"/>
      <point x="157.5" y="217" type="line"/>
      <point x="189" y="217" type="line"/>
      <point x="189" y="186" type="line"/>
      <point x="220" y="186" type="line"/>
      <point x="220" y="155" type="line"/>
      <point x="251" y="155" type="line"/>
      <point x="251" y="124" type="line"/>
      <point x="282" y="124" type="line"/>
      <point x="282" y="93" type="line"/>
      <point x="313" y="93" type="line"/>
      <point x="313" y="62" type="line"/>
      <point x="344" y="62" type="line"/>
      <point x="344" y="31" type="line"/>
      <point x="375" y="31" type="line"/>
      <point x="375" y="0" type="line"/>
      <point x="468" y="0" type="line"/>
      <point x="468" y="31" type="line"/>
      <point x="437" y="31" type="line"/>
      <point x="437" y="62" type="line"/>
      <point x="406" y="62" type="line"/>
      <point x="406" y="93" type="line"/>
      <point x="375" y="93" type="line"/>
      <point x="375" y="124" type="line"/>
      <point x="344" y="124" type="line"/>
      <point x="344" y="155" type="line"/>
      <point x="313" y="155" type="line"/>
      <point x="313" y="186" type="line"/>
      <point x="282" y="186" type="line"/>
      <point x="282" y="217" type="line"/>
      <point x="251" y="217" type="line"/>
      <point x="251" y="248" type="line"/>
      <point x="390" y="248" type="line"/>
      <point x="390" y="279" type="line"/>
      <point x="421" y="279" type="line"/>
      <point x="421" y="310" type="line"/>
      <point x="452" y="310" type="line"/>
      <point x="452" y="558" type="line"/>
      <point x="421" y="558" type="line"/>
      <point x="421" y="589" type="line"/>
      <point x="390" y="589" type="line"/>
      <point x="390" y="620" type="line"/>
      <point x="49" y="620" type="line"/>
    </contour>
    <contour>
      <point x="142" y="310" type="line"/>
      <point x="142" y="558" type="line"/>
      <point x="359" y="558" type="line"/>
      <point x="359" y="310" type="line"/>
    </contour>
  </outline>
</glyph>
<glyph name="T" format="2">
  <advance width="500"/>
  <unicode hex="0054"/>
  <anchor x="249" y="0" name="cedilla"/>
  <anchor x="250" y="-31" name="bottom"/>
  <outline>
    <contour>
      <point x="204" y="0" type="line"/>
      <point x="297" y="0" type="line"/>
      <point x="297" y="558" type="line"/>
      <point x="452" y="558" type="line"/>
      <point x="452" y="620" type="line"/>
      <point x="49" y="620" type="line"/>
      <point x="49" y="558" type="line"/>
      <point x="204" y="558" type="line"/>
    </contour>
  </outline>
</glyph>
<glyph name="U" format="2">
  <advance width="500"/>
  <unicode hex="0055"/>
  <anchor x="250" y="651" name="top"/>
  <anchor x="250" y="690" name="t.macron"/>
  <anchor x="251" y="620" name="t.ring"/>
  <anchor x="297" y="0" name="b.ogonek"/>
  <outline>
    <contour>
      <point x="49" y="62" type="line"/>
      <point x="80" y="62" type="line"/>
      <point x="80" y="31" type="line"/>
      <point x="111" y="31" type="line"/>
      <point x="111" y="0" type="line"/>
      <point x="390" y="0" type="line"/>
      <point x="390" y="31" type="line"/>
      <point x="421" y="31" type="line"/>
      <point x="421" y="62" type="line"/>
      <point x="452" y="62" type="line"/>
      <point x="452" y="620" type="line"/>
      <point x="359" y="620" type="line"/>
      <point x="359" y="62" type="line"/>
      <point x="142" y="62" type="line"/>
      <point x="142" y="620" type="line"/>
      <point x="49" y="620" type="line"/>
    </contour>
  </outline>
  <guideline angle="0" x="0" y="651"/>
  <guideline angle="90" x="49" y="0"/>
  <guideline angle="90" x="452" y="0"/>
  <guideline angle="90" x="251" y="0"/>
</glyph>
<glyph name="V" format="2">
  <advance width="500"/>
  <unicode hex="0056"/>
  <outline>
    <contour>
      <point x="142" y="124" type="line"/>
      <point x="173" y="124" type="line"/>
      <point x="173" y="31" type="line"/>
      <point x="204" y="31" type="line"/>
      <point x="204" y="0" type="line"/>
      <point x="297" y="0" type="line"/>
      <point x="297" y="31" type="line"/>
      <point x="328" y="31" type="line"/>
      <point x="328" y="124" type="line"/>
      <point x="359" y="124" type="line"/>
      <point x="359" y="248" type="line"/>
      <point x="390" y="248" type="line"/>
      <point x="390" y="372" type="line"/>
      <point x="421" y="372" type="line"/>
      <point x="421" y="496" type="line"/>
      <point x="452" y="496" type="line"/>
      <point x="452" y="620" type="line"/>
      <point x="359" y="620" type="line"/>
      <point x="359" y="496" type="line"/>
      <point x="328" y="496" type="line"/>
      <point x="328" y="372" type="line"/>
      <point x="297" y="372" type="line"/>
      <point x="297" y="248" type="line"/>
      <point x="266" y="248" type="line"/>
      <point x="266" y="124" type="line"/>
      <point x="235" y="124" type="line"/>
      <point x="235" y="248" type="line"/>
      <point x="204" y="248" type="line"/>
      <point x="204" y="372" type="line"/>
      <point x="173" y="372" type="line"/>
      <point x="173" y="496" type="line"/>
      <point x="142" y="496" type="line"/>
      <point x="142" y="620" type="line"/>
      <point x="49" y="620" type="line"/>
      <point x="49" y="496" type="line"/>
      <point x="80" y="496" type="line"/>
      <point x="80" y="372" type="line"/>
      <point x="111" y="372" type="line"/>
      <point x="111" y="248" type="line"/>
      <point x="142" y="248" type="line"/>
    </contour>
  </outline>
</glyph>
<glyph name="W" format="2">
  <advance width="500"/>
  <unicode hex="0057"/>
  <outline>
    <contour>
      <point x="33" y="0" type="line"/>
      <point x="95" y="0" type="line"/>
      <point x="95" y="31" type="line"/>
      <point x="126" y="31" type="line"/>
      <point x="126" y="62" type="line"/>
      <point x="157" y="62" type="line"/>
      <point x="157" y="93" type="line"/>
      <point x="188" y="93" type="line"/>
      <point x="188" y="124" type="line"/>
      <point x="219" y="124" type="line"/>
      <point x="219" y="155" type="line"/>
      <point x="281" y="155" type="line"/>
      <point x="281" y="124" type="line"/>
      <point x="312" y="124" type="line"/>
      <point x="312" y="93" type="line"/>
      <point x="343" y="93" type="line"/>
      <point x="343" y="62" type="line"/>
      <point x="374" y="62" type="line"/>
      <point x="374" y="31" type="line"/>
      <point x="405" y="31" type="line"/>
      <point x="405" y="0" type="line"/>
      <point x="467" y="0" type="line"/>
      <point x="467" y="620" type="line"/>
      <point x="374" y="620" type="line"/>
      <point x="374" y="135" type="line"/>
      <point x="378.5" y="135" type="line"/>
      <point x="378.5" y="166" type="line"/>
      <point x="343" y="166" type="line"/>
      <point x="343" y="197" type="line"/>
      <point x="312" y="197" type="line"/>
      <point x="312" y="228" type="line"/>
      <point x="281" y="228" type="line"/>
      <point x="281" y="259" type="line"/>
      <point x="219" y="259" type="line"/>
      <point x="219" y="228" type="line"/>
      <point x="188" y="228" type="line"/>
      <point x="188" y="197" type="line"/>
      <point x="157" y="197" type="line"/>
      <point x="157" y="166" type="line"/>
      <point x="125.5" y="166" type="line"/>
      <point x="125.5" y="135" type="line"/>
      <point x="126" y="135" type="line"/>
      <point x="126" y="620" type="line"/>
      <point x="33" y="620" type="line"/>
    </contour>
  </outline>
</glyph>
<glyph name="Y" format="2">
  <advance width="500"/>
  <unicode hex="0059"/>
  <anchor x="250" y="651" name="top"/>
  <outline>
    <contour>
      <point x="142" y="341" type="line"/>
      <point x="173" y="341" type="line"/>
      <point x="173" y="279" type="line"/>
      <point x="204" y="279" type="line"/>
      <point x="204" y="0" type="line"/>
      <point x="297" y="0" type="line"/>
      <point x="297" y="279" type="line"/>
      <point x="328" y="279" type="line"/>
      <point x="328" y="341" type="line"/>
      <point x="359" y="341" type="line"/>
      <point x="359" y="403" type="line"/>
      <point x="390" y="403" type="line"/>
      <point x="390" y="465" type="line"/>
      <point x="421" y="465" type="line"/>
      <point x="421" y="527" type="line"/>
      <point x="452" y="527" type="line"/>
      <point x="452" y="620" type="line"/>
      <point x="359" y="620" type="line"/>
      <point x="359" y="527" type="line"/>
      <point x="328" y="527" type="line"/>
      <point x="328" y="465" type="line"/>
      <point x="297" y="465" type="line"/>
      <point x="297" y="403" type="line"/>
      <point x="266" y="403" type="line"/>
      <point x="266" y="341" type="line"/>
      <point x="235" y="341" type="line"/>
      <point x="235" y="403" type="line"/>
      <point x="204" y="403" type="line"/>
      <point x="204" y="465" type="line"/>
      <point x="173" y="465" type="line"/>
      <point x="173" y="527" type="line"/>
      <point x="142" y="527" type="line"/>
      <point x="142" y="620" type="line"/>
      <point x="49" y="620" type="line"/>
      <point x="49" y="527" type="line"/>
      <point x="80" y="527" type="line"/>
      <point x="80" y="465" type="line"/>
      <point x="111" y="465" type="line"/>
      <point x="111" y="403" type="line"/>
      <point x="142" y="403" type="line"/>
    </contour>
  </outline>
  <guideline angle="0" x="0" y="651"/>
  <guideline angle="90" x="49" y="0"/>
  <guideline angle="90" x="452" y="0"/>
  <guideline angle="90" x="250" y="0"/>
</glyph>
<glyph name="Z" format="2">
  <advance width="500"/>
  <unicode hex="005A"/>
  <anchor x="250" y="651" name="top"/>
  <outline>
    <contour>
      <point x="49" y="0" type="line"/>
      <point x="452" y="0" type="line"/>
      <point x="452" y="62" type="line"/>
      <point x="142" y="62" type="line"/>
      <point x="142" y="186" type="line"/>
      <point x="173" y="186" type="line"/>
      <point x="173" y="217" type="line"/>
      <point x="204" y="217" type="line"/>
      <point x="204" y="248" type="line"/>
      <point x="235" y="248" type="line"/>
      <point x="235" y="279" type="line"/>
      <point x="266" y="279" type="line"/>
      <point x="266" y="310" type="line"/>
      <point x="297" y="310" type="line"/>
      <point x="297" y="341" type="line"/>
      <point x="328" y="341" type="line"/>
      <point x="328" y="372" type="line"/>
      <point x="359" y="372" type="line"/>
      <point x="359" y="403" type="line"/>
      <point x="390" y="403" type="line"/>
      <point x="390" y="434" type="line"/>
      <point x="421" y="434" type="line"/>
      <point x="421" y="465" type="line"/>
      <point x="452" y="465" type="line"/>
      <point x="452" y="620" type="line"/>
      <point x="49" y="620" type="line"/>
      <point x="49" y="558" type="line"/>
      <point x="359" y="558" type="line"/>
      <point x="359" y="465" type="line"/>
      <point x="328" y="465" type="line"/>
      <point x="328" y="434" type="line"/>
      <point x="297" y="434" type="line"/>
      <point x="297" y="403" type="line"/>
      <point x="266" y="403" type="line"/>
      <point x="266" y="372" type="line"/>
      <point x="235" y="372" type="line"/>
      <point x="235" y="341" type="line"/>
      <point x="204" y="341" type="line"/>
      <point x="204" y="310" type="line"/>
      <point x="173" y="310" type="line"/>
      <point x="173" y="279" type="line"/>
      <point x="142" y="279" type="line"/>
      <point x="142" y="248" type="line"/>
      <point x="111" y="248" type="line"/>
      <point x="111" y="217" type="line"/>
      <point x="80" y="217" type="line"/>
      <point x="80" y="186" type="line"/>
      <point x="49" y="186" type="line"/>
    </contour>
  </outline>
  <guideline angle="0" x="0" y="651"/>
  <guideline angle="90" x="49" y="0"/>
  <guideline angle="90" x="452" y="0"/>
  <guideline angle="90" x="250" y="0"/>
</glyph>
<glyph name="bracketleft" format="2">
  <advance width="500"/>
  <unicode hex="005B"/>
  <outline>
    <contour>
      <point x="126" y="0" type="line"/>
      <point x="374" y="0" type="line"/>
      <point x="374" y="62" type="line"/>
      <point x="219" y="62" type="line"/>
      <point x="219" y="558" type="line"/>
      <point x="374" y="558" type="line"/>
      <point x="374" y="620" type="line"/>
      <point x="126" y="620" type="line"/>
    </contour>
  </outline>
</glyph>
<glyph name="backslash" format="2">
  <advance width="500"/>
  <unicode hex="005C"/>
  <outline>
    <contour>
      <point x="126" y="434" type="line"/>
      <point x="157" y="434" type="line"/>
      <point x="157" y="372" type="line"/>
      <point x="188" y="372" type="line"/>
      <point x="188" y="310" type="line"/>
      <point x="219" y="310" type="line"/>
      <point x="219" y="248" type="line"/>
      <point x="250" y="248" type="line"/>
      <point x="250" y="186" type="line"/>
      <point x="281" y="186" type="line"/>
      <point x="281" y="124" type="line"/>
      <point x="312" y="124" type="line"/>
      <point x="312" y="62" type="line"/>
      <point x="343" y="62" type="line"/>
      <point x="343" y="0" type="line"/>
      <point x="436" y="0" type="line"/>
      <point x="436" y="62" type="line"/>
      <point x="405" y="62" type="line"/>
      <point x="405" y="124" type="line"/>
      <point x="374" y="124" type="line"/>
      <point x="374" y="186" type="line"/>
      <point x="343" y="186" type="line"/>
      <point x="343" y="248" type="line"/>
      <point x="312" y="248" type="line"/>
      <point x="312" y="310" type="line"/>
      <point x="281" y="310" type="line"/>
      <point x="281" y="372" type="line"/>
      <point x="250" y="372" type="line"/>
      <point x="250" y="434" type="line"/>
      <point x="219" y="434" type="line"/>
      <point x="219" y="496" type="line"/>
      <point x="188" y="496" type="line"/>
      <point x="188" y="558" type="line"/>
      <point x="157" y="558" type="line"/>
      <point x="157" y="620" type="line"/>
      <point x="64" y="620" type="line"/>
      <point x="64" y="558" type="line"/>
      <point x="95" y="558" type="line"/>
      <point x="95" y="496" type="line"/>
      <point x="126" y="496" type="line"/>
    </contour>
  </outline>
</glyph>
<glyph name="bracketright" format="2">
  <advance width="500"/>
  <unicode hex="005D"/>
  <outline>
    <contour>
      <point x="126" y="0" type="line"/>
      <point x="374" y="0" type="line"/>
      <point x="374" y="620" type="line"/>
      <point x="126" y="620" type="line"/>
      <point x="126" y="558" type="line"/>
      <point x="281" y="558" type="line"/>
      <point x="281" y="62" type="line"/>
      <point x="126" y="62" type="line"/>
    </contour>
  </outline>
</glyph>
<glyph name="asciicircum" format="2">
  <advance width="500"/>
  <unicode hex="005E"/>
  <outline>
    <contour>
      <point x="49" y="527" type="line"/>
      <point x="142" y="527" type="line"/>
      <point x="142" y="558" type="line"/>
      <point x="173" y="558" type="line"/>
      <point x="173" y="589" type="line"/>
      <point x="204" y="589" type="line"/>
      <point x="204" y="620" type="line"/>
      <point x="235" y="620" type="line"/>
      <point x="235" y="651" type="line"/>
      <point x="266" y="651" type="line"/>
      <point x="266" y="620" type="line"/>
      <point x="297" y="620" type="line"/>
      <point x="297" y="589" type="line"/>
      <point x="328" y="589" type="line"/>
      <point x="328" y="558" type="line"/>
      <point x="359" y="558" type="line"/>
      <point x="359" y="527" type="line"/>
      <point x="452" y="527" type="line"/>
      <point x="452" y="558" type="line"/>
      <point x="421" y="558" type="line"/>
      <point x="421" y="589" type="line"/>
      <point x="390" y="589" type="line"/>
      <point x="390" y="620" type="line"/>
      <point x="359" y="620" type="line"/>
      <point x="359" y="651" type="line"/>
      <point x="328" y="651" type="line"/>
      <point x="328" y="682" type="line"/>
      <point x="297" y="682" type="line"/>
      <point x="297" y="713" type="line"/>
      <point x="204" y="713" type="line"/>
      <point x="204" y="682" type="line"/>
      <point x="173" y="682" type="line"/>
      <point x="173" y="651" type="line"/>
      <point x="142" y="651" type="line"/>
      <point x="142" y="620" type="line"/>
      <point x="111" y="620" type="line"/>
      <point x="111" y="589" type="line"/>
      <point x="80" y="589" type="line"/>
      <point x="80" y="558" type="line"/>
      <point x="49" y="558" type="line"/>
    </contour>
  </outline>
</glyph>
<glyph name="underscore" format="2">
  <advance width="500"/>
  <unicode hex="005F"/>
  <outline>
    <contour>
      <point x="49" y="-93" type="line"/>
      <point x="452" y="-93" type="line"/>
      <point x="452" y="-31" type="line"/>
      <point x="49" y="-31" type="line"/>
    </contour>
  </outline>
</glyph>
<glyph name="grave" format="2">
  <advance width="500"/>
  <unicode hex="0060"/>
  <outline>
    <contour>
      <point x="157" y="589" type="line"/>
      <point x="188" y="589" type="line"/>
      <point x="188" y="558" type="line"/>
      <point x="219" y="558" type="line"/>
      <point x="219" y="527" type="line"/>
      <point x="312" y="527" type="line"/>
      <point x="312" y="558" type="line"/>
      <point x="281" y="558" type="line"/>
      <point x="281" y="589" type="line"/>
      <point x="250" y="589" type="line"/>
      <point x="250" y="620" type="line"/>
      <point x="219" y="620" type="line"/>
      <point x="219" y="651" type="line"/>
      <point x="126" y="651" type="line"/>
      <point x="126" y="620" type="line"/>
      <point x="157" y="620" type="line"/>
    </contour>
  </outline>
  <guideline angle="0" x="0" y="527"/>
</glyph>
<glyph name="a" format="2">
  <advance width="500"/>
  <unicode hex="0061"/>
  <anchor x="251" y="496" name="top"/>
  <anchor x="251" y="504" name="t.macron"/>
  <anchor x="251" y="496" name="t.ring"/>
  <anchor x="359" y="0" name="b.ogonek"/>
  <outline>
    <contour>
      <point x="49" y="62" type="line"/>
      <point x="80" y="62" type="line"/>
      <point x="80" y="31" type="line"/>
      <point x="111" y="31" type="line"/>
      <point x="111" y="0" type="line"/>
      <point x="452" y="0" type="line"/>
      <point x="452" y="372" type="line"/>
      <point x="421" y="372" type="line"/>
      <point x="421" y="403" type="line"/>
      <point x="390" y="403" type="line"/>
      <point x="390" y="434" type="line"/>
      <point x="80" y="434" type="line"/>
      <point x="80" y="372" type="line"/>
      <point x="359" y="372" type="line"/>
      <point x="359" y="279" type="line"/>
      <point x="111" y="279" type="line"/>
      <point x="111" y="248" type="line"/>
      <point x="80" y="248" type="line"/>
      <point x="80" y="217" type="line"/>
      <point x="49" y="217" type="line"/>
    </contour>
    <contour>
      <point x="142" y="62" type="line"/>
      <point x="142" y="217" type="line"/>
      <point x="359" y="217" type="line"/>
      <point x="359" y="62" type="line"/>
    </contour>
  </outline>
  <guideline angle="0" x="0" y="496"/>
  <guideline angle="90" x="49" y="0"/>
  <guideline angle="90" x="452" y="0"/>
  <guideline angle="90" x="251" y="0"/>
</glyph>
<glyph name="b" format="2">
  <advance width="500"/>
  <unicode hex="0062"/>
  <outline>
    <contour>
      <point x="49" y="0" type="line"/>
      <point x="390" y="0" type="line"/>
      <point x="390" y="31" type="line"/>
      <point x="421" y="31" type="line"/>
      <point x="421" y="62" type="line"/>
      <point x="452" y="62" type="line"/>
      <point x="452" y="372" type="line"/>
      <point x="421" y="372" type="line"/>
      <point x="421" y="403" type="line"/>
      <point x="390" y="403" type="line"/>
      <point x="390" y="434" type="line"/>
      <point x="142" y="434" type="line"/>
      <point x="142" y="620" type="line"/>
      <point x="49" y="620" type="line"/>
    </contour>
    <contour>
      <point x="142" y="62" type="line"/>
      <point x="142" y="372" type="line"/>
      <point x="359" y="372" type="line"/>
      <point x="359" y="62" type="line"/>
    </contour>
  </outline>
</glyph>
<glyph name="d" format="2">
  <advance width="500"/>
  <unicode hex="0064"/>
  <anchor x="250" y="651" name="top"/>
  <outline>
    <contour>
      <point x="49" y="62" type="line"/>
      <point x="80" y="62" type="line"/>
      <point x="80" y="31" type="line"/>
      <point x="111" y="31" type="line"/>
      <point x="111" y="0" type="line"/>
      <point x="452" y="0" type="line"/>
      <point x="452" y="620" type="line"/>
      <point x="359" y="620" type="line"/>
      <point x="359" y="434" type="line"/>
      <point x="111" y="434" type="line"/>
      <point x="111" y="403" type="line"/>
      <point x="80" y="403" type="line"/>
      <point x="80" y="372" type="line"/>
      <point x="49" y="372" type="line"/>
    </contour>
    <contour>
      <point x="142" y="62" type="line"/>
      <point x="142" y="372" type="line"/>
      <point x="359" y="372" type="line"/>
      <point x="359" y="62" type="line"/>
    </contour>
  </outline>
  <guideline angle="0" x="0" y="651"/>
  <guideline angle="90" x="49" y="0"/>
  <guideline angle="90" x="452" y="0"/>
  <guideline angle="90" x="250" y="0"/>
</glyph>
<glyph name="e" format="2">
  <advance width="500"/>
  <unicode hex="0065"/>
  <anchor x="250" y="496" name="top"/>
  <anchor x="250" y="504" name="t.macron"/>
  <outline>
    <contour>
      <point x="49" y="62" type="line"/>
      <point x="80" y="62" type="line"/>
      <point x="80" y="31" type="line"/>
      <point x="111" y="31" type="line"/>
      <point x="111" y="0" type="line"/>
      <point x="390" y="0" type="line"/>
      <point x="390" y="31" type="line"/>
      <point x="421" y="31" type="line"/>
      <point x="421" y="62" type="line"/>
      <point x="452" y="62" type="line"/>
      <point x="452" y="93" type="line"/>
      <point x="359" y="93" type="line"/>
      <point x="359" y="62" type="line"/>
      <point x="142" y="62" type="line"/>
      <point x="142" y="186" type="line"/>
      <point x="452" y="186" type="line"/>
      <point x="452" y="372" type="line"/>
      <point x="421" y="372" type="line"/>
      <point x="421" y="403" type="line"/>
      <point x="390" y="403" type="line"/>
      <point x="390" y="434" type="line"/>
      <point x="111" y="434" type="line"/>
      <point x="111" y="403" type="line"/>
      <point x="80" y="403" type="line"/>
      <point x="80" y="372" type="line"/>
      <point x="49" y="372" type="line"/>
    </contour>
    <contour>
      <point x="142" y="248" type="line"/>
      <point x="142" y="372" type="line"/>
      <point x="359" y="372" type="line"/>
      <point x="359" y="248" type="line"/>
    </contour>
  </outline>
  <guideline angle="0" x="0" y="496"/>
  <guideline angle="90" x="49" y="0"/>
  <guideline angle="90" x="452" y="0"/>
  <guideline angle="90" x="250" y="0"/>
</glyph>
<glyph name="f" format="2">
  <advance width="500"/>
  <unicode hex="0066"/>
  <outline>
    <contour>
      <point x="49" y="372" type="line"/>
      <point x="173" y="372" type="line"/>
      <point x="173" y="0" type="line"/>
      <point x="266" y="0" type="line"/>
      <point x="266" y="372" type="line"/>
      <point x="390" y="372" type="line"/>
      <point x="390" y="434" type="line"/>
      <point x="266" y="434" type="line"/>
      <point x="266" y="558" type="line"/>
      <point x="452" y="558" type="line"/>
      <point x="452" y="620" type="line"/>
      <point x="235" y="620" type="line"/>
      <point x="235" y="589" type="line"/>
      <point x="204" y="589" type="line"/>
      <point x="204" y="558" type="line"/>
      <point x="173" y="558" type="line"/>
      <point x="173" y="434" type="line"/>
      <point x="49" y="434" type="line"/>
    </contour>
  </outline>
</glyph>
<glyph name="g" format="2">
  <advance width="500"/>
  <unicode hex="0067"/>
  <anchor x="251" y="496" name="top"/>
  <outline>
    <contour>
      <point x="80" y="-155" type="line"/>
      <point x="390" y="-155" type="line"/>
      <point x="390" y="-124" type="line"/>
      <point x="421" y="-124" type="line"/>
      <point x="421" y="-93" type="line"/>
      <point x="452" y="-93" type="line"/>
      <point x="452" y="434" type="line"/>
      <point x="111" y="434" type="line"/>
      <point x="111" y="403" type="line"/>
      <point x="80" y="403" type="line"/>
      <point x="80" y="372" type="line"/>
      <point x="49" y="372" type="line"/>
      <point x="49" y="62" type="line"/>
      <point x="80" y="62" type="line"/>
      <point x="80" y="31" type="line"/>
      <point x="111" y="31" type="line"/>
      <point x="111" y="0" type="line"/>
      <point x="359" y="0" type="line"/>
      <point x="359" y="-93" type="line"/>
      <point x="80" y="-93" type="line"/>
    </contour>
    <contour>
      <point x="142" y="62" type="line"/>
      <point x="142" y="372" type="line"/>
      <point x="359" y="372" type="line"/>
      <point x="359" y="62" type="line"/>
    </contour>
  </outline>
  <guideline angle="0" x="0" y="496"/>
  <guideline angle="90" x="49" y="0"/>
  <guideline angle="90" x="452" y="0"/>
  <guideline angle="90" x="251" y="0"/>
</glyph>
<glyph name="h" format="2">
  <advance width="500"/>
  <unicode hex="0068"/>
  <anchor x="250" y="651" name="top"/>
  <outline>
    <contour>
      <point x="49" y="0" type="line"/>
      <point x="142" y="0" type="line"/>
      <point x="142" y="372" type="line"/>
      <point x="359" y="372" type="line"/>
      <point x="359" y="0" type="line"/>
      <point x="452" y="0" type="line"/>
      <point x="452" y="372" type="line"/>
      <point x="421" y="372" type="line"/>
      <point x="421" y="403" type="line"/>
      <point x="390" y="403" type="line"/>
      <point x="390" y="434" type="line"/>
      <point x="142" y="434" type="line"/>
      <point x="142" y="620" type="line"/>
      <point x="49" y="620" type="line"/>
    </contour>
  </outline>
  <guideline angle="0" x="0" y="651"/>
  <guideline angle="90" x="49" y="0"/>
  <guideline angle="90" x="452" y="0"/>
  <guideline angle="90" x="250" y="0"/>
</glyph>
<glyph name="j" format="2">
  <advance width="500"/>
  <unicode hex="006A"/>
  <outline>
    <contour>
      <point x="328" y="496" type="line"/>
      <point x="421" y="496" type="line"/>
      <point x="421" y="620" type="line"/>
      <point x="328" y="620" type="line"/>
    </contour>
    <contour>
      <point x="80" y="-93" type="line"/>
      <point x="111" y="-93" type="line"/>
      <point x="111" y="-124" type="line"/>
      <point x="142" y="-124" type="line"/>
      <point x="142" y="-155" type="line"/>
      <point x="359" y="-155" type="line"/>
      <point x="359" y="-124" type="line"/>
      <point x="390" y="-124" type="line"/>
      <point x="390" y="-93" type="line"/>
      <point x="421" y="-93" type="line"/>
      <point x="421" y="434" type="line"/>
      <point x="266" y="434" type="line"/>
      <point x="266" y="372" type="line"/>
      <point x="328" y="372" type="line"/>
      <point x="328" y="-93" type="line"/>
      <point x="173" y="-93" type="line"/>
      <point x="173" y="0" type="line"/>
      <point x="80" y="0" type="line"/>
    </contour>
  </outline>
</glyph>
<glyph name="k" format="2">
  <advance width="500"/>
  <unicode hex="006B"/>
  <anchor x="250" y="-31" name="bottom"/>
  <outline>
    <contour>
      <point x="64" y="0" type="line"/>
      <point x="157" y="0" type="line"/>
      <point x="157" y="186" type="line"/>
      <point x="188" y="186" type="line"/>
      <point x="188" y="155" type="line"/>
      <point x="219" y="155" type="line"/>
      <point x="219" y="124" type="line"/>
      <point x="250" y="124" type="line"/>
      <point x="250" y="93" type="line"/>
      <point x="281" y="93" type="line"/>
      <point x="281" y="62" type="line"/>
      <point x="312" y="62" type="line"/>
      <point x="312" y="31" type="line"/>
      <point x="343" y="31" type="line"/>
      <point x="343" y="0" type="line"/>
      <point x="436" y="0" type="line"/>
      <point x="436" y="31" type="line"/>
      <point x="405" y="31" type="line"/>
      <point x="405" y="62" type="line"/>
      <point x="374" y="62" type="line"/>
      <point x="374" y="93" type="line"/>
      <point x="343" y="93" type="line"/>
      <point x="343" y="124" type="line"/>
      <point x="312" y="124" type="line"/>
      <point x="312" y="155" type="line"/>
      <point x="281" y="155" type="line"/>
      <point x="281" y="186" type="line"/>
      <point x="250" y="186" type="line"/>
      <point x="250" y="248" type="line"/>
      <point x="281" y="248" type="line"/>
      <point x="281" y="279" type="line"/>
      <point x="312" y="279" type="line"/>
      <point x="312" y="310" type="line"/>
      <point x="343" y="310" type="line"/>
      <point x="343" y="341" type="line"/>
      <point x="374" y="341" type="line"/>
      <point x="374" y="372" type="line"/>
      <point x="405" y="372" type="line"/>
      <point x="405" y="403" type="line"/>
      <point x="436" y="403" type="line"/>
      <point x="436" y="434" type="line"/>
      <point x="343" y="434" type="line"/>
      <point x="343" y="403" type="line"/>
      <point x="312" y="403" type="line"/>
      <point x="312" y="372" type="line"/>
      <point x="281" y="372" type="line"/>
      <point x="281" y="341" type="line"/>
      <point x="250" y="341" type="line"/>
      <point x="250" y="310" type="line"/>
      <point x="219" y="310" type="line"/>
      <point x="219" y="279" type="line"/>
      <point x="188" y="279" type="line"/>
      <point x="188" y="248" type="line"/>
      <point x="157" y="248" type="line"/>
      <point x="157" y="620" type="line"/>
      <point x="64" y="620" type="line"/>
    </contour>
  </outline>
  <guideline angle="0" x="0" y="-31"/>
  <guideline angle="90" x="64" y="0"/>
  <guideline angle="90" x="436" y="0"/>
  <guideline angle="90" x="250" y="0"/>
</glyph>
<glyph name="m" format="2">
  <advance width="500"/>
  <unicode hex="006D"/>
  <outline>
    <contour>
      <point x="49" y="0" type="line"/>
      <point x="142" y="0" type="line"/>
      <point x="142" y="372" type="line"/>
      <point x="204" y="372" type="line"/>
      <point x="204" y="0" type="line"/>
      <point x="297" y="0" type="line"/>
      <point x="297" y="372" type="line"/>
      <point x="359" y="372" type="line"/>
      <point x="359" y="0" type="line"/>
      <point x="452" y="0" type="line"/>
      <point x="452" y="372" type="line"/>
      <point x="421" y="372" type="line"/>
      <point x="421" y="403" type="line"/>
      <point x="390" y="403" type="line"/>
      <point x="390" y="434" type="line"/>
      <point x="49" y="434" type="line"/>
    </contour>
  </outline>
</glyph>
<glyph name="n" format="2">
  <advance width="500"/>
  <unicode hex="006E"/>
  <anchor x="250" y="496" name="top"/>
  <anchor x="250" y="-31" name="bottom"/>
  <outline>
    <contour>
      <point x="49" y="0" type="line"/>
      <point x="142" y="0" type="line"/>
      <point x="142" y="372" type="line"/>
      <point x="359" y="372" type="line"/>
      <point x="359" y="0" type="line"/>
      <point x="452" y="0" type="line"/>
      <point x="452" y="372" type="line"/>
      <point x="421" y="372" type="line"/>
      <point x="421" y="403" type="line"/>
      <point x="390" y="403" type="line"/>
      <point x="390" y="434" type="line"/>
      <point x="49" y="434" type="line"/>
    </contour>
  </outline>
  <guideline angle="0" x="0" y="496"/>
  <guideline angle="90" x="49" y="0"/>
  <guideline angle="90" x="452" y="0"/>
  <guideline angle="90" x="250" y="0"/>
</glyph>
<glyph name="r" format="2">
  <advance width="500"/>
  <unicode hex="0072"/>
  <anchor x="250" y="496" name="top"/>
  <anchor x="96" y="-31" name="bottom"/>
  <outline>
    <contour>
      <point x="49" y="0" type="line"/>
      <point x="142" y="0" type="line"/>
      <point x="142" y="279" type="line"/>
      <point x="173" y="279" type="line"/>
      <point x="173" y="310" type="line"/>
      <point x="204" y="310" type="line"/>
      <point x="204" y="341" type="line"/>
      <point x="234.919" y="341" type="line"/>
      <point x="234.919" y="372" type="line"/>
      <point x="452" y="372" type="line"/>
      <point x="452" y="434" type="line"/>
      <point x="235" y="434" type="line"/>
      <point x="235.325" y="403" type="line"/>
      <point x="204" y="402.675" type="line"/>
      <point x="204" y="372" type="line"/>
      <point x="173" y="372" type="line"/>
      <point x="173" y="341" type="line"/>
      <point x="142" y="341" type="line"/>
      <point x="142" y="434" type="line"/>
      <point x="49" y="434" type="line"/>
    </contour>
  </outline>
  <guideline angle="90" x="49" y="0"/>
  <guideline angle="90" x="452" y="0"/>
  <guideline angle="90" x="250" y="0"/>
  <guideline angle="0" x="0" y="496"/>
</glyph>
<glyph name="t" format="2">
  <advance width="500"/>
  <unicode hex="0074"/>
  <anchor x="235" y="0" name="cedilla"/>
  <anchor x="248" y="-31" name="bottom"/>
  <anchor x="219" y="651" name="top"/>
  <outline>
    <contour>
      <point x="49" y="372" type="line"/>
      <point x="173" y="372" type="line"/>
      <point x="173" y="62" type="line"/>
      <point x="204" y="62" type="line"/>
      <point x="204" y="31" type="line"/>
      <point x="235" y="31" type="line"/>
      <point x="235" y="0" type="line"/>
      <point x="452" y="0" type="line"/>
      <point x="452" y="62" type="line"/>
      <point x="266" y="62" type="line"/>
      <point x="266" y="372" type="line"/>
      <point x="390" y="372" type="line"/>
      <point x="390" y="434" type="line"/>
      <point x="266" y="434" type="line"/>
      <point x="266" y="620" type="line"/>
      <point x="173" y="620" type="line"/>
      <point x="173" y="434" type="line"/>
      <point x="49" y="434" type="line"/>
    </contour>
  </outline>
  <guideline angle="0" x="0" y="651"/>
  <guideline angle="90" x="173" y="0"/>
  <guideline angle="90" x="266" y="0"/>
  <guideline angle="90" x="219" y="0"/>
</glyph>
<glyph name="u" format="2">
  <advance width="500"/>
  <unicode hex="0075"/>
  <anchor x="250" y="496" name="top"/>
  <anchor x="250" y="504" name="t.macron"/>
  <outline>
    <contour>
      <point x="49" y="62" type="line"/>
      <point x="80" y="62" type="line"/>
      <point x="80" y="31" type="line"/>
      <point x="111" y="31" type="line"/>
      <point x="111" y="0" type="line"/>
      <point x="452" y="0" type="line"/>
      <point x="452" y="434" type="line"/>
      <point x="359" y="434" type="line"/>
      <point x="359" y="62" type="line"/>
      <point x="142" y="62" type="line"/>
      <point x="142" y="434" type="line"/>
      <point x="49" y="434" type="line"/>
    </contour>
  </outline>
  <guideline angle="0" x="0" y="496"/>
  <guideline angle="90" x="49" y="0"/>
  <guideline angle="90" x="452" y="0"/>
  <guideline angle="90" x="250" y="0"/>
</glyph>
<glyph name="v" format="2">
  <advance width="500"/>
  <unicode hex="0076"/>
  <outline>
    <contour>
      <point x="111" y="155" type="line"/>
      <point x="142" y="155" type="line"/>
      <point x="142" y="62" type="line"/>
      <point x="173" y="62" type="line"/>
      <point x="173" y="0" type="line"/>
      <point x="328" y="0" type="line"/>
      <point x="328" y="62" type="line"/>
      <point x="359" y="62" type="line"/>
      <point x="359" y="155" type="line"/>
      <point x="390" y="155" type="line"/>
      <point x="390" y="248" type="line"/>
      <point x="421" y="248" type="line"/>
      <point x="421" y="341" type="line"/>
      <point x="452" y="341" type="line"/>
      <point x="452" y="434" type="line"/>
      <point x="359" y="434" type="line"/>
      <point x="359" y="341" type="line"/>
      <point x="328" y="341" type="line"/>
      <point x="328" y="248" type="line"/>
      <point x="297" y="248" type="line"/>
      <point x="297" y="155" type="line"/>
      <point x="266" y="155" type="line"/>
      <point x="266" y="62" type="line"/>
      <point x="235" y="62" type="line"/>
      <point x="235" y="155" type="line"/>
      <point x="204" y="155" type="line"/>
      <point x="204" y="248" type="line"/>
      <point x="173" y="248" type="line"/>
      <point x="173" y="341" type="line"/>
      <point x="142" y="341" type="line"/>
      <point x="142" y="434" type="line"/>
      <point x="49" y="434" type="line"/>
      <point x="49" y="341" type="line"/>
      <point x="80" y="341" type="line"/>
      <point x="80" y="248" type="line"/>
      <point x="111" y="248" type="line"/>
    </contour>
  </outline>
</glyph>
<glyph name="x" format="2">
  <advance width="500"/>
  <unicode hex="0078"/>
  <outline>
    <contour>
      <point x="49" y="0" type="line"/>
      <point x="142" y="0" type="line"/>
      <point x="142" y="93" type="line"/>
      <point x="173" y="93" type="line"/>
      <point x="173" y="124" type="line"/>
      <point x="204" y="124" type="line"/>
      <point x="204" y="155" type="line"/>
      <point x="235" y="155" type="line"/>
      <point x="235" y="186" type="line"/>
      <point x="266" y="186" type="line"/>
      <point x="266" y="155" type="line"/>
      <point x="297" y="155" type="line"/>
      <point x="297" y="124" type="line"/>
      <point x="328" y="124" type="line"/>
      <point x="328" y="93" type="line"/>
      <point x="359" y="93" type="line"/>
      <point x="359" y="0" type="line"/>
      <point x="452" y="0" type="line"/>
      <point x="452" y="93" type="line"/>
      <point x="421" y="93" type="line"/>
      <point x="421" y="124" type="line"/>
      <point x="390" y="124" type="line"/>
      <point x="390" y="155" type="line"/>
      <point x="359" y="155" type="line"/>
      <point x="359" y="186" type="line"/>
      <point x="328" y="186" type="line"/>
      <point x="328" y="248" type="line"/>
      <point x="359" y="248" type="line"/>
      <point x="359" y="279" type="line"/>
      <point x="390" y="279" type="line"/>
      <point x="390" y="310" type="line"/>
      <point x="421" y="310" type="line"/>
      <point x="421" y="341" type="line"/>
      <point x="452" y="341" type="line"/>
      <point x="452" y="434" type="line"/>
      <point x="359" y="434" type="line"/>
      <point x="359" y="341" type="line"/>
      <point x="328" y="341" type="line"/>
      <point x="328" y="310" type="line"/>
      <point x="297" y="310" type="line"/>
      <point x="297" y="279" type="line"/>
      <point x="266" y="279" type="line"/>
      <point x="266" y="248" type="line"/>
      <point x="235" y="248" type="line"/>
      <point x="235" y="279" type="line"/>
      <point x="204" y="279" type="line"/>
      <point x="204" y="310" type="line"/>
      <point x="173" y="310" type="line"/>
      <point x="173" y="341" type="line"/>
      <point x="142" y="341" type="line"/>
      <point x="142" y="434" type="line"/>
      <point x="49" y="434" type="line"/>
      <point x="49" y="341" type="line"/>
      <point x="80" y="341" type="line"/>
      <point x="80" y="310" type="line"/>
      <point x="111" y="310" type="line"/>
      <point x="111" y="279" type="line"/>
      <point x="142" y="279" type="line"/>
      <point x="142" y="248" type="line"/>
      <point x="173" y="248" type="line"/>
      <point x="173" y="186" type="line"/>
      <point x="142" y="186" type="line"/>
      <point x="142" y="155" type="line"/>
      <point x="111" y="155" type="line"/>
      <point x="111" y="124" type="line"/>
      <point x="80" y="124" type="line"/>
      <point x="80" y="93" type="line"/>
      <point x="49" y="93" type="line"/>
    </contour>
  </outline>
</glyph>
<glyph name="z" format="2">
  <advance width="500"/>
  <unicode hex="007A"/>
  <anchor x="250" y="496" name="top"/>
  <outline>
    <contour>
      <point x="49" y="0" type="line"/>
      <point x="452" y="0" type="line"/>
      <point x="452" y="62" type="line"/>
      <point x="142" y="62" type="line"/>
      <point x="142" y="93" type="line"/>
      <point x="173" y="93" type="line"/>
      <point x="173" y="124" type="line"/>
      <point x="204" y="124" type="line"/>
      <point x="204" y="155" type="line"/>
      <point x="235" y="155" type="line"/>
      <point x="235" y="186" type="line"/>
      <point x="266" y="186" type="line"/>
      <point x="266" y="217" type="line"/>
      <point x="297" y="217" type="line"/>
      <point x="297" y="248" type="line"/>
      <point x="328" y="248" type="line"/>
      <point x="328" y="279" type="line"/>
      <point x="359" y="279" type="line"/>
      <point x="359" y="310" type="line"/>
      <point x="390" y="310" type="line"/>
      <point x="390" y="341" type="line"/>
      <point x="421" y="341" type="line"/>
      <point x="421" y="372" type="line"/>
      <point x="452" y="372" type="line"/>
      <point x="452" y="434" type="line"/>
      <point x="49" y="434" type="line"/>
      <point x="49" y="372" type="line"/>
      <point x="328" y="372" type="line"/>
      <point x="328" y="341" type="line"/>
      <point x="297" y="341" type="line"/>
      <point x="297" y="310" type="line"/>
      <point x="266" y="310" type="line"/>
      <point x="266" y="279" type="line"/>
      <point x="235" y="279" type="line"/>
      <point x="235" y="248" type="line"/>
      <point x="204" y="248" type="line"/>
      <point x="204" y="217" type="line"/>
      <point x="173" y="217" type="line"/>
      <point x="173" y="186" type="line"/>
      <point x="142" y="186" type="line"/>
      <point x="142" y="155" type="line"/>
      <point x="111" y="155" type="line"/>
      <point x="111" y="124" type="line"/>
      <point x="80" y="124" type="line"/>
      <point x="80" y="93" type="line"/>
      <point x="49" y="93" type="line"/>
    </contour>
  </outline>
  <guideline angle="0" x="0" y="496"/>
  <guideline angle="90" x="49" y="0"/>
  <guideline angle="90" x="452" y="0"/>
  <guideline angle="90" x="250" y="0"/>
</glyph>
<glyph name="braceleft" format="2">
  <advance width="500"/>
  <unicode hex="007B"/>
  <outline>
    <contour>
      <point x="111" y="279" type="line"/>
      <point x="173" y="279" type="line"/>
      <point x="173" y="62" type="line"/>
      <point x="204" y="62" type="line"/>
      <point x="204" y="31" type="line"/>
      <point x="235" y="31" type="line"/>
      <point x="235" y="0" type="line"/>
      <point x="390" y="0" type="line"/>
      <point x="390" y="62" type="line"/>
      <point x="266" y="62" type="line"/>
      <point x="266" y="279" type="line"/>
      <point x="235" y="279" type="line"/>
      <point x="235" y="341" type="line"/>
      <point x="266" y="341" type="line"/>
      <point x="266" y="558" type="line"/>
      <point x="390" y="558" type="line"/>
      <point x="390" y="620" type="line"/>
      <point x="235" y="620" type="line"/>
      <point x="235" y="589" type="line"/>
      <point x="204" y="589" type="line"/>
      <point x="204" y="558" type="line"/>
      <point x="173" y="558" type="line"/>
      <point x="173" y="341" type="line"/>
      <point x="111" y="341" type="line"/>
    </contour>
  </outline>
</glyph>
<glyph name="braceright" format="2">
  <advance width="500"/>
  <unicode hex="007D"/>
  <outline>
    <contour>
      <point x="111" y="0" type="line"/>
      <point x="266" y="0" type="line"/>
      <point x="266" y="31" type="line"/>
      <point x="297" y="31" type="line"/>
      <point x="297" y="62" type="line"/>
      <point x="328" y="62" type="line"/>
      <point x="328" y="279" type="line"/>
      <point x="390" y="279" type="line"/>
      <point x="390" y="341" type="line"/>
      <point x="328" y="341" type="line"/>
      <point x="328" y="558" type="line"/>
      <point x="297" y="558" type="line"/>
      <point x="297" y="589" type="line"/>
      <point x="266" y="589" type="line"/>
      <point x="266" y="620" type="line"/>
      <point x="111" y="620" type="line"/>
      <point x="111" y="558" type="line"/>
      <point x="235" y="558" type="line"/>
      <point x="235" y="341" type="line"/>
      <point x="266" y="341" type="line"/>
      <point x="266" y="279" type="line"/>
      <point x="235" y="279" type="line"/>
      <point x="235" y="62" type="line"/>
      <point x="111" y="62" type="line"/>
    </contour>
  </outline>
</glyph>
<glyph name="asciitilde" format="2">
  <advance width="500"/>
  <unicode hex="007E"/>
  <outline>
    <contour>
      <point x="49" y="527" type="line"/>
      <point x="142" y="527" type="line"/>
      <point x="142" y="651" type="line"/>
      <point x="204" y="651" type="line"/>
      <point x="204" y="589" type="line"/>
      <point x="235" y="589" type="line"/>
      <point x="235" y="558" type="line"/>
      <point x="266" y="558" type="line"/>
      <point x="266" y="527" type="line"/>
      <point x="390" y="527" type="line"/>
      <point x="390" y="558" type="line"/>
      <point x="421" y="558" type="line"/>
      <point x="421" y="589" type="line"/>
      <point x="452" y="589" type="line"/>
      <point x="452" y="713" type="line"/>
      <point x="359" y="713" type="line"/>
      <point x="359" y="589" type="line"/>
      <point x="297" y="589" type="line"/>
      <point x="297" y="651" type="line"/>
      <point x="266" y="651" type="line"/>
      <point x="266" y="682" type="line"/>
      <point x="235" y="682" type="line"/>
      <point x="235" y="713" type="line"/>
      <point x="111" y="713" type="line"/>
      <point x="111" y="682" type="line"/>
      <point x="80" y="682" type="line"/>
      <point x="80" y="651" type="line"/>
      <point x="49" y="651" type="line"/>
    </contour>
  </outline>
</glyph>
<glyph name="exclamdown" format="2">
  <advance width="500"/>
  <unicode hex="00A1"/>
  <outline>
    <contour>
      <point x="204" y="496" type="line"/>
      <point x="297" y="496" type="line"/>
      <point x="297" y="620" type="line"/>
      <point x="204" y="620" type="line"/>
    </contour>
    <contour>
      <point x="204" y="0" type="line"/>
      <point x="297" y="0" type="line"/>
      <point x="297" y="434" type="line"/>
      <point x="204" y="434" type="line"/>
    </contour>
  </outline>
</glyph>
<glyph name="cent" format="2">
  <advance width="500"/>
  <unicode hex="00A2"/>
  <outline>
    <contour>
      <point x="49" y="62" type="line"/>
      <point x="80" y="62" type="line"/>
      <point x="80" y="31" type="line"/>
      <point x="111" y="31" type="line"/>
      <point x="111" y="0" type="line"/>
      <point x="204" y="0" type="line"/>
      <point x="204" y="-93" type="line"/>
      <point x="297" y="-93" type="line"/>
      <point x="297" y="0" type="line"/>
      <point x="390" y="0" type="line"/>
      <point x="390" y="31" type="line"/>
      <point x="421" y="31" type="line"/>
      <point x="421" y="62" type="line"/>
      <point x="452" y="62" type="line"/>
      <point x="452" y="124" type="line"/>
      <point x="359" y="124" type="line"/>
      <point x="359" y="62" type="line"/>
      <point x="297" y="62" type="line"/>
      <point x="297" y="372" type="line"/>
      <point x="359" y="372" type="line"/>
      <point x="359" y="310" type="line"/>
      <point x="452" y="310" type="line"/>
      <point x="452" y="372" type="line"/>
      <point x="421" y="372" type="line"/>
      <point x="421" y="403" type="line"/>
      <point x="390" y="403" type="line"/>
      <point x="390" y="434" type="line"/>
      <point x="297" y="434" type="line"/>
      <point x="297" y="527" type="line"/>
      <point x="204" y="527" type="line"/>
      <point x="204" y="434" type="line"/>
      <point x="111" y="434" type="line"/>
      <point x="111" y="403" type="line"/>
      <point x="80" y="403" type="line"/>
      <point x="80" y="372" type="line"/>
      <point x="49" y="372" type="line"/>
    </contour>
    <contour>
      <point x="142" y="62" type="line"/>
      <point x="142" y="372" type="line"/>
      <point x="204" y="372" type="line"/>
      <point x="204" y="62" type="line"/>
    </contour>
  </outline>
</glyph>
<glyph name="sterling" format="2">
  <advance width="500"/>
  <unicode hex="00A3"/>
  <outline>
    <contour>
      <point x="49" y="0" type="line"/>
      <point x="452" y="0" type="line"/>
      <point x="452" y="124" type="line"/>
      <point x="359" y="124" type="line"/>
      <point x="359" y="62" type="line"/>
      <point x="204" y="62" type="line"/>
      <point x="204" y="279" type="line"/>
      <point x="359" y="279" type="line"/>
      <point x="359" y="341" type="line"/>
      <point x="204" y="341" type="line"/>
      <point x="204" y="558" type="line"/>
      <point x="328" y="558" type="line"/>
      <point x="328" y="496" type="line"/>
      <point x="421" y="496" type="line"/>
      <point x="421" y="558" type="line"/>
      <point x="390" y="558" type="line"/>
      <point x="390" y="589" type="line"/>
      <point x="359" y="589" type="line"/>
      <point x="359" y="620" type="line"/>
      <point x="173" y="620" type="line"/>
      <point x="173" y="589" type="line"/>
      <point x="142" y="589" type="line"/>
      <point x="142" y="558" type="line"/>
      <point x="111" y="558" type="line"/>
      <point x="111" y="341" type="line"/>
      <point x="49" y="341" type="line"/>
      <point x="49" y="279" type="line"/>
      <point x="111" y="279" type="line"/>
      <point x="111" y="62" type="line"/>
      <point x="49" y="62" type="line"/>
    </contour>
  </outline>
</glyph>
<glyph name="currency" format="2">
  <advance width="500"/>
  <unicode hex="00A4"/>
  <outline>
    <contour>
      <point x="49" y="93" type="line"/>
      <point x="142" y="93" type="line"/>
      <point x="142" y="124" type="line"/>
      <point x="173" y="124" type="line"/>
      <point x="173" y="155" type="line"/>
      <point x="328" y="155" type="line"/>
      <point x="328" y="124" type="line"/>
      <point x="359" y="124" type="line"/>
      <point x="359" y="93" type="line"/>
      <point x="452" y="93" type="line"/>
      <point x="452" y="124" type="line"/>
      <point x="421" y="124" type="line"/>
      <point x="421" y="155" type="line"/>
      <point x="390" y="155" type="line"/>
      <point x="390" y="217" type="line"/>
      <point x="421" y="217" type="line"/>
      <point x="421" y="403" type="line"/>
      <point x="390" y="403" type="line"/>
      <point x="390" y="465" type="line"/>
      <point x="421" y="465" type="line"/>
      <point x="421" y="496" type="line"/>
      <point x="452" y="496" type="line"/>
      <point x="452" y="527" type="line"/>
      <point x="359" y="527" type="line"/>
      <point x="359" y="496" type="line"/>
      <point x="328" y="496" type="line"/>
      <point x="328" y="465" type="line"/>
      <point x="173" y="465" type="line"/>
      <point x="173" y="496" type="line"/>
      <point x="142" y="496" type="line"/>
      <point x="142" y="527" type="line"/>
      <point x="49" y="527" type="line"/>
      <point x="49" y="496" type="line"/>
      <point x="80" y="496" type="line"/>
      <point x="80" y="465" type="line"/>
      <point x="111" y="465" type="line"/>
      <point x="111" y="403" type="line"/>
      <point x="80" y="403" type="line"/>
      <point x="80" y="217" type="line"/>
      <point x="111" y="217" type="line"/>
      <point x="111" y="155" type="line"/>
      <point x="80" y="155" type="line"/>
      <point x="80" y="124" type="line"/>
      <point x="49" y="124" type="line"/>
    </contour>
    <contour>
      <point x="173" y="217" type="line"/>
      <point x="173" y="403" type="line"/>
      <point x="328" y="403" type="line"/>
      <point x="328" y="217" type="line"/>
    </contour>
  </outline>
</glyph>
<glyph name="yen" format="2">
  <advance width="500"/>
  <unicode hex="00A5"/>
  <outline>
    <contour>
      <point x="80" y="62" type="line"/>
      <point x="204" y="62" type="line"/>
      <point x="204" y="0" type="line"/>
      <point x="297" y="0" type="line"/>
      <point x="297" y="62" type="line"/>
      <point x="421" y="62" type="line"/>
      <point x="421" y="124" type="line"/>
      <point x="297" y="124" type="line"/>
      <point x="297" y="186" type="line"/>
      <point x="421" y="186" type="line"/>
      <point x="421" y="248" type="line"/>
      <point x="297" y="248" type="line"/>
      <point x="297" y="310" type="line"/>
      <point x="328" y="310" type="line"/>
      <point x="328" y="372" type="line"/>
      <point x="359" y="372" type="line"/>
      <point x="359" y="434" type="line"/>
      <point x="390" y="434" type="line"/>
      <point x="390" y="496" type="line"/>
      <point x="421" y="496" type="line"/>
      <point x="421" y="558" type="line"/>
      <point x="452" y="558" type="line"/>
      <point x="452" y="620" type="line"/>
      <point x="359" y="620" type="line"/>
      <point x="359" y="558" type="line"/>
      <point x="328" y="558" type="line"/>
      <point x="328" y="496" type="line"/>
      <point x="297" y="496" type="line"/>
      <point x="297" y="434" type="line"/>
      <point x="266" y="434" type="line"/>
      <point x="266" y="372" type="line"/>
      <point x="235" y="372" type="line"/>
      <point x="235" y="434" type="line"/>
      <point x="204" y="434" type="line"/>
      <point x="204" y="496" type="line"/>
      <point x="173" y="496" type="line"/>
      <point x="173" y="558" type="line"/>
      <point x="142" y="558" type="line"/>
      <point x="142" y="620" type="line"/>
      <point x="49" y="620" type="line"/>
      <point x="49" y="558" type="line"/>
      <point x="80" y="558" type="line"/>
      <point x="80" y="496" type="line"/>
      <point x="111" y="496" type="line"/>
      <point x="111" y="434" type="line"/>
      <point x="142" y="434" type="line"/>
      <point x="142" y="372" type="line"/>
      <point x="173" y="372" type="line"/>
      <point x="173" y="310" type="line"/>
      <point x="204" y="310" type="line"/>
      <point x="204" y="248" type="line"/>
      <point x="80" y="248" type="line"/>
      <point x="80" y="186" type="line"/>
      <point x="204" y="186" type="line"/>
      <point x="204" y="124" type="line"/>
      <point x="80" y="124" type="line"/>
    </contour>
  </outline>
</glyph>
<glyph name="brokenbar" format="2">
  <advance width="500"/>
  <unicode hex="00A6"/>
  <outline>
    <contour>
      <point x="204" y="372" type="line"/>
      <point x="297" y="372" type="line"/>
      <point x="297" y="620" type="line"/>
      <point x="204" y="620" type="line"/>
    </contour>
    <contour>
      <point x="204" y="0" type="line"/>
      <point x="297" y="0" type="line"/>
      <point x="297" y="248" type="line"/>
      <point x="204" y="248" type="line"/>
    </contour>
  </outline>
</glyph>
<glyph name="section" format="2">
  <advance width="500"/>
  <unicode hex="00A7"/>
  <outline>
    <contour>
      <point x="80" y="31" type="line"/>
      <point x="111" y="31" type="line"/>
      <point x="111" y="0" type="line"/>
      <point x="142" y="0" type="line"/>
      <point x="142" y="-31" type="line"/>
      <point x="359" y="-31" type="line"/>
      <point x="359" y="0" type="line"/>
      <point x="390" y="0" type="line"/>
      <point x="390" y="31" type="line"/>
      <point x="421" y="31" type="line"/>
      <point x="421" y="155" type="line"/>
      <point x="390" y="155" type="line"/>
      <point x="390" y="217" type="line"/>
      <point x="421" y="217" type="line"/>
      <point x="421" y="403" type="line"/>
      <point x="390" y="403" type="line"/>
      <point x="390" y="434" type="line"/>
      <point x="359" y="434" type="line"/>
      <point x="359" y="465" type="line"/>
      <point x="328" y="465" type="line"/>
      <point x="328" y="496" type="line"/>
      <point x="204" y="496" type="line"/>
      <point x="204" y="527" type="line"/>
      <point x="173" y="527" type="line"/>
      <point x="173" y="620" type="line"/>
      <point x="328" y="620" type="line"/>
      <point x="328" y="558" type="line"/>
      <point x="421" y="558" type="line"/>
      <point x="421" y="620" type="line"/>
      <point x="390" y="620" type="line"/>
      <point x="390" y="651" type="line"/>
      <point x="359" y="651" type="line"/>
      <point x="359" y="682" type="line"/>
      <point x="142" y="682" type="line"/>
      <point x="142" y="651" type="line"/>
      <point x="111" y="651" type="line"/>
      <point x="111" y="620" type="line"/>
      <point x="80" y="620" type="line"/>
      <point x="80" y="496" type="line"/>
      <point x="111" y="496" type="line"/>
      <point x="111" y="434" type="line"/>
      <point x="80" y="434" type="line"/>
      <point x="80" y="248" type="line"/>
      <point x="111" y="248" type="line"/>
      <point x="111" y="217" type="line"/>
      <point x="142" y="217" type="line"/>
      <point x="142" y="186" type="line"/>
      <point x="173" y="186" type="line"/>
      <point x="173" y="155" type="line"/>
      <point x="297" y="155" type="line"/>
      <point x="297" y="124" type="line"/>
      <point x="328" y="124" type="line"/>
      <point x="328" y="31" type="line"/>
      <point x="173" y="31" type="line"/>
      <point x="173" y="93" type="line"/>
      <point x="80" y="93" type="line"/>
    </contour>
    <contour>
      <point x="173" y="248" type="line"/>
      <point x="173" y="434" type="line"/>
      <point x="297" y="434" type="line"/>
      <point x="297" y="403" type="line"/>
      <point x="328" y="403" type="line"/>
      <point x="328" y="217" type="line"/>
      <point x="204" y="217" type="line"/>
      <point x="204" y="248" type="line"/>
    </contour>
  </outline>
</glyph>
<glyph name="dieresis" format="2">
  <advance width="500"/>
  <unicode hex="00A8"/>
  <outline>
    <contour>
      <point x="111" y="527" type="line"/>
      <point x="204" y="527" type="line"/>
      <point x="204" y="651" type="line"/>
      <point x="111" y="651" type="line"/>
    </contour>
    <contour>
      <point x="297" y="527" type="line"/>
      <point x="390" y="527" type="line"/>
      <point x="390" y="651" type="line"/>
      <point x="297" y="651" type="line"/>
    </contour>
  </outline>
</glyph>
<glyph name="copyright" format="2">
  <advance width="500"/>
  <unicode hex="00A9"/>
  <outline>
    <contour>
      <point x="33" y="124" type="line"/>
      <point x="64" y="124" type="line"/>
      <point x="64" y="93" type="line"/>
      <point x="95" y="93" type="line"/>
      <point x="95" y="62" type="line"/>
      <point x="405" y="62" type="line"/>
      <point x="405" y="93" type="line"/>
      <point x="436" y="93" type="line"/>
      <point x="436" y="124" type="line"/>
      <point x="467" y="124" type="line"/>
      <point x="467" y="496" type="line"/>
      <point x="436" y="496" type="line"/>
      <point x="436" y="527" type="line"/>
      <point x="405" y="527" type="line"/>
      <point x="405" y="558" type="line"/>
      <point x="95" y="558" type="line"/>
      <point x="95" y="527" type="line"/>
      <point x="64" y="527" type="line"/>
      <point x="64" y="496" type="line"/>
      <point x="33" y="496" type="line"/>
    </contour>
    <contour>
      <point x="95" y="124" type="line"/>
      <point x="95" y="496" type="line"/>
      <point x="405" y="496" type="line"/>
      <point x="405" y="124" type="line"/>
    </contour>
    <contour>
      <point x="126" y="186" type="line"/>
      <point x="157" y="186" type="line"/>
      <point x="157" y="155" type="line"/>
      <point x="343" y="155" type="line"/>
      <point x="343" y="186" type="line"/>
      <point x="374" y="186" type="line"/>
      <point x="374" y="248" type="line"/>
      <point x="281" y="248" type="line"/>
      <point x="281" y="217" type="line"/>
      <point x="219" y="217" type="line"/>
      <point x="219" y="403" type="line"/>
      <point x="281" y="403" type="line"/>
      <point x="281" y="372" type="line"/>
      <point x="374" y="372" type="line"/>
      <point x="374" y="434" type="line"/>
      <point x="343" y="434" type="line"/>
      <point x="343" y="465" type="line"/>
      <point x="157" y="465" type="line"/>
      <point x="157" y="434" type="line"/>
      <point x="126" y="434" type="line"/>
    </contour>
  </outline>
</glyph>
<glyph name="ordfeminine" format="2">
  <advance width="500"/>
  <unicode hex="00AA"/>
  <outline>
    <contour>
      <point x="80" y="465" type="line"/>
      <point x="111" y="465" type="line"/>
      <point x="111" y="434" type="line"/>
      <point x="142" y="434" type="line"/>
      <point x="142" y="403" type="line"/>
      <point x="421" y="403" type="line"/>
      <point x="421" y="682" type="line"/>
      <point x="390" y="682" type="line"/>
      <point x="390" y="713" type="line"/>
      <point x="359" y="713" type="line"/>
      <point x="359" y="744" type="line"/>
      <point x="111" y="744" type="line"/>
      <point x="111" y="682" type="line"/>
      <point x="328" y="682" type="line"/>
      <point x="328" y="620" type="line"/>
      <point x="142" y="620" type="line"/>
      <point x="142" y="589" type="line"/>
      <point x="111" y="589" type="line"/>
      <point x="111" y="558" type="line"/>
      <point x="80" y="558" type="line"/>
    </contour>
    <contour>
      <point x="173" y="465" type="line"/>
      <point x="173" y="558" type="line"/>
      <point x="328" y="558" type="line"/>
      <point x="328" y="465" type="line"/>
    </contour>
    <contour>
      <point x="80" y="279" type="line"/>
      <point x="421" y="279" type="line"/>
      <point x="421" y="341" type="line"/>
      <point x="80" y="341" type="line"/>
    </contour>
  </outline>
</glyph>
<glyph name="guillemotleft" format="2">
  <advance width="500"/>
  <unicode hex="00AB"/>
  <outline>
    <contour>
      <point x="64" y="155" type="line"/>
      <point x="95" y="155" type="line"/>
      <point x="95" y="124" type="line"/>
      <point x="126" y="124" type="line"/>
      <point x="126" y="93" type="line"/>
      <point x="157" y="93" type="line"/>
      <point x="157" y="62" type="line"/>
      <point x="188" y="62" type="line"/>
      <point x="188" y="31" type="line"/>
      <point x="219" y="31" type="line"/>
      <point x="219" y="0" type="line"/>
      <point x="312" y="0" type="line"/>
      <point x="312" y="31" type="line"/>
      <point x="281" y="31" type="line"/>
      <point x="281" y="62" type="line"/>
      <point x="250" y="62" type="line"/>
      <point x="250" y="93" type="line"/>
      <point x="219" y="93" type="line"/>
      <point x="219" y="124" type="line"/>
      <point x="188" y="124" type="line"/>
      <point x="188" y="155" type="line"/>
      <point x="157" y="155" type="line"/>
      <point x="157" y="186" type="line"/>
      <point x="126" y="186" type="line"/>
      <point x="126" y="248" type="line"/>
      <point x="157" y="248" type="line"/>
      <point x="157" y="279" type="line"/>
      <point x="188" y="279" type="line"/>
      <point x="188" y="310" type="line"/>
      <point x="219" y="310" type="line"/>
      <point x="219" y="341" type="line"/>
      <point x="250" y="341" type="line"/>
      <point x="250" y="372" type="line"/>
      <point x="281" y="372" type="line"/>
      <point x="281" y="403" type="line"/>
      <point x="312" y="403" type="line"/>
      <point x="312" y="434" type="line"/>
      <point x="219" y="434" type="line"/>
      <point x="219" y="403" type="line"/>
      <point x="188" y="403" type="line"/>
      <point x="188" y="372" type="line"/>
      <point x="157" y="372" type="line"/>
      <point x="157" y="341" type="line"/>
      <point x="126" y="341" type="line"/>
      <point x="126" y="310" type="line"/>
      <point x="95" y="310" type="line"/>
      <point x="95" y="279" type="line"/>
      <point x="64" y="279" type="line"/>
      <point x="64" y="248" type="line"/>
      <point x="33" y="248" type="line"/>
      <point x="33" y="186" type="line"/>
      <point x="64" y="186" type="line"/>
    </contour>
    <contour>
      <point x="219" y="155" type="line"/>
      <point x="250" y="155" type="line"/>
      <point x="250" y="124" type="line"/>
      <point x="281" y="124" type="line"/>
      <point x="281" y="93" type="line"/>
      <point x="312" y="93" type="line"/>
      <point x="312" y="62" type="line"/>
      <point x="343" y="62" type="line"/>
      <point x="343" y="31" type="line"/>
      <point x="374" y="31" type="line"/>
      <point x="374" y="0" type="line"/>
      <point x="467" y="0" type="line"/>
      <point x="467" y="31" type="line"/>
      <point x="436" y="31" type="line"/>
      <point x="436" y="62" type="line"/>
      <point x="405" y="62" type="line"/>
      <point x="405" y="93" type="line"/>
      <point x="374" y="93" type="line"/>
      <point x="374" y="124" type="line"/>
      <point x="343" y="124" type="line"/>
      <point x="343" y="155" type="line"/>
      <point x="312" y="155" type="line"/>
      <point x="312" y="186" type="line"/>
      <point x="281" y="186" type="line"/>
      <point x="281" y="248" type="line"/>
      <point x="312" y="248" type="line"/>
      <point x="312" y="279" type="line"/>
      <point x="343" y="279" type="line"/>
      <point x="343" y="310" type="line"/>
      <point x="374" y="310" type="line"/>
      <point x="374" y="341" type="line"/>
      <point x="405" y="341" type="line"/>
      <point x="405" y="372" type="line"/>
      <point x="436" y="372" type="line"/>
      <point x="436" y="403" type="line"/>
      <point x="467" y="403" type="line"/>
      <point x="467" y="434" type="line"/>
      <point x="374" y="434" type="line"/>
      <point x="374" y="403" type="line"/>
      <point x="343" y="403" type="line"/>
      <point x="343" y="372" type="line"/>
      <point x="312" y="372" type="line"/>
      <point x="312" y="341" type="line"/>
      <point x="281" y="341" type="line"/>
      <point x="281" y="310" type="line"/>
      <point x="250" y="310" type="line"/>
      <point x="250" y="279" type="line"/>
      <point x="219" y="279" type="line"/>
      <point x="219" y="248" type="line"/>
      <point x="188" y="248" type="line"/>
      <point x="188" y="186" type="line"/>
      <point x="219" y="186" type="line"/>
    </contour>
  </outline>
</glyph>
<glyph name="registered" format="2">
  <advance width="500"/>
  <unicode hex="00AE"/>
  <outline>
    <contour>
      <point x="33" y="124" type="line"/>
      <point x="64" y="124" type="line"/>
      <point x="64" y="93" type="line"/>
      <point x="95" y="93" type="line"/>
      <point x="95" y="62" type="line"/>
      <point x="407" y="62" type="line"/>
      <point x="407" y="93" type="line"/>
      <point x="438" y="93" type="line"/>
      <point x="438" y="124" type="line"/>
      <point x="469" y="124" type="line"/>
      <point x="469" y="496" type="line"/>
      <point x="438" y="496" type="line"/>
      <point x="438" y="527" type="line"/>
      <point x="407" y="527" type="line"/>
      <point x="407" y="558" type="line"/>
      <point x="95" y="558" type="line"/>
      <point x="95" y="527" type="line"/>
      <point x="64" y="527" type="line"/>
      <point x="64" y="496" type="line"/>
      <point x="33" y="496" type="line"/>
    </contour>
    <contour>
      <point x="95" y="124" type="line"/>
      <point x="95" y="496" type="line"/>
      <point x="407" y="496" type="line"/>
      <point x="407" y="124" type="line"/>
    </contour>
    <contour>
      <point x="126" y="155" type="line"/>
      <point x="219" y="155" type="line"/>
      <point x="219" y="217" type="line"/>
      <point x="234.5" y="217" type="line"/>
      <point x="234.5" y="217" type="line"/>
      <point x="250" y="217" type="line"/>
      <point x="250" y="186" type="line"/>
      <point x="281" y="186" type="line"/>
      <point x="281" y="155" type="line"/>
      <point x="374" y="155" type="line"/>
      <point x="374" y="186" type="line"/>
      <point x="343" y="186" type="line"/>
      <point x="343" y="217" type="line"/>
      <point x="312" y="217" type="line"/>
      <point x="312" y="279" type="line"/>
      <point x="343" y="279" type="line"/>
      <point x="343" y="310" type="line"/>
      <point x="374" y="310" type="line"/>
      <point x="374" y="434" type="line"/>
      <point x="343" y="434" type="line"/>
      <point x="343" y="465" type="line"/>
      <point x="126" y="465" type="line"/>
    </contour>
    <contour>
      <point x="219" y="310" type="line"/>
      <point x="219" y="403" type="line"/>
      <point x="281" y="403" type="line"/>
      <point x="281" y="310" type="line"/>
    </contour>
  </outline>
</glyph>
<glyph name="degree" format="2">
  <advance width="500"/>
  <unicode hex="00B0"/>
  <outline>
    <contour>
      <point x="111" y="496" type="line"/>
      <point x="142" y="496" type="line"/>
      <point x="142" y="465" type="line"/>
      <point x="359" y="465" type="line"/>
      <point x="359" y="496" type="line"/>
      <point x="390" y="496" type="line"/>
      <point x="390" y="682" type="line"/>
      <point x="359" y="682" type="line"/>
      <point x="359" y="713" type="line"/>
      <point x="142" y="713" type="line"/>
      <point x="142" y="682" type="line"/>
      <point x="111" y="682" type="line"/>
    </contour>
    <contour>
      <point x="204" y="527" type="line"/>
      <point x="204" y="651" type="line"/>
      <point x="297" y="651" type="line"/>
      <point x="297" y="527" type="line"/>
    </contour>
  </outline>
</glyph>
<glyph name="plusminus" format="2">
  <advance width="500"/>
  <unicode hex="00B1"/>
  <outline>
    <contour>
      <point x="49" y="279" type="line"/>
      <point x="204" y="279" type="line"/>
      <point x="204" y="124" type="line"/>
      <point x="297" y="124" type="line"/>
      <point x="297" y="279" type="line"/>
      <point x="452" y="279" type="line"/>
      <point x="452" y="341" type="line"/>
      <point x="297" y="341" type="line"/>
      <point x="297" y="496" type="line"/>
      <point x="204" y="496" type="line"/>
      <point x="204" y="341" type="line"/>
      <point x="49" y="341" type="line"/>
    </contour>
    <contour>
      <point x="49" y="0" type="line"/>
      <point x="452" y="0" type="line"/>
      <point x="452" y="62" type="line"/>
      <point x="49" y="62" type="line"/>
    </contour>
  </outline>
</glyph>
<glyph name="uni00B2" format="2">
  <advance width="500"/>
  <unicode hex="00B2"/>
  <outline>
    <contour>
      <point x="124" y="434" type="line"/>
      <point x="372" y="434" type="line"/>
      <point x="372" y="496" type="line"/>
      <point x="279" y="496" type="line"/>
      <point x="279" y="527" type="line"/>
      <point x="310" y="527" type="line"/>
      <point x="310" y="558" type="line"/>
      <point x="341" y="558" type="line"/>
      <point x="341" y="589" type="line"/>
      <point x="372" y="589" type="line"/>
      <point x="372" y="682" type="line"/>
      <point x="341" y="682" type="line"/>
      <point x="341" y="713" type="line"/>
      <point x="124" y="713" type="line"/>
      <point x="124" y="682" type="line"/>
      <point x="93" y="682" type="line"/>
      <point x="93" y="589" type="line"/>
      <point x="186" y="589" type="line"/>
      <point x="186" y="651" type="line"/>
      <point x="279" y="651" type="line"/>
      <point x="279" y="589" type="line"/>
      <point x="248" y="589" type="line"/>
      <point x="248" y="558" type="line"/>
      <point x="217" y="558" type="line"/>
      <point x="217" y="527" type="line"/>
      <point x="186" y="527" type="line"/>
      <point x="186" y="496" type="line"/>
      <point x="155" y="496" type="line"/>
      <point x="155" y="465" type="line"/>
      <point x="124" y="465" type="line"/>
    </contour>
  </outline>
  <guideline angle="90" x="310" y="0"/>
</glyph>
<glyph name="acute" format="2">
  <advance width="500"/>
  <unicode hex="00B4"/>
  <outline>
    <contour>
      <point x="168.895" y="527.287" type="line"/>
      <point x="261.895" y="527.287" type="line"/>
      <point x="261.895" y="558.287" type="line"/>
      <point x="292.895" y="558.287" type="line"/>
      <point x="292.895" y="589.287" type="line"/>
      <point x="323.895" y="589.287" type="line"/>
      <point x="323.895" y="620.287" type="line"/>
      <point x="354.895" y="620.287" type="line"/>
      <point x="354.895" y="651.287" type="line"/>
      <point x="261.895" y="651.287" type="line"/>
      <point x="261.895" y="620.287" type="line"/>
      <point x="230.895" y="620.287" type="line"/>
      <point x="230.895" y="589.287" type="line"/>
      <point x="199.895" y="589.287" type="line"/>
      <point x="199.895" y="558.287" type="line"/>
      <point x="168.895" y="558.287" type="line"/>
    </contour>
  </outline>
  <guideline angle="0" x="0" y="527"/>
</glyph>
<glyph name="mu" format="2">
  <advance width="500"/>
  <unicode hex="00B5"/>
  <outline>
    <contour>
      <point x="49" y="-155" type="line"/>
      <point x="142" y="-155" type="line"/>
      <point x="142" y="0" type="line"/>
      <point x="297" y="0" type="line"/>
      <point x="297" y="31" type="line"/>
      <point x="328" y="31" type="line"/>
      <point x="328" y="62" type="line"/>
      <point x="359" y="62" type="line"/>
      <point x="359" y="0" type="line"/>
      <point x="452" y="0" type="line"/>
      <point x="452" y="434" type="line"/>
      <point x="359" y="434" type="line"/>
      <point x="359" y="155" type="line"/>
      <point x="328" y="155" type="line"/>
      <point x="328" y="124" type="line"/>
      <point x="297" y="124" type="line"/>
      <point x="297" y="93" type="line"/>
      <point x="266" y="93" type="line"/>
      <point x="266" y="62" type="line"/>
      <point x="142" y="62" type="line"/>
      <point x="142" y="434" type="line"/>
      <point x="49" y="434" type="line"/>
    </contour>
  </outline>
</glyph>
<glyph name="paragraph" format="2">
  <advance width="500"/>
  <unicode hex="00B6"/>
  <outline>
    <contour>
      <point x="64" y="279" type="line"/>
      <point x="219" y="279" type="line"/>
      <point x="219" y="0" type="line"/>
      <point x="312" y="0" type="line"/>
      <point x="312" y="558" type="line"/>
      <point x="374" y="558" type="line"/>
      <point x="374" y="0" type="line"/>
      <point x="467" y="0" type="line"/>
      <point x="467" y="620" type="line"/>
      <point x="64" y="620" type="line"/>
      <point x="64" y="589" type="line"/>
      <point x="33" y="589" type="line"/>
      <point x="33" y="310" type="line"/>
      <point x="64" y="310" type="line"/>
    </contour>
    <contour>
      <point x="126" y="341" type="line"/>
      <point x="126" y="558" type="line"/>
      <point x="219" y="558" type="line"/>
      <point x="219" y="341" type="line"/>
    </contour>
  </outline>
</glyph>
<glyph name="periodcentered" format="2">
  <advance width="500"/>
  <unicode hex="00B7"/>
  <outline>
    <contour>
      <point x="204" y="248" type="line"/>
      <point x="297" y="248" type="line"/>
      <point x="297" y="372" type="line"/>
      <point x="204" y="372" type="line"/>
    </contour>
  </outline>
</glyph>
<glyph name="cedilla" format="2">
  <advance width="500"/>
  <unicode hex="00B8"/>
  <outline>
    <contour>
      <point x="173" y="-155" type="line"/>
      <point x="266" y="-155" type="line"/>
      <point x="266" y="-124" type="line"/>
      <point x="297" y="-124" type="line"/>
      <point x="297" y="-93" type="line"/>
      <point x="328" y="-93" type="line"/>
      <point x="328" y="0" type="line"/>
      <point x="235" y="0" type="line"/>
      <point x="235" y="-93" type="line"/>
      <point x="204" y="-93" type="line"/>
      <point x="204" y="-124" type="line"/>
      <point x="173" y="-124" type="line"/>
    </contour>
  </outline>
</glyph>
<glyph name="uni00B9" format="2">
  <advance width="500"/>
  <unicode hex="00B9"/>
  <outline>
    <contour>
      <point x="155" y="434" type="line"/>
      <point x="372" y="434" type="line"/>
      <point x="372" y="496" type="line"/>
      <point x="310" y="496" type="line"/>
      <point x="310" y="713" type="line"/>
      <point x="217" y="713" type="line"/>
      <point x="217" y="682" type="line"/>
      <point x="186" y="682" type="line"/>
      <point x="186" y="651" type="line"/>
      <point x="155" y="651" type="line"/>
      <point x="155" y="620" type="line"/>
      <point x="217" y="620" type="line"/>
      <point x="217" y="496" type="line"/>
      <point x="155" y="496" type="line"/>
    </contour>
  </outline>
</glyph>
<glyph name="ordmasculine" format="2">
  <advance width="500"/>
  <unicode hex="00BA"/>
  <outline>
    <contour>
      <point x="80" y="465" type="line"/>
      <point x="111" y="465" type="line"/>
      <point x="111" y="434" type="line"/>
      <point x="142" y="434" type="line"/>
      <point x="142" y="403" type="line"/>
      <point x="359" y="403" type="line"/>
      <point x="359" y="434" type="line"/>
      <point x="390" y="434" type="line"/>
      <point x="390" y="465" type="line"/>
      <point x="421" y="465" type="line"/>
      <point x="421" y="682" type="line"/>
      <point x="390" y="682" type="line"/>
      <point x="390" y="713" type="line"/>
      <point x="359" y="713" type="line"/>
      <point x="359" y="744" type="line"/>
      <point x="142" y="744" type="line"/>
      <point x="142" y="713" type="line"/>
      <point x="111" y="713" type="line"/>
      <point x="111" y="682" type="line"/>
      <point x="80" y="682" type="line"/>
    </contour>
    <contour>
      <point x="173" y="465" type="line"/>
      <point x="173" y="682" type="line"/>
      <point x="328" y="682" type="line"/>
      <point x="328" y="465" type="line"/>
    </contour>
    <contour>
      <point x="80" y="279" type="line"/>
      <point x="421" y="279" type="line"/>
      <point x="421" y="341" type="line"/>
      <point x="80" y="341" type="line"/>
    </contour>
  </outline>
</glyph>
<glyph name="guillemotright" format="2">
  <advance width="500"/>
  <unicode hex="00BB"/>
  <outline>
    <contour>
      <point x="33" y="0" type="line"/>
      <point x="126" y="0" type="line"/>
      <point x="126" y="31" type="line"/>
      <point x="157" y="31" type="line"/>
      <point x="157" y="62" type="line"/>
      <point x="188" y="62" type="line"/>
      <point x="188" y="93" type="line"/>
      <point x="219" y="93" type="line"/>
      <point x="219" y="124" type="line"/>
      <point x="250" y="124" type="line"/>
      <point x="250" y="155" type="line"/>
      <point x="281" y="155" type="line"/>
      <point x="281" y="186" type="line"/>
      <point x="312" y="186" type="line"/>
      <point x="312" y="248" type="line"/>
      <point x="281" y="248" type="line"/>
      <point x="281" y="279" type="line"/>
      <point x="250" y="279" type="line"/>
      <point x="250" y="310" type="line"/>
      <point x="219" y="310" type="line"/>
      <point x="219" y="341" type="line"/>
      <point x="188" y="341" type="line"/>
      <point x="188" y="372" type="line"/>
      <point x="157" y="372" type="line"/>
      <point x="157" y="403" type="line"/>
      <point x="126" y="403" type="line"/>
      <point x="126" y="434" type="line"/>
      <point x="33" y="434" type="line"/>
      <point x="33" y="403" type="line"/>
      <point x="64" y="403" type="line"/>
      <point x="64" y="372" type="line"/>
      <point x="95" y="372" type="line"/>
      <point x="95" y="341" type="line"/>
      <point x="126" y="341" type="line"/>
      <point x="126" y="310" type="line"/>
      <point x="157" y="310" type="line"/>
      <point x="157" y="279" type="line"/>
      <point x="188" y="279" type="line"/>
      <point x="188" y="248" type="line"/>
      <point x="219" y="248" type="line"/>
      <point x="219" y="186" type="line"/>
      <point x="188" y="186" type="line"/>
      <point x="188" y="155" type="line"/>
      <point x="157" y="155" type="line"/>
      <point x="157" y="124" type="line"/>
      <point x="126" y="124" type="line"/>
      <point x="126" y="93" type="line"/>
      <point x="95" y="93" type="line"/>
      <point x="95" y="62" type="line"/>
      <point x="64" y="62" type="line"/>
      <point x="64" y="31" type="line"/>
      <point x="33" y="31" type="line"/>
    </contour>
    <contour>
      <point x="188" y="0" type="line"/>
      <point x="281" y="0" type="line"/>
      <point x="281" y="31" type="line"/>
      <point x="312" y="31" type="line"/>
      <point x="312" y="62" type="line"/>
      <point x="343" y="62" type="line"/>
      <point x="343" y="93" type="line"/>
      <point x="374" y="93" type="line"/>
      <point x="374" y="124" type="line"/>
      <point x="405" y="124" type="line"/>
      <point x="405" y="155" type="line"/>
      <point x="436" y="155" type="line"/>
      <point x="436" y="186" type="line"/>
      <point x="467" y="186" type="line"/>
      <point x="467" y="248" type="line"/>
      <point x="436" y="248" type="line"/>
      <point x="436" y="279" type="line"/>
      <point x="405" y="279" type="line"/>
      <point x="405" y="310" type="line"/>
      <point x="374" y="310" type="line"/>
      <point x="374" y="341" type="line"/>
      <point x="343" y="341" type="line"/>
      <point x="343" y="372" type="line"/>
      <point x="312" y="372" type="line"/>
      <point x="312" y="403" type="line"/>
      <point x="281" y="403" type="line"/>
      <point x="281" y="434" type="line"/>
      <point x="188" y="434" type="line"/>
      <point x="188" y="403" type="line"/>
      <point x="219" y="403" type="line"/>
      <point x="219" y="372" type="line"/>
      <point x="250" y="372" type="line"/>
      <point x="250" y="341" type="line"/>
      <point x="281" y="341" type="line"/>
      <point x="281" y="310" type="line"/>
      <point x="312" y="310" type="line"/>
      <point x="312" y="279" type="line"/>
      <point x="343" y="279" type="line"/>
      <point x="343" y="248" type="line"/>
      <point x="374" y="248" type="line"/>
      <point x="374" y="186" type="line"/>
      <point x="343" y="186" type="line"/>
      <point x="343" y="155" type="line"/>
      <point x="312" y="155" type="line"/>
      <point x="312" y="124" type="line"/>
      <point x="281" y="124" type="line"/>
      <point x="281" y="93" type="line"/>
      <point x="250" y="93" type="line"/>
      <point x="250" y="62" type="line"/>
      <point x="219" y="62" type="line"/>
      <point x="219" y="31" type="line"/>
      <point x="188" y="31" type="line"/>
    </contour>
  </outline>
</glyph>
<glyph name="onequarter" format="2">
  <advance width="500"/>
  <unicode hex="00BC"/>
  <outline>
    <contour>
      <point x="80" y="527" type="line"/>
      <point x="142" y="527" type="line"/>
      <point x="142" y="341" type="line"/>
      <point x="235" y="341" type="line"/>
      <point x="235" y="620" type="line"/>
      <point x="142" y="620" type="line"/>
      <point x="142" y="589" type="line"/>
      <point x="111" y="589" type="line"/>
      <point x="111" y="558" type="line"/>
      <point x="80" y="558" type="line"/>
    </contour>
    <contour>
      <point x="18" y="31" type="line"/>
      <point x="80" y="31" type="line"/>
      <point x="80" y="62" type="line"/>
      <point x="111" y="62" type="line"/>
      <point x="111" y="93" type="line"/>
      <point x="142" y="93" type="line"/>
      <point x="142" y="124" type="line"/>
      <point x="173" y="124" type="line"/>
      <point x="173" y="155" type="line"/>
      <point x="204" y="155" type="line"/>
      <point x="204" y="186" type="line"/>
      <point x="235" y="186" type="line"/>
      <point x="235" y="217" type="line"/>
      <point x="266" y="217" type="line"/>
      <point x="266" y="248" type="line"/>
      <point x="297" y="248" type="line"/>
      <point x="297" y="279" type="line"/>
      <point x="328" y="279" type="line"/>
      <point x="328" y="310" type="line"/>
      <point x="359" y="310" type="line"/>
      <point x="359" y="341" type="line"/>
      <point x="390" y="341" type="line"/>
      <point x="390" y="372" type="line"/>
      <point x="421" y="372" type="line"/>
      <point x="421" y="403" type="line"/>
      <point x="452" y="403" type="line"/>
      <point x="452" y="434" type="line"/>
      <point x="483" y="434" type="line"/>
      <point x="483" y="496" type="line"/>
      <point x="421" y="496" type="line"/>
      <point x="421" y="465" type="line"/>
      <point x="390" y="465" type="line"/>
      <point x="390" y="434" type="line"/>
      <point x="359" y="434" type="line"/>
      <point x="359" y="403" type="line"/>
      <point x="328" y="403" type="line"/>
      <point x="328" y="372" type="line"/>
      <point x="297" y="372" type="line"/>
      <point x="297" y="341" type="line"/>
      <point x="266" y="341" type="line"/>
      <point x="266" y="310" type="line"/>
      <point x="235" y="310" type="line"/>
      <point x="235" y="279" type="line"/>
      <point x="204" y="279" type="line"/>
      <point x="204" y="248" type="line"/>
      <point x="173" y="248" type="line"/>
      <point x="173" y="217" type="line"/>
      <point x="142" y="217" type="line"/>
      <point x="142" y="186" type="line"/>
      <point x="111" y="186" type="line"/>
      <point x="111" y="155" type="line"/>
      <point x="80" y="155" type="line"/>
      <point x="80" y="124" type="line"/>
      <point x="49" y="124" type="line"/>
      <point x="49" y="93" type="line"/>
      <point x="18" y="93" type="line"/>
    </contour>
    <contour>
      <point x="204" y="62" type="line"/>
      <point x="390" y="62" type="line"/>
      <point x="390" y="0" type="line"/>
      <point x="483" y="0" type="line"/>
      <point x="483" y="310" type="line"/>
      <point x="390" y="310" type="line"/>
      <point x="390" y="279" type="line"/>
      <point x="359" y="279" type="line"/>
      <point x="359" y="248" type="line"/>
      <point x="328" y="248" type="line"/>
      <point x="328" y="217" type="line"/>
      <point x="297" y="217" type="line"/>
      <point x="297" y="186" type="line"/>
      <point x="266" y="186" type="line"/>
      <point x="266" y="155" type="line"/>
      <point x="235" y="155" type="line"/>
      <point x="235" y="124" type="line"/>
      <point x="204" y="124" type="line"/>
    </contour>
    <contour>
      <point x="328" y="124" type="line"/>
      <point x="328" y="155" type="line"/>
      <point x="358.667" y="155" type="line"/>
      <point x="358.667" y="186" type="line"/>
      <point x="390" y="186" type="line"/>
      <point x="390" y="217" type="line"/>
      <point x="390" y="217" type="line"/>
      <point x="390" y="124" type="line"/>
    </contour>
  </outline>
</glyph>
<glyph name="onehalf" format="2">
  <advance width="500"/>
  <unicode hex="00BD"/>
  <outline>
    <contour>
      <point x="111" y="341" type="line"/>
      <point x="204" y="341" type="line"/>
      <point x="204" y="620" type="line"/>
      <point x="111" y="620" type="line"/>
      <point x="111" y="589" type="line"/>
      <point x="80" y="589" type="line"/>
      <point x="80" y="558" type="line"/>
      <point x="49" y="558" type="line"/>
      <point x="49" y="527" type="line"/>
      <point x="111" y="527" type="line"/>
    </contour>
    <contour>
      <point x="18" y="93" type="line"/>
      <point x="80" y="93" type="line"/>
      <point x="80" y="124" type="line"/>
      <point x="111" y="124" type="line"/>
      <point x="111" y="155" type="line"/>
      <point x="142" y="155" type="line"/>
      <point x="142" y="186" type="line"/>
      <point x="173" y="186" type="line"/>
      <point x="173" y="217" type="line"/>
      <point x="204" y="217" type="line"/>
      <point x="204" y="248" type="line"/>
      <point x="235" y="248" type="line"/>
      <point x="235" y="279" type="line"/>
      <point x="266" y="279" type="line"/>
      <point x="266" y="310" type="line"/>
      <point x="297" y="310" type="line"/>
      <point x="297" y="341" type="line"/>
      <point x="328" y="341" type="line"/>
      <point x="328" y="372" type="line"/>
      <point x="359" y="372" type="line"/>
      <point x="359" y="403" type="line"/>
      <point x="390" y="403" type="line"/>
      <point x="390" y="434" type="line"/>
      <point x="421" y="434" type="line"/>
      <point x="421" y="465" type="line"/>
      <point x="452" y="465" type="line"/>
      <point x="452" y="496" type="line"/>
      <point x="483" y="496" type="line"/>
      <point x="483" y="558" type="line"/>
      <point x="421" y="558" type="line"/>
      <point x="421" y="527" type="line"/>
      <point x="390" y="527" type="line"/>
      <point x="390" y="496" type="line"/>
      <point x="359" y="496" type="line"/>
      <point x="359" y="465" type="line"/>
      <point x="328" y="465" type="line"/>
      <point x="328" y="434" type="line"/>
      <point x="297" y="434" type="line"/>
      <point x="297" y="403" type="line"/>
      <point x="266" y="403" type="line"/>
      <point x="266" y="372" type="line"/>
      <point x="235" y="372" type="line"/>
      <point x="235" y="341" type="line"/>
      <point x="204" y="341" type="line"/>
      <point x="204" y="310" type="line"/>
      <point x="173" y="310" type="line"/>
      <point x="173" y="279" type="line"/>
      <point x="142" y="279" type="line"/>
      <point x="142" y="248" type="line"/>
      <point x="111" y="248" type="line"/>
      <point x="111" y="217" type="line"/>
      <point x="80" y="217" type="line"/>
      <point x="80" y="186" type="line"/>
      <point x="49" y="186" type="line"/>
      <point x="49" y="155" type="line"/>
      <point x="18" y="155" type="line"/>
    </contour>
    <contour>
      <point x="235" y="0" type="line"/>
      <point x="483" y="0" type="line"/>
      <point x="483" y="62" type="line"/>
      <point x="390" y="62" type="line"/>
      <point x="390" y="93" type="line"/>
      <point x="421" y="93" type="line"/>
      <point x="421" y="124" type="line"/>
      <point x="452" y="124" type="line"/>
      <point x="452" y="155" type="line"/>
      <point x="483" y="155" type="line"/>
      <point x="483" y="248" type="line"/>
      <point x="452" y="248" type="line"/>
      <point x="452" y="279" type="line"/>
      <point x="266" y="279" type="line"/>
      <point x="266" y="248" type="line"/>
      <point x="235" y="248" type="line"/>
      <point x="235" y="155" type="line"/>
      <point x="328" y="155" type="line"/>
      <point x="328" y="217" type="line"/>
      <point x="390" y="217" type="line"/>
      <point x="390" y="155" type="line"/>
      <point x="359" y="155" type="line"/>
      <point x="359" y="124" type="line"/>
      <point x="328" y="124" type="line"/>
      <point x="328" y="93" type="line"/>
      <point x="297" y="93" type="line"/>
      <point x="297" y="62" type="line"/>
      <point x="266" y="62" type="line"/>
      <point x="266" y="31" type="line"/>
      <point x="235" y="31" type="line"/>
    </contour>
  </outline>
</glyph>
<glyph name="questiondown" format="2">
  <advance width="500"/>
  <unicode hex="00BF"/>
  <outline>
    <contour>
      <point x="204" y="496" type="line"/>
      <point x="297" y="496" type="line"/>
      <point x="297" y="620" type="line"/>
      <point x="204" y="620" type="line"/>
    </contour>
    <contour>
      <point x="49" y="62" type="line"/>
      <point x="80" y="62" type="line"/>
      <point x="80" y="31" type="line"/>
      <point x="111" y="31" type="line"/>
      <point x="111" y="0" type="line"/>
      <point x="390" y="0" type="line"/>
      <point x="390" y="31" type="line"/>
      <point x="421" y="31" type="line"/>
      <point x="421" y="62" type="line"/>
      <point x="452" y="62" type="line"/>
      <point x="452" y="217" type="line"/>
      <point x="359" y="217" type="line"/>
      <point x="359" y="62" type="line"/>
      <point x="142" y="62" type="line"/>
      <point x="142" y="217" type="line"/>
      <point x="173" y="217" type="line"/>
      <point x="173" y="248" type="line"/>
      <point x="204" y="248" type="line"/>
      <point x="204" y="279" type="line"/>
      <point x="235" y="279" type="line"/>
      <point x="235" y="310" type="line"/>
      <point x="266" y="310" type="line"/>
      <point x="266" y="341" type="line"/>
      <point x="297" y="341" type="line"/>
      <point x="297" y="434" type="line"/>
      <point x="204" y="434" type="line"/>
      <point x="204" y="341" type="line"/>
      <point x="173" y="341" type="line"/>
      <point x="173" y="310" type="line"/>
      <point x="142" y="310" type="line"/>
      <point x="142" y="279" type="line"/>
      <point x="111" y="279" type="line"/>
      <point x="111" y="248" type="line"/>
      <point x="80" y="248" type="line"/>
      <point x="80" y="217" type="line"/>
      <point x="49" y="217" type="line"/>
    </contour>
  </outline>
</glyph>
<glyph name="Aring" format="2">
  <advance width="500"/>
  <unicode hex="00C5"/>
  <outline>
    <contour>
      <point x="49" y="0" type="line"/>
      <point x="142" y="0" type="line"/>
      <point x="142" y="248" type="line"/>
      <point x="359" y="248" type="line"/>
      <point x="359" y="0" type="line"/>
      <point x="452" y="0" type="line"/>
      <point x="452" y="558" type="line"/>
      <point x="421" y="558" type="line"/>
      <point x="421" y="589" type="line"/>
      <point x="390" y="589" type="line"/>
      <point x="390" y="620" type="line"/>
      <point x="328" y="620" type="line"/>
      <point x="328" y="651" type="line"/>
      <point x="359" y="651" type="line"/>
      <point x="359" y="744" type="line"/>
      <point x="328" y="744" type="line"/>
      <point x="328" y="775" type="line"/>
      <point x="173" y="775" type="line"/>
      <point x="173" y="744" type="line"/>
      <point x="142" y="744" type="line"/>
      <point x="142" y="651" type="line"/>
      <point x="173" y="651" type="line"/>
      <point x="173" y="620" type="line"/>
      <point x="111" y="620" type="line"/>
      <point x="111" y="589" type="line"/>
      <point x="80" y="589" type="line"/>
      <point x="80" y="558" type="line"/>
      <point x="49" y="558" type="line"/>
    </contour>
    <contour>
      <point x="235" y="651" type="line"/>
      <point x="235" y="744" type="line"/>
      <point x="266" y="744" type="line"/>
      <point x="266" y="651" type="line"/>
    </contour>
    <contour>
      <point x="142" y="310" type="line"/>
      <point x="142" y="558" type="line"/>
      <point x="359" y="558" type="line"/>
      <point x="359" y="310" type="line"/>
    </contour>
  </outline>
</glyph>
<glyph name="AE" format="2">
  <advance width="500"/>
  <unicode hex="00C6"/>
  <outline>
    <contour>
      <point x="2" y="0" type="line"/>
      <point x="95" y="0" type="line"/>
      <point x="95" y="279" type="line"/>
      <point x="219" y="279" type="line"/>
      <point x="219" y="0" type="line"/>
      <point x="498" y="0" type="line"/>
      <point x="498" y="62" type="line"/>
      <point x="312" y="62" type="line"/>
      <point x="312" y="279" type="line"/>
      <point x="467" y="279" type="line"/>
      <point x="467" y="341" type="line"/>
      <point x="312" y="341" type="line"/>
      <point x="312" y="558" type="line"/>
      <point x="498" y="558" type="line"/>
      <point x="498" y="620" type="line"/>
      <point x="64" y="620" type="line"/>
      <point x="64" y="589" type="line"/>
      <point x="33" y="589" type="line"/>
      <point x="33" y="558" type="line"/>
      <point x="2" y="558" type="line"/>
    </contour>
    <contour>
      <point x="95" y="341" type="line"/>
      <point x="95" y="558" type="line"/>
      <point x="219" y="558" type="line"/>
      <point x="219" y="341" type="line"/>
    </contour>
  </outline>
</glyph>
<glyph name="Eth" format="2">
  <advance width="500"/>
  <unicode hex="00D0"/>
  <outline>
    <contour>
      <point x="64" y="0" type="line"/>
      <point x="374" y="0" type="line"/>
      <point x="374" y="31" type="line"/>
      <point x="405" y="31" type="line"/>
      <point x="405" y="62" type="line"/>
      <point x="436" y="62" type="line"/>
      <point x="436" y="93" type="line"/>
      <point x="467" y="93" type="line"/>
      <point x="467" y="527" type="line"/>
      <point x="436" y="527" type="line"/>
      <point x="436" y="558" type="line"/>
      <point x="405" y="558" type="line"/>
      <point x="405" y="589" type="line"/>
      <point x="374" y="589" type="line"/>
      <point x="374" y="620" type="line"/>
      <point x="64" y="620" type="line"/>
      <point x="64" y="341" type="line"/>
      <point x="33" y="341" type="line"/>
      <point x="33" y="279" type="line"/>
      <point x="64" y="279" type="line"/>
    </contour>
    <contour>
      <point x="157" y="62" type="line"/>
      <point x="157" y="279" type="line"/>
      <point x="312" y="279" type="line"/>
      <point x="312" y="341" type="line"/>
      <point x="157" y="341" type="line"/>
      <point x="157" y="558" type="line"/>
      <point x="343" y="558" type="line"/>
      <point x="343" y="527" type="line"/>
      <point x="374" y="527" type="line"/>
      <point x="374" y="93" type="line"/>
      <point x="343" y="93" type="line"/>
      <point x="343" y="62" type="line"/>
    </contour>
  </outline>
</glyph>
<glyph name="multiply" format="2">
  <advance width="500"/>
  <unicode hex="00D7"/>
  <outline>
    <contour>
      <point x="33" y="124" type="line"/>
      <point x="126" y="124" type="line"/>
      <point x="126" y="155" type="line"/>
      <point x="157" y="155" type="line"/>
      <point x="157" y="186" type="line"/>
      <point x="188" y="186" type="line"/>
      <point x="188" y="217" type="line"/>
      <point x="219" y="217" type="line"/>
      <point x="219" y="248" type="line"/>
      <point x="281" y="248" type="line"/>
      <point x="281" y="217" type="line"/>
      <point x="312" y="217" type="line"/>
      <point x="312" y="186" type="line"/>
      <point x="343" y="186" type="line"/>
      <point x="343" y="155" type="line"/>
      <point x="374" y="155" type="line"/>
      <point x="374" y="124" type="line"/>
      <point x="467" y="124" type="line"/>
      <point x="467" y="155" type="line"/>
      <point x="436" y="155" type="line"/>
      <point x="436" y="186" type="line"/>
      <point x="405" y="186" type="line"/>
      <point x="405" y="217" type="line"/>
      <point x="374" y="217" type="line"/>
      <point x="374" y="248" type="line"/>
      <point x="343" y="248" type="line"/>
      <point x="343" y="279" type="line"/>
      <point x="312" y="279" type="line"/>
      <point x="312" y="341" type="line"/>
      <point x="343" y="341" type="line"/>
      <point x="343" y="372" type="line"/>
      <point x="374" y="372" type="line"/>
      <point x="374" y="403" type="line"/>
      <point x="405" y="403" type="line"/>
      <point x="405" y="434" type="line"/>
      <point x="436" y="434" type="line"/>
      <point x="436" y="465" type="line"/>
      <point x="467" y="465" type="line"/>
      <point x="467" y="496" type="line"/>
      <point x="374" y="496" type="line"/>
      <point x="374" y="465" type="line"/>
      <point x="343" y="465" type="line"/>
      <point x="343" y="434" type="line"/>
      <point x="312" y="434" type="line"/>
      <point x="312" y="403" type="line"/>
      <point x="281" y="403" type="line"/>
      <point x="281" y="372" type="line"/>
      <point x="219" y="372" type="line"/>
      <point x="219" y="403" type="line"/>
      <point x="188" y="403" type="line"/>
      <point x="188" y="434" type="line"/>
      <point x="157" y="434" type="line"/>
      <point x="157" y="465" type="line"/>
      <point x="126" y="465" type="line"/>
      <point x="126" y="496" type="line"/>
      <point x="33" y="496" type="line"/>
      <point x="33" y="465" type="line"/>
      <point x="64" y="465" type="line"/>
      <point x="64" y="434" type="line"/>
      <point x="95" y="434" type="line"/>
      <point x="95" y="403" type="line"/>
      <point x="126" y="403" type="line"/>
      <point x="126" y="372" type="line"/>
      <point x="157" y="372" type="line"/>
      <point x="157" y="341" type="line"/>
      <point x="188" y="341" type="line"/>
      <point x="188" y="279" type="line"/>
      <point x="157" y="279" type="line"/>
      <point x="157" y="248" type="line"/>
      <point x="126" y="248" type="line"/>
      <point x="126" y="217" type="line"/>
      <point x="95" y="217" type="line"/>
      <point x="95" y="186" type="line"/>
      <point x="64" y="186" type="line"/>
      <point x="64" y="155" type="line"/>
      <point x="33" y="155" type="line"/>
    </contour>
  </outline>
</glyph>
<glyph name="Oslash" format="2">
  <advance width="500"/>
  <unicode hex="00D8"/>
  <outline>
    <contour>
      <point x="49" y="62" type="line"/>
      <point x="80" y="62" type="line"/>
      <point x="80" y="31" type="line"/>
      <point x="111" y="31" type="line"/>
      <point x="111" y="0" type="line"/>
      <point x="390" y="0" type="line"/>
      <point x="390" y="31" type="line"/>
      <point x="421" y="31" type="line"/>
      <point x="421" y="62" type="line"/>
      <point x="452" y="62" type="line"/>
      <point x="452" y="496" type="line"/>
      <point x="483" y="496" type="line"/>
      <point x="483" y="527" type="line"/>
      <point x="452" y="527" type="line"/>
      <point x="452" y="558" type="line"/>
      <point x="421" y="558" type="line"/>
      <point x="421" y="589" type="line"/>
      <point x="390" y="589" type="line"/>
      <point x="390" y="620" type="line"/>
      <point x="111" y="620" type="line"/>
      <point x="111" y="589" type="line"/>
      <point x="80" y="589" type="line"/>
      <point x="80" y="558" type="line"/>
      <point x="49" y="558" type="line"/>
      <point x="49" y="155" type="line"/>
      <point x="18" y="155" type="line"/>
      <point x="18" y="124" type="line"/>
      <point x="49" y="124" type="line"/>
    </contour>
    <contour>
      <point x="142" y="269" type="line"/>
      <point x="142" y="558" type="line"/>
      <point x="359" y="558" type="line"/>
      <point x="359" y="486" type="line"/>
      <point x="359" y="486" type="line"/>
      <point x="359" y="455" type="line"/>
      <point x="328" y="455" type="line"/>
      <point x="328" y="424" type="line"/>
      <point x="296.5" y="424" type="line"/>
      <point x="296.5" y="393" type="line"/>
      <point x="266" y="393" type="line"/>
      <point x="266" y="362" type="line"/>
      <point x="235" y="362" type="line"/>
      <point x="235" y="331" type="line"/>
      <point x="204" y="331" type="line"/>
      <point x="204" y="300" type="line"/>
      <point x="173" y="300" type="line"/>
      <point x="173" y="269" type="line"/>
    </contour>
    <contour>
      <point x="142" y="62" type="line"/>
      <point x="142" y="165" type="line"/>
      <point x="173" y="165" type="line"/>
      <point x="173" y="196" type="line"/>
      <point x="204" y="196" type="line"/>
      <point x="204" y="227" type="line"/>
      <point x="235" y="227" type="line"/>
      <point x="235" y="258" type="line"/>
      <point x="265.5" y="258" type="line"/>
      <point x="265.5" y="289" type="line"/>
      <point x="297" y="289" type="line"/>
      <point x="297" y="320" type="line"/>
      <point x="328" y="320" type="line"/>
      <point x="328" y="351" type="line"/>
      <point x="359" y="351" type="line"/>
      <point x="359" y="382" type="line"/>
      <point x="359" y="382" type="line"/>
      <point x="359" y="62" type="line"/>
    </contour>
  </outline>
</glyph>
<glyph name="Thorn" format="2">
  <advance width="500"/>
  <unicode hex="00DE"/>
  <outline>
    <contour>
      <point x="49" y="-31" type="line"/>
      <point x="142" y="-31" type="line"/>
      <point x="142" y="93" type="line"/>
      <point x="390" y="93" type="line"/>
      <point x="390" y="124" type="line"/>
      <point x="421" y="124" type="line"/>
      <point x="421" y="155" type="line"/>
      <point x="452" y="155" type="line"/>
      <point x="452" y="434" type="line"/>
      <point x="421" y="434" type="line"/>
      <point x="421" y="465" type="line"/>
      <point x="390" y="465" type="line"/>
      <point x="390" y="496" type="line"/>
      <point x="142" y="496" type="line"/>
      <point x="142" y="620" type="line"/>
      <point x="49" y="620" type="line"/>
    </contour>
    <contour>
      <point x="142" y="155" type="line"/>
      <point x="142" y="434" type="line"/>
      <point x="359" y="434" type="line"/>
      <point x="359" y="155" type="line"/>
    </contour>
  </outline>
</glyph>
<glyph name="germandbls" format="2">
  <advance width="500"/>
  <unicode hex="00DF"/>
  <outline>
    <contour>
      <point x="49" y="0" type="line"/>
      <point x="142" y="0" type="line"/>
      <point x="142" y="61.9367" type="line"/>
      <point x="142.177" y="62.3152" type="line"/>
      <point x="141.508" y="31" type="line"/>
      <point x="173" y="31" type="line"/>
      <point x="173" y="0" type="line"/>
      <point x="390" y="0" type="line"/>
      <point x="390" y="31" type="line"/>
      <point x="421" y="31" type="line"/>
      <point x="421" y="62" type="line"/>
      <point x="452" y="62" type="line"/>
      <point x="452" y="310" type="line"/>
      <point x="421" y="310" type="line"/>
      <point x="421" y="341" type="line"/>
      <point x="390" y="341" type="line"/>
      <point x="390" y="372" type="line"/>
      <point x="359" y="372" type="line"/>
      <point x="359" y="403" type="line"/>
      <point x="390" y="403" type="line"/>
      <point x="390" y="434" type="line"/>
      <point x="421" y="434" type="line"/>
      <point x="421" y="558" type="line"/>
      <point x="390" y="558" type="line"/>
      <point x="390" y="589" type="line"/>
      <point x="359" y="589" type="line"/>
      <point x="359" y="620" type="line"/>
      <point x="80" y="620" type="line"/>
      <point x="80" y="589" type="line"/>
      <point x="49" y="589" type="line"/>
    </contour>
    <contour>
      <point x="142" y="403" type="line"/>
      <point x="142" y="558" type="line"/>
      <point x="328" y="558" type="line"/>
      <point x="328" y="434" type="line"/>
      <point x="297" y="434" type="line"/>
      <point x="297" y="403" type="line"/>
    </contour>
    <contour>
      <point x="142" y="124" type="line"/>
      <point x="142" y="341" type="line"/>
      <point x="328" y="341" type="line"/>
      <point x="328" y="310" type="line"/>
      <point x="359" y="310" type="line"/>
      <point x="359" y="62" type="line"/>
      <point x="204" y="62" type="line"/>
      <point x="204" y="93" type="line"/>
      <point x="173" y="93" type="line"/>
      <point x="173" y="124" type="line"/>
    </contour>
  </outline>
</glyph>
<glyph name="aring" format="2">
  <advance width="500"/>
  <unicode hex="00E5"/>
  <outline>
    <contour>
      <point x="142" y="496" type="line"/>
      <point x="173" y="496" type="line"/>
      <point x="173" y="465" type="line"/>
      <point x="328" y="465" type="line"/>
      <point x="328" y="496" type="line"/>
      <point x="359" y="496" type="line"/>
      <point x="359" y="589" type="line"/>
      <point x="328" y="589" type="line"/>
      <point x="328" y="620" type="line"/>
      <point x="173" y="620" type="line"/>
      <point x="173" y="589" type="line"/>
      <point x="142" y="589" type="line"/>
    </contour>
    <contour>
      <point x="235" y="496" type="line"/>
      <point x="235" y="589" type="line"/>
      <point x="266" y="589" type="line"/>
      <point x="266" y="496" type="line"/>
    </contour>
    <contour>
      <point x="49" y="62" type="line"/>
      <point x="80" y="62" type="line"/>
      <point x="80" y="31" type="line"/>
      <point x="111" y="31" type="line"/>
      <point x="111" y="0" type="line"/>
      <point x="452" y="0" type="line"/>
      <point x="452" y="372" type="line"/>
      <point x="421" y="372" type="line"/>
      <point x="421" y="403" type="line"/>
      <point x="390" y="403" type="line"/>
      <point x="390" y="434" type="line"/>
      <point x="80" y="434" type="line"/>
      <point x="80" y="372" type="line"/>
      <point x="359" y="372" type="line"/>
      <point x="359" y="279" type="line"/>
      <point x="111" y="279" type="line"/>
      <point x="111" y="248" type="line"/>
      <point x="80" y="248" type="line"/>
      <point x="80" y="217" type="line"/>
      <point x="49" y="217" type="line"/>
    </contour>
    <contour>
      <point x="142" y="62" type="line"/>
      <point x="142" y="217" type="line"/>
      <point x="359" y="217" type="line"/>
      <point x="359" y="62" type="line"/>
    </contour>
  </outline>
</glyph>
<glyph name="ae" format="2">
  <advance width="500"/>
  <unicode hex="00E6"/>
  <outline>
    <contour>
      <point x="18" y="62" type="line"/>
      <point x="49" y="62" type="line"/>
      <point x="49" y="31" type="line"/>
      <point x="80" y="31" type="line"/>
      <point x="80" y="0" type="line"/>
      <point x="251.692" y="0" type="line"/>
      <point x="251.692" y="31" type="line"/>
      <point x="280.308" y="31" type="line"/>
      <point x="280.308" y="0" type="line"/>
      <point x="452" y="0" type="line"/>
      <point x="452" y="31" type="line"/>
      <point x="483" y="31" type="line"/>
      <point x="483" y="93" type="line"/>
      <point x="390" y="93" type="line"/>
      <point x="390" y="62" type="line"/>
      <point x="297" y="62" type="line"/>
      <point x="297" y="186" type="line"/>
      <point x="483" y="186" type="line"/>
      <point x="483" y="372" type="line"/>
      <point x="452" y="372" type="line"/>
      <point x="452" y="403" type="line"/>
      <point x="421" y="403" type="line"/>
      <point x="421" y="434" type="line"/>
      <point x="249.308" y="434" type="line"/>
      <point x="249.308" y="403" type="line"/>
      <point x="220.692" y="403" type="line"/>
      <point x="220.692" y="434" type="line"/>
      <point x="49" y="434" type="line"/>
      <point x="49" y="372" type="line"/>
      <point x="204" y="372" type="line"/>
      <point x="204" y="279" type="line"/>
      <point x="80" y="279" type="line"/>
      <point x="80" y="248" type="line"/>
      <point x="49" y="248" type="line"/>
      <point x="49" y="217" type="line"/>
      <point x="18" y="217" type="line"/>
    </contour>
    <contour>
      <point x="297" y="248" type="line"/>
      <point x="297" y="372" type="line"/>
      <point x="390" y="372" type="line"/>
      <point x="390" y="248" type="line"/>
    </contour>
    <contour>
      <point x="111" y="62" type="line"/>
      <point x="111" y="217" type="line"/>
      <point x="204" y="217" type="line"/>
      <point x="204" y="62" type="line"/>
    </contour>
  </outline>
</glyph>
<glyph name="eth" format="2">
  <advance width="500"/>
  <unicode hex="00F0"/>
  <outline>
    <contour>
      <point x="49" y="62" type="line"/>
      <point x="80" y="62" type="line"/>
      <point x="80" y="31" type="line"/>
      <point x="111" y="31" type="line"/>
      <point x="111" y="0" type="line"/>
      <point x="390" y="0" type="line"/>
      <point x="390" y="31" type="line"/>
      <point x="421" y="31" type="line"/>
      <point x="421" y="62" type="line"/>
      <point x="452" y="62" type="line"/>
      <point x="452" y="372" type="line"/>
      <point x="421" y="372" type="line"/>
      <point x="421" y="403" type="line"/>
      <point x="390" y="403" type="line"/>
      <point x="390" y="434" type="line"/>
      <point x="359" y="434" type="line"/>
      <point x="359" y="465" type="line"/>
      <point x="328" y="465" type="line"/>
      <point x="328" y="496" type="line"/>
      <point x="297" y="496" type="line"/>
      <point x="297" y="527" type="line"/>
      <point x="266" y="527" type="line"/>
      <point x="266" y="558" type="line"/>
      <point x="297" y="558" type="line"/>
      <point x="297" y="589" type="line"/>
      <point x="328" y="589" type="line"/>
      <point x="328" y="620" type="line"/>
      <point x="235" y="620" type="line"/>
      <point x="235" y="589" type="line"/>
      <point x="204" y="589" type="line"/>
      <point x="204" y="620" type="line"/>
      <point x="111" y="620" type="line"/>
      <point x="111" y="589" type="line"/>
      <point x="142" y="589" type="line"/>
      <point x="142" y="558" type="line"/>
      <point x="111" y="558" type="line"/>
      <point x="111" y="527" type="line"/>
      <point x="80" y="527" type="line"/>
      <point x="80" y="496" type="line"/>
      <point x="173" y="496" type="line"/>
      <point x="173" y="527" type="line"/>
      <point x="204" y="527" type="line"/>
      <point x="204" y="496" type="line"/>
      <point x="235" y="496" type="line"/>
      <point x="235" y="465" type="line"/>
      <point x="266" y="465" type="line"/>
      <point x="266" y="434" type="line"/>
      <point x="111" y="434" type="line"/>
      <point x="111" y="403" type="line"/>
      <point x="80" y="403" type="line"/>
      <point x="80" y="372" type="line"/>
      <point x="49" y="372" type="line"/>
    </contour>
    <contour>
      <point x="142" y="62" type="line"/>
      <point x="142" y="372" type="line"/>
      <point x="359" y="372" type="line"/>
      <point x="359" y="62" type="line"/>
    </contour>
  </outline>
</glyph>
<glyph name="divide" format="2">
  <advance width="500"/>
  <unicode hex="00F7"/>
  <outline>
    <contour>
      <point x="204" y="403" type="line"/>
      <point x="297" y="403" type="line"/>
      <point x="297" y="527" type="line"/>
      <point x="204" y="527" type="line"/>
    </contour>
    <contour>
      <point x="49" y="279" type="line"/>
      <point x="452" y="279" type="line"/>
      <point x="452" y="341" type="line"/>
      <point x="49" y="341" type="line"/>
    </contour>
    <contour>
      <point x="204" y="93" type="line"/>
      <point x="297" y="93" type="line"/>
      <point x="297" y="217" type="line"/>
      <point x="204" y="217" type="line"/>
    </contour>
  </outline>
</glyph>
<glyph name="oslash" format="2">
  <advance width="500"/>
  <unicode hex="00F8"/>
  <outline>
    <contour>
      <point x="18" y="0" type="line"/>
      <point x="18" y="0" type="line"/>
      <point x="80" y="0" type="line"/>
      <point x="80" y="31" type="line"/>
      <point x="111" y="31" type="line"/>
      <point x="111" y="0" type="line"/>
      <point x="390" y="0" type="line"/>
      <point x="390" y="31" type="line"/>
      <point x="421" y="31" type="line"/>
      <point x="421" y="62" type="line"/>
      <point x="452" y="62" type="line"/>
      <point x="452" y="403" type="line"/>
      <point x="483" y="403" type="line"/>
      <point x="483" y="434" type="line"/>
      <point x="421" y="434" type="line"/>
      <point x="421" y="434" type="line"/>
      <point x="390" y="434" type="line"/>
      <point x="390" y="434" type="line"/>
      <point x="111" y="434" type="line"/>
      <point x="111" y="403" type="line"/>
      <point x="80" y="403" type="line"/>
      <point x="80" y="372" type="line"/>
      <point x="49" y="372" type="line"/>
      <point x="49" y="62" type="line"/>
      <point x="18" y="62" type="line"/>
      <point x="18" y="31" type="line"/>
    </contour>
    <contour>
      <point x="142" y="186" type="line"/>
      <point x="142" y="372" type="line"/>
      <point x="328" y="372" type="line"/>
      <point x="328" y="341" type="line"/>
      <point x="297" y="341" type="line"/>
      <point x="297" y="310" type="line"/>
      <point x="266" y="310" type="line"/>
      <point x="266" y="279" type="line"/>
      <point x="250.5" y="279" type="line"/>
      <point x="250.5" y="279" type="line"/>
      <point x="235" y="279" type="line"/>
      <point x="235" y="248" type="line"/>
      <point x="204" y="248" type="line"/>
      <point x="204" y="217" type="line"/>
      <point x="173" y="217" type="line"/>
      <point x="173" y="186" type="line"/>
    </contour>
    <contour>
      <point x="142" y="62" type="line"/>
      <point x="142" y="93" type="line"/>
      <point x="173" y="93" type="line"/>
      <point x="173" y="124" type="line"/>
      <point x="204" y="124" type="line"/>
      <point x="204" y="155" type="line"/>
      <point x="235" y="155" type="line"/>
      <point x="235" y="186" type="line"/>
      <point x="250.5" y="186" type="line"/>
      <point x="250.5" y="186" type="line"/>
      <point x="266" y="186" type="line"/>
      <point x="266" y="217" type="line"/>
      <point x="297" y="217" type="line"/>
      <point x="297" y="248" type="line"/>
      <point x="328" y="248" type="line"/>
      <point x="328" y="279" type="line"/>
      <point x="359" y="279" type="line"/>
      <point x="359" y="62" type="line"/>
    </contour>
  </outline>
</glyph>
<glyph name="thorn" format="2">
  <advance width="500"/>
  <unicode hex="00FE"/>
  <outline>
    <contour>
      <point x="49" y="-155" type="line"/>
      <point x="142" y="-155" type="line"/>
      <point x="142" y="0" type="line"/>
      <point x="390" y="0" type="line"/>
      <point x="390" y="31" type="line"/>
      <point x="421" y="31" type="line"/>
      <point x="421" y="62" type="line"/>
      <point x="452" y="62" type="line"/>
      <point x="452" y="310" type="line"/>
      <point x="421" y="310" type="line"/>
      <point x="421" y="341" type="line"/>
      <point x="390" y="341" type="line"/>
      <point x="390" y="372" type="line"/>
      <point x="142" y="372" type="line"/>
      <point x="142" y="620" type="line"/>
      <point x="49" y="620" type="line"/>
    </contour>
    <contour>
      <point x="142" y="62" type="line"/>
      <point x="142" y="310" type="line"/>
      <point x="359" y="310" type="line"/>
      <point x="359" y="62" type="line"/>
    </contour>
  </outline>
</glyph>
<glyph name="Aogonek" format="2">
  <advance width="500"/>
  <unicode hex="0104"/>
  <outline>
    <contour>
      <point x="49" y="0" type="line"/>
      <point x="142" y="0" type="line"/>
      <point x="142" y="248" type="line"/>
      <point x="359" y="248" type="line"/>
      <point x="359" y="0" type="line"/>
      <point x="297" y="0" type="line"/>
      <point x="297" y="-31" type="line"/>
      <point x="266" y="-31" type="line"/>
      <point x="266" y="-124" type="line"/>
      <point x="297" y="-124" type="line"/>
      <point x="297" y="-155" type="line"/>
      <point x="452" y="-155" type="line"/>
      <point x="452" y="-93" type="line"/>
      <point x="359" y="-93" type="line"/>
      <point x="359" y="-62" type="line"/>
      <point x="390" y="-62" type="line"/>
      <point x="390" y="-31" type="line"/>
      <point x="452" y="-31" type="line"/>
      <point x="452" y="558" type="line"/>
      <point x="421" y="558" type="line"/>
      <point x="421" y="589" type="line"/>
      <point x="390" y="589" type="line"/>
      <point x="390" y="620" type="line"/>
      <point x="111" y="620" type="line"/>
      <point x="111" y="589" type="line"/>
      <point x="80" y="589" type="line"/>
      <point x="80" y="558" type="line"/>
      <point x="49" y="558" type="line"/>
    </contour>
    <contour>
      <point x="142" y="310" type="line"/>
      <point x="142" y="558" type="line"/>
      <point x="359" y="558" type="line"/>
      <point x="359" y="310" type="line"/>
    </contour>
  </outline>
</glyph>
<glyph name="aogonek" format="2">
  <advance width="500"/>
  <unicode hex="0105"/>
  <outline>
    <contour>
      <point x="80" y="31" type="line"/>
      <point x="111" y="31" type="line"/>
      <point x="111" y="0" type="line"/>
      <point x="297" y="0" type="line"/>
      <point x="297" y="-31" type="line"/>
      <point x="266" y="-31" type="line"/>
      <point x="266" y="-124" type="line"/>
      <point x="297" y="-124" type="line"/>
      <point x="297" y="-155" type="line"/>
      <point x="452" y="-155" type="line"/>
      <point x="452" y="-93" type="line"/>
      <point x="359" y="-93" type="line"/>
      <point x="359" y="-62" type="line"/>
      <point x="390" y="-62" type="line"/>
      <point x="390" y="-31" type="line"/>
      <point x="452" y="-31" type="line"/>
      <point x="452" y="372" type="line"/>
      <point x="421" y="372" type="line"/>
      <point x="421" y="403" type="line"/>
      <point x="390" y="403" type="line"/>
      <point x="390" y="434" type="line"/>
      <point x="80" y="434" type="line"/>
      <point x="80" y="372" type="line"/>
      <point x="359" y="372" type="line"/>
      <point x="359" y="279" type="line"/>
      <point x="111" y="279" type="line"/>
      <point x="111" y="248" type="line"/>
      <point x="80" y="248" type="line"/>
      <point x="80" y="217" type="line"/>
      <point x="49" y="217" type="line"/>
      <point x="49" y="62" type="line"/>
      <point x="80" y="62" type="line"/>
    </contour>
    <contour>
      <point x="142" y="62" type="line"/>
      <point x="142" y="217" type="line"/>
      <point x="359" y="217" type="line"/>
      <point x="359" y="62" type="line"/>
    </contour>
  </outline>
</glyph>
<glyph name="dcroat" format="2">
  <advance width="500"/>
  <unicode hex="0111"/>
  <outline>
    <contour>
      <point x="18" y="62" type="line"/>
      <point x="49" y="62" type="line"/>
      <point x="49" y="31" type="line"/>
      <point x="80" y="31" type="line"/>
      <point x="80" y="0" type="line"/>
      <point x="421" y="0" type="line"/>
      <point x="421" y="496" type="line"/>
      <point x="483" y="496" type="line"/>
      <point x="483" y="558" type="line"/>
      <point x="421" y="558" type="line"/>
      <point x="421" y="620" type="line"/>
      <point x="328" y="620" type="line"/>
      <point x="328" y="558" type="line"/>
      <point x="142" y="558" type="line"/>
      <point x="142" y="496" type="line"/>
      <point x="328" y="496" type="line"/>
      <point x="328" y="434" type="line"/>
      <point x="80" y="434" type="line"/>
      <point x="80" y="403" type="line"/>
      <point x="49" y="403" type="line"/>
      <point x="49" y="372" type="line"/>
      <point x="18" y="372" type="line"/>
    </contour>
    <contour>
      <point x="111" y="62" type="line"/>
      <point x="111" y="372" type="line"/>
      <point x="328" y="372" type="line"/>
      <point x="328" y="62" type="line"/>
    </contour>
  </outline>
</glyph>
<glyph name="Edotaccent" format="2">
  <advance width="500"/>
  <unicode hex="0116"/>
  <outline>
    <contour>
      <point x="204" y="651" type="line"/>
      <point x="297" y="651" type="line"/>
      <point x="297" y="775" type="line"/>
      <point x="204" y="775" type="line"/>
    </contour>
    <contour>
      <point x="49" y="0" type="line"/>
      <point x="452" y="0" type="line"/>
      <point x="452" y="62" type="line"/>
      <point x="142" y="62" type="line"/>
      <point x="142" y="279" type="line"/>
      <point x="359" y="279" type="line"/>
      <point x="359" y="341" type="line"/>
      <point x="142" y="341" type="line"/>
      <point x="142" y="558" type="line"/>
      <point x="452" y="558" type="line"/>
      <point x="452" y="620" type="line"/>
      <point x="49" y="620" type="line"/>
    </contour>
  </outline>
</glyph>
<glyph name="Eogonek" format="2">
  <advance width="500"/>
  <unicode hex="0118"/>
  <outline>
    <contour>
      <point x="49" y="0" type="line"/>
      <point x="297" y="0" type="line"/>
      <point x="297" y="-31" type="line"/>
      <point x="266" y="-31" type="line"/>
      <point x="266" y="-124" type="line"/>
      <point x="297" y="-124" type="line"/>
      <point x="297" y="-155" type="line"/>
      <point x="452" y="-155" type="line"/>
      <point x="452" y="-93" type="line"/>
      <point x="359" y="-93" type="line"/>
      <point x="359" y="-62" type="line"/>
      <point x="390" y="-62" type="line"/>
      <point x="390" y="-31" type="line"/>
      <point x="452" y="-31" type="line"/>
      <point x="452" y="62" type="line"/>
      <point x="142" y="62" type="line"/>
      <point x="142" y="279" type="line"/>
      <point x="359" y="279" type="line"/>
      <point x="359" y="341" type="line"/>
      <point x="142" y="341" type="line"/>
      <point x="142" y="558" type="line"/>
      <point x="452" y="558" type="line"/>
      <point x="452" y="620" type="line"/>
      <point x="49" y="620" type="line"/>
    </contour>
  </outline>
</glyph>
<glyph name="Gcommaaccent" format="2">
  <advance width="500"/>
  <unicode hex="0122"/>
  <outline>
    <contour>
      <point x="49" y="62" type="line"/>
      <point x="80" y="62" type="line"/>
      <point x="80" y="31" type="line"/>
      <point x="111" y="31" type="line"/>
      <point x="111" y="0" type="line"/>
      <point x="390" y="0" type="line"/>
      <point x="390" y="31" type="line"/>
      <point x="421" y="31" type="line"/>
      <point x="421" y="62" type="line"/>
      <point x="452" y="62" type="line"/>
      <point x="452" y="341" type="line"/>
      <point x="235" y="341" type="line"/>
      <point x="235" y="279" type="line"/>
      <point x="359" y="279" type="line"/>
      <point x="359" y="62" type="line"/>
      <point x="142" y="62" type="line"/>
      <point x="142" y="558" type="line"/>
      <point x="359" y="558" type="line"/>
      <point x="359" y="465" type="line"/>
      <point x="452" y="465" type="line"/>
      <point x="452" y="558" type="line"/>
      <point x="421" y="558" type="line"/>
      <point x="421" y="589" type="line"/>
      <point x="390" y="589" type="line"/>
      <point x="390" y="620" type="line"/>
      <point x="111" y="620" type="line"/>
      <point x="111" y="589" type="line"/>
      <point x="80" y="589" type="line"/>
      <point x="80" y="558" type="line"/>
      <point x="49" y="558" type="line"/>
    </contour>
    <contour>
      <point x="142" y="-186" type="line"/>
      <point x="235" y="-186" type="line"/>
      <point x="235" y="-155" type="line"/>
      <point x="266" y="-155" type="line"/>
      <point x="266" y="-124" type="line"/>
      <point x="297" y="-124" type="line"/>
      <point x="297" y="-31" type="line"/>
      <point x="204" y="-31" type="line"/>
      <point x="204" y="-124" type="line"/>
      <point x="173" y="-124" type="line"/>
      <point x="173" y="-155" type="line"/>
      <point x="142" y="-155" type="line"/>
    </contour>
  </outline>
</glyph>
<glyph name="iogonek" format="2">
  <advance width="500"/>
  <unicode hex="012F"/>
  <outline>
    <contour>
      <point x="204" y="496" type="line"/>
      <point x="297" y="496" type="line"/>
      <point x="297" y="620" type="line"/>
      <point x="204" y="620" type="line"/>
    </contour>
    <contour>
      <point x="142" y="0" type="line"/>
      <point x="204" y="0" type="line"/>
      <point x="204" y="-31" type="line"/>
      <point x="173" y="-31" type="line"/>
      <point x="173" y="-124" type="line"/>
      <point x="204" y="-124" type="line"/>
      <point x="204" y="-155" type="line"/>
      <point x="359" y="-155" type="line"/>
      <point x="359" y="-93" type="line"/>
      <point x="266" y="-93" type="line"/>
      <point x="266" y="-62" type="line"/>
      <point x="297" y="-62" type="line"/>
      <point x="297" y="0" type="line"/>
      <point x="359" y="0" type="line"/>
      <point x="359" y="62" type="line"/>
      <point x="297" y="62" type="line"/>
      <point x="297" y="434" type="line"/>
      <point x="142" y="434" type="line"/>
      <point x="142" y="372" type="line"/>
      <point x="204" y="372" type="line"/>
      <point x="204" y="62" type="line"/>
      <point x="142" y="62" type="line"/>
    </contour>
  </outline>
</glyph>
<glyph name="dotlessi" format="2">
  <advance width="500"/>
  <unicode hex="0131"/>
  <anchor x="250" y="496" name="top"/>
  <anchor x="250" y="504" name="t.macron"/>
  <outline>
    <contour>
      <point x="142" y="0" type="line"/>
      <point x="359" y="0" type="line"/>
      <point x="359" y="62" type="line"/>
      <point x="297" y="62" type="line"/>
      <point x="297" y="434" type="line"/>
      <point x="142" y="434" type="line"/>
      <point x="142" y="372" type="line"/>
      <point x="204" y="372" type="line"/>
      <point x="204" y="62" type="line"/>
      <point x="142" y="62" type="line"/>
    </contour>
  </outline>
  <guideline angle="0" x="0" y="496"/>
  <guideline angle="90" x="142" y="0"/>
  <guideline angle="90" x="359" y="0"/>
  <guideline angle="90" x="250" y="0"/>
</glyph>
<glyph name="Jcircumflex" format="2">
  <advance width="500"/>
  <unicode hex="0134"/>
  <outline>
    <contour>
      <point x="204" y="651" type="line"/>
      <point x="297" y="651" type="line"/>
      <point x="297" y="682" type="line"/>
      <point x="328" y="682" type="line"/>
      <point x="328" y="713" type="line"/>
      <point x="359" y="713" type="line"/>
      <point x="359" y="682" type="line"/>
      <point x="390" y="682" type="line"/>
      <point x="390" y="651" type="line"/>
      <point x="483" y="651" type="line"/>
      <point x="483" y="682" type="line"/>
      <point x="452" y="682" type="line"/>
      <point x="452" y="713" type="line"/>
      <point x="421" y="713" type="line"/>
      <point x="421" y="744" type="line"/>
      <point x="390" y="744" type="line"/>
      <point x="390" y="775" type="line"/>
      <point x="297" y="775" type="line"/>
      <point x="297" y="744" type="line"/>
      <point x="266" y="744" type="line"/>
      <point x="266" y="713" type="line"/>
      <point x="235" y="713" type="line"/>
      <point x="235" y="682" type="line"/>
      <point x="204" y="682" type="line"/>
    </contour>
    <contour>
      <point x="18" y="62" type="line"/>
      <point x="49" y="62" type="line"/>
      <point x="49" y="31" type="line"/>
      <point x="80" y="31" type="line"/>
      <point x="80" y="0" type="line"/>
      <point x="328" y="0" type="line"/>
      <point x="328" y="31" type="line"/>
      <point x="359" y="31" type="line"/>
      <point x="359" y="62" type="line"/>
      <point x="390" y="62" type="line"/>
      <point x="390" y="558" type="line"/>
      <point x="452" y="558" type="line"/>
      <point x="452" y="620" type="line"/>
      <point x="235" y="620" type="line"/>
      <point x="235" y="558" type="line"/>
      <point x="297" y="558" type="line"/>
      <point x="297" y="62" type="line"/>
      <point x="111" y="62" type="line"/>
      <point x="111" y="186" type="line"/>
      <point x="18" y="186" type="line"/>
    </contour>
  </outline>
</glyph>
<glyph name="jcircumflex" format="2">
  <advance width="500"/>
  <unicode hex="0135"/>
  <outline>
    <contour>
      <point x="188" y="496" type="line"/>
      <point x="281" y="496" type="line"/>
      <point x="281" y="527" type="line"/>
      <point x="312" y="527" type="line"/>
      <point x="312" y="558" type="line"/>
      <point x="343" y="558" type="line"/>
      <point x="343" y="527" type="line"/>
      <point x="374" y="527" type="line"/>
      <point x="374" y="496" type="line"/>
      <point x="467" y="496" type="line"/>
      <point x="467" y="527" type="line"/>
      <point x="436" y="527" type="line"/>
      <point x="436" y="558" type="line"/>
      <point x="405" y="558" type="line"/>
      <point x="405" y="589" type="line"/>
      <point x="374" y="589" type="line"/>
      <point x="374" y="620" type="line"/>
      <point x="281" y="620" type="line"/>
      <point x="281" y="589" type="line"/>
      <point x="250" y="589" type="line"/>
      <point x="250" y="558" type="line"/>
      <point x="219" y="558" type="line"/>
      <point x="219" y="527" type="line"/>
      <point x="188" y="527" type="line"/>
    </contour>
    <contour>
      <point x="33" y="-93" type="line"/>
      <point x="64" y="-93" type="line"/>
      <point x="64" y="-124" type="line"/>
      <point x="95" y="-124" type="line"/>
      <point x="95" y="-155" type="line"/>
      <point x="312" y="-155" type="line"/>
      <point x="312" y="-124" type="line"/>
      <point x="343" y="-124" type="line"/>
      <point x="343" y="-93" type="line"/>
      <point x="374" y="-93" type="line"/>
      <point x="374" y="434" type="line"/>
      <point x="219" y="434" type="line"/>
      <point x="219" y="372" type="line"/>
      <point x="281" y="372" type="line"/>
      <point x="281" y="-93" type="line"/>
      <point x="126" y="-93" type="line"/>
      <point x="126" y="0" type="line"/>
      <point x="33" y="0" type="line"/>
    </contour>
  </outline>
</glyph>
<glyph name="Lslash" format="2">
  <advance width="500"/>
  <unicode hex="0141"/>
  <outline>
    <contour>
      <point x="126" y="0" type="line"/>
      <point x="498" y="0" type="line"/>
      <point x="498" y="62" type="line"/>
      <point x="219" y="62" type="line"/>
      <point x="219" y="620" type="line"/>
      <point x="126" y="620" type="line"/>
    </contour>
    <contour>
      <point x="206.6" y="310" type="line"/>
      <point x="250" y="310" type="line"/>
      <point x="250" y="341" type="line"/>
      <point x="281" y="341" type="line"/>
      <point x="281" y="372" type="line"/>
      <point x="312" y="372" type="line"/>
      <point x="312" y="403" type="line"/>
      <point x="343" y="403" type="line"/>
      <point x="343" y="465" type="line"/>
      <point x="281.056" y="465" type="line"/>
      <point x="281.056" y="434" type="line"/>
      <point x="250" y="434" type="line"/>
      <point x="250" y="403" type="line"/>
      <point x="206.6" y="403" type="line"/>
    </contour>
    <contour>
      <point x="2" y="155" type="line"/>
      <point x="64.0056" y="155" type="line"/>
      <point x="64.0056" y="186" type="line"/>
      <point x="95" y="186" type="line"/>
      <point x="95" y="217" type="line"/>
      <point x="138.4" y="217" type="line"/>
      <point x="138.4" y="310" type="line"/>
      <point x="95" y="310" type="line"/>
      <point x="95" y="279" type="line"/>
      <point x="64" y="279" type="line"/>
      <point x="64" y="248" type="line"/>
      <point x="33" y="248" type="line"/>
      <point x="33" y="217" type="line"/>
      <point x="2" y="217" type="line"/>
    </contour>
  </outline>
</glyph>
